solid Nerf Gun
facet normal 4.32360534221838e-14 1.08650909969582e-12 -1.0
outer loop
vertex 4.12698106814817 -967.862293165539 -30.3659676522396
vertex 3.62698106814819 -975.541350742805 -30.3659676522497
vertex 3.62698106814819 -974.722708819043 -30.3659676522496
endloop
endfacet
facet normal 4.32360534221838e-14 1.08650909969582e-12 -1.0
outer loop
vertex -19.9121608780704 -960.612293165539 -30.3659676522372
vertex -18.3365661145213 -960.183235588209 -30.3659676522345
vertex -18.8365661145213 -967.862293165539 -30.3659676522406
endloop
endfacet
facet normal 4.32360534221838e-14 1.08650909969582e-12 -1.0
outer loop
vertex -18.3365661145213 -960.183235588209 -30.3659676522345
vertex -19.9121608780704 -960.612293165539 -30.3659676522372
vertex -17.607840850401 -957.609244838334 -30.3659676522383
endloop
endfacet
facet normal 4.32360534221838e-14 1.08650909969582e-12 -1.0
outer loop
vertex -18.3365661145213 -960.183235588209 -30.3659676522345
vertex -17.607840850401 -957.609244838334 -30.3659676522383
vertex -16.5471806786212 -958.669905010114 -30.3659676522377
endloop
endfacet
facet normal 4.32360534221838e-14 1.08650909969582e-12 -1.0
outer loop
vertex -16.5471806786212 -958.669905010114 -30.3659676522377
vertex -17.607840850401 -957.609244838334 -30.3659676522383
vertex -14.6047925231961 -955.304924810665 -30.365967652239
endloop
endfacet
facet normal 4.32360534221838e-14 1.08650909969582e-12 -1.0
outer loop
vertex -16.5471806786212 -958.669905010114 -30.3659676522377
vertex -14.6047925231961 -955.304924810665 -30.365967652239
vertex -13.8547925231961 -956.603962916341 -30.3659676522385
endloop
endfacet
facet normal 4.32360534221838e-14 1.08650909969582e-12 -1.0
outer loop
vertex -13.8547925231961 -956.603962916341 -30.3659676522385
vertex -14.6047925231961 -955.304924810665 -30.365967652239
vertex -11.1076686771826 -953.856368684348 -30.3659676522395
endloop
endfacet
facet normal 4.32360534221838e-14 1.08650909969582e-12 -1.0
outer loop
vertex -13.8547925231961 -956.603962916341 -30.3659676522385
vertex -11.1076686771826 -953.856368684348 -30.3659676522395
vertex -10.7194401095288 -955.305257423781 -30.3659676522388
endloop
endfacet
facet normal 4.32360534221838e-14 1.08650909969582e-12 -1.0
outer loop
vertex -10.7194401095288 -955.305257423781 -30.3659676522388
vertex -11.1076686771826 -953.856368684348 -30.3659676522395
vertex -7.35479252319607 -953.362293165539 -30.3659676522395
endloop
endfacet
facet normal 4.32360534221838e-14 1.08650909969582e-12 -1.0
outer loop
vertex -10.7194401095288 -955.305257423781 -30.3659676522388
vertex -7.35479252319607 -953.362293165539 -30.3659676522395
vertex -7.35479252319607 -954.862293165539 -30.3659676522389
endloop
endfacet
facet normal 4.32360534221838e-14 1.08650909969582e-12 -1.0
outer loop
vertex -7.35479252319607 -954.862293165539 -30.3659676522389
vertex -7.35479252319607 -953.362293165539 -30.3659676522395
vertex -3.60191636919053 -953.856368684348 -30.3659676522391
endloop
endfacet
facet normal 4.32360534221838e-14 1.08650909969582e-12 -1.0
outer loop
vertex -7.35479252319607 -954.862293165539 -30.3659676522389
vertex -3.60191636919053 -953.856368684348 -30.3659676522391
vertex -3.99014493684431 -955.305257423781 -30.3659676522385
endloop
endfacet
facet normal 4.32360534221838e-14 1.08650909969582e-12 -1.0
outer loop
vertex -3.99014493684431 -955.305257423781 -30.3659676522385
vertex -3.60191636919053 -953.856368684348 -30.3659676522391
vertex -0.854792523177084 -956.603962916341 -30.3659676522379
endloop
endfacet
facet normal 4.32360534221838e-14 1.08650909969582e-12 -1.0
outer loop
vertex -0.854792523177084 -956.603962916341 -30.3659676522379
vertex -3.60191636919053 -953.856368684348 -30.3659676522391
vertex -0.104792523177074 -955.304924810665 -30.3659676522384
endloop
endfacet
facet normal 4.32360534221838e-14 1.08650909969582e-12 -1.0
outer loop
vertex -0.854792523177084 -956.603962916341 -30.3659676522379
vertex -0.104792523177074 -955.304924810665 -30.3659676522384
vertex 1.83759563224805 -958.669905010114 -30.3659676522369
endloop
endfacet
facet normal 4.32360534221838e-14 1.08650909969582e-12 -1.0
outer loop
vertex 1.83759563224805 -958.669905010114 -30.3659676522369
vertex -0.104792523177074 -955.304924810665 -30.3659676522384
vertex 2.89825580402787 -957.609244838334 -30.3659676522374
endloop
endfacet
facet normal 4.32360534221838e-14 1.08650909969582e-12 -1.0
outer loop
vertex 1.83759563224805 -958.669905010114 -30.3659676522369
vertex 2.89825580402787 -957.609244838334 -30.3659676522374
vertex 3.62698106814817 -960.183235588209 -30.3659676522336
endloop
endfacet
facet normal 4.32360534221838e-14 1.08650909969582e-12 -1.0
outer loop
vertex 3.62698106814817 -960.183235588209 -30.3659676522336
vertex 2.89825580402787 -957.609244838334 -30.3659676522374
vertex 5.20257583169728 -960.612293165539 -30.3659676522361
endloop
endfacet
facet normal 4.32360534221838e-14 1.08650909969582e-12 -1.0
outer loop
vertex 3.62698106814817 -960.183235588209 -30.3659676522336
vertex 5.20257583169728 -960.612293165539 -30.3659676522361
vertex 3.62698106814817 -961.001877511972 -30.3659676522351
endloop
endfacet
facet normal 4.32360534221838e-14 1.08650909969582e-12 -1.0
outer loop
vertex 3.62698106814817 -961.001877511972 -30.3659676522351
vertex 5.20257583169728 -960.612293165539 -30.3659676522361
vertex 4.12698106814817 -967.862293165539 -30.3659676522396
endloop
endfacet
facet normal 4.32360534221838e-14 1.08650909969582e-12 -1.0
outer loop
vertex -21.3607170043875 -964.109417011553 -30.3659676522359
vertex -21.3607170043876 -971.615169319462 -30.3659676522438
vertex -21.8547925231961 -967.862293165539 -30.3659676522344
endloop
endfacet
facet normal 4.32360534221838e-14 1.08650909969582e-12 -1.0
outer loop
vertex -21.3607170043876 -971.615169319462 -30.3659676522438
vertex -21.3607170043875 -964.109417011553 -30.3659676522359
vertex -19.9121608780704 -975.112293165475 -30.3659676522524
endloop
endfacet
facet normal 4.32360534221838e-14 1.08650909969582e-12 -1.0
outer loop
vertex -19.9121608780704 -975.112293165475 -30.3659676522524
vertex -21.3607170043875 -964.109417011553 -30.3659676522359
vertex -19.9121608780704 -960.612293165539 -30.3659676522372
endloop
endfacet
facet normal 4.32360534221838e-14 1.08650909969582e-12 -1.0
outer loop
vertex -19.9121608780704 -975.112293165475 -30.3659676522524
vertex -19.9121608780704 -960.612293165539 -30.3659676522372
vertex -18.3365661145213 -975.541350742805 -30.3659676522507
endloop
endfacet
facet normal 4.32360534221838e-14 1.08650909969582e-12 -1.0
outer loop
vertex -19.9121608780704 -975.112293165475 -30.3659676522524
vertex -18.3365661145213 -975.541350742805 -30.3659676522507
vertex -17.607840850401 -978.11534149268 -30.3659676522598
endloop
endfacet
facet normal 4.32360534221838e-14 1.08650909969582e-12 -1.0
outer loop
vertex -18.3365661145213 -975.541350742805 -30.3659676522507
vertex -19.9121608780704 -960.612293165539 -30.3659676522372
vertex -18.8365661145213 -967.862293165539 -30.3659676522406
endloop
endfacet
facet normal 4.32360534221838e-14 1.08650909969582e-12 -1.0
outer loop
vertex -18.3365661145213 -975.541350742805 -30.3659676522507
vertex -18.8365661145213 -967.862293165539 -30.3659676522406
vertex -18.3365661145213 -974.722708819043 -30.3659676522505
endloop
endfacet
facet normal 4.32360534221838e-14 1.08650909969582e-12 -1.0
outer loop
vertex -17.607840850401 -978.11534149268 -30.3659676522598
vertex -18.3365661145213 -975.541350742805 -30.3659676522507
vertex -16.5471806786212 -977.0546813209 -30.3659676522572
endloop
endfacet
facet normal 4.32360534221838e-14 1.08650909969582e-12 -1.0
outer loop
vertex -17.607840850401 -978.11534149268 -30.3659676522598
vertex -16.5471806786212 -977.0546813209 -30.3659676522572
vertex -14.6047925231961 -980.419661520349 -30.3659676522654
endloop
endfacet
facet normal 4.32360534221838e-14 1.08650909969582e-12 -1.0
outer loop
vertex -14.6047925231961 -980.419661520349 -30.3659676522654
vertex -16.5471806786212 -977.0546813209 -30.3659676522572
vertex -13.8547925231961 -979.120623414673 -30.3659676522622
endloop
endfacet
facet normal 4.32360534221838e-14 1.08650909969582e-12 -1.0
outer loop
vertex -14.6047925231961 -980.419661520349 -30.3659676522654
vertex -13.8547925231961 -979.120623414673 -30.3659676522622
vertex -11.1076686771826 -981.868217646666 -30.3659676522689
endloop
endfacet
facet normal 4.32360534221838e-14 1.08650909969582e-12 -1.0
outer loop
vertex -11.1076686771826 -981.868217646666 -30.3659676522689
vertex -13.8547925231961 -979.120623414673 -30.3659676522622
vertex -10.7194401095289 -980.419328907233 -30.3659676522652
endloop
endfacet
facet normal 4.32360534221838e-14 1.08650909969582e-12 -1.0
outer loop
vertex -11.1076686771826 -981.868217646666 -30.3659676522689
vertex -10.7194401095289 -980.419328907233 -30.3659676522652
vertex -7.35479252319609 -982.362293165475 -30.36596765227
endloop
endfacet
facet normal 4.32360534221838e-14 1.08650909969582e-12 -1.0
outer loop
vertex -7.35479252319609 -982.362293165475 -30.36596765227
vertex -10.7194401095289 -980.419328907233 -30.3659676522652
vertex -7.35479252319609 -980.862293165475 -30.3659676522662
endloop
endfacet
facet normal 4.32360534221838e-14 1.08650909969582e-12 -1.0
outer loop
vertex -7.35479252319609 -982.362293165475 -30.36596765227
vertex -7.35479252319609 -980.862293165475 -30.3659676522662
vertex -3.99014493684429 -980.419328907233 -30.3659676522649
endloop
endfacet
facet normal 4.32360534221838e-14 1.08650909969582e-12 -1.0
outer loop
vertex -7.35479252319609 -982.362293165475 -30.36596765227
vertex -3.99014493684429 -980.419328907233 -30.3659676522649
vertex -3.60191636919053 -981.868217646666 -30.3659676522686
endloop
endfacet
facet normal 4.32360534221838e-14 1.08650909969582e-12 -1.0
outer loop
vertex -3.60191636919053 -981.868217646666 -30.3659676522686
vertex -3.99014493684429 -980.419328907233 -30.3659676522649
vertex -0.854792523177039 -979.120623414673 -30.3659676522616
endloop
endfacet
facet normal 4.32360534221838e-14 1.08650909969582e-12 -1.0
outer loop
vertex -3.60191636919053 -981.868217646666 -30.3659676522686
vertex -0.854792523177039 -979.120623414673 -30.3659676522616
vertex -0.104792523177029 -980.419661520349 -30.3659676522647
endloop
endfacet
facet normal 4.32360534221838e-14 1.08650909969582e-12 -1.0
outer loop
vertex -0.104792523177029 -980.419661520349 -30.3659676522647
vertex -0.854792523177039 -979.120623414673 -30.3659676522616
vertex 1.83759563224809 -977.0546813209 -30.3659676522564
endloop
endfacet
facet normal 4.32360534221838e-14 1.08650909969582e-12 -1.0
outer loop
vertex -0.104792523177029 -980.419661520349 -30.3659676522647
vertex 1.83759563224809 -977.0546813209 -30.3659676522564
vertex 2.89825580402789 -978.11534149268 -30.3659676522589
endloop
endfacet
facet normal 4.32360534221838e-14 1.08650909969582e-12 -1.0
outer loop
vertex 2.89825580402789 -978.11534149268 -30.3659676522589
vertex 1.83759563224809 -977.0546813209 -30.3659676522564
vertex 3.62698106814819 -975.541350742805 -30.3659676522497
endloop
endfacet
facet normal 4.32360534221838e-14 1.08650909969582e-12 -1.0
outer loop
vertex 2.89825580402789 -978.11534149268 -30.3659676522589
vertex 3.62698106814819 -975.541350742805 -30.3659676522497
vertex 5.2025758316973 -975.112293165475 -30.3659676522514
endloop
endfacet
facet normal 4.32360534221838e-14 1.08650909969582e-12 -1.0
outer loop
vertex 5.2025758316973 -975.112293165475 -30.3659676522514
vertex 3.62698106814819 -975.541350742805 -30.3659676522497
vertex 4.12698106814817 -967.862293165539 -30.3659676522396
endloop
endfacet
facet normal 4.32360534221838e-14 1.08650909969582e-12 -1.0
outer loop
vertex 5.2025758316973 -975.112293165475 -30.3659676522514
vertex 4.12698106814817 -967.862293165539 -30.3659676522396
vertex 5.20257583169728 -960.612293165539 -30.3659676522361
endloop
endfacet
facet normal 4.32360534221838e-14 1.08650909969582e-12 -1.0
outer loop
vertex 5.2025758316973 -975.112293165475 -30.3659676522514
vertex 5.20257583169728 -960.612293165539 -30.3659676522361
vertex 6.65113195801441 -964.109417011553 -30.3659676522347
endloop
endfacet
facet normal 4.32360534221838e-14 1.08650909969582e-12 -1.0
outer loop
vertex 5.2025758316973 -975.112293165475 -30.3659676522514
vertex 6.65113195801441 -964.109417011553 -30.3659676522347
vertex 6.65113195801446 -971.615169319462 -30.3659676522426
endloop
endfacet
facet normal 4.32360534221838e-14 1.08650909969582e-12 -1.0
outer loop
vertex 6.65113195801446 -971.615169319462 -30.3659676522426
vertex 6.65113195801441 -964.109417011553 -30.3659676522347
vertex 7.14520747682292 -967.862293165539 -30.3659676522332
endloop
endfacet
facet normal 4.32360534221838e-14 1.08650909969582e-12 -1.0
outer loop
vertex -18.3365661145213 -961.001877511972 -30.3659676522361
vertex -18.8365661145213 -967.862293165539 -30.3659676522406
vertex -18.3365661145213 -960.183235588209 -30.3659676522345
endloop
endfacet
facet normal 0.130526192220011 -0.991444861373816 -2.49922121639724e-13
outer loop
vertex -7.3547925231924 -957.062293165539 1.0036260711388e-11
vertex -10.1500382103004 -957.430294241617 -2.19999999998889
vertex -7.35479252319313 -957.062293165539 -2.19999999998964
endloop
endfacet
facet normal 0.258819045102484 -0.965925826289078 -2.82813396476576e-13
outer loop
vertex -10.1500382103004 -957.430294241617 -2.19999999998889
vertex -7.3547925231924 -957.062293165539 1.0036260711388e-11
vertex -10.1500382102997 -957.430294241617 1.07920117287108e-11
endloop
endfacet
facet normal -0.645752042092646 -0.763547182650278 -2.19962956820021e-13
outer loop
vertex 3.62698106814817 -960.183235588209 -30.3659676522336
vertex 1.83759563223807 -958.669905010114 -2.19999999998823
vertex 1.83759563224805 -958.669905010114 -30.3659676522369
endloop
endfacet
facet normal -0.645752042092646 -0.763547182650278 -2.19962956820021e-13
outer loop
vertex 1.83759563223807 -958.669905010114 -2.19999999998823
vertex 3.62698106814817 -960.183235588209 -30.3659676522336
vertex 3.62698106813819 -960.183235588209 -2.19999999998487
endloop
endfacet
facet normal 0.965925826289062 0.258819045102545 3.44115513702392e-13
outer loop
vertex 6.65113195801441 -964.109417011553 -30.3659676522347
vertex 7.14520747681207 -967.862293165539 1.60991886488659e-11
vertex 7.14520747682292 -967.862293165539 -30.3659676522332
endloop
endfacet
facet normal 0.99144486137381 0.130526192220052 3.53825350979995e-13
outer loop
vertex 7.14520747681207 -967.862293165539 1.60991886488659e-11
vertex 6.65113195801441 -964.109417011553 -30.3659676522347
vertex 6.65113195800355 -964.109417011552 1.46046064131156e-11
endloop
endfacet
facet normal -0.997354649646227 -0.0726890832866359 -3.52246661931144e-13
outer loop
vertex 4.12698106813819 -967.862293165539 -2.19999999999093
vertex 3.62698106814817 -961.001877511972 -30.3659676522351
vertex 4.12698106814817 -967.862293165539 -30.3659676522396
endloop
endfacet
facet normal -0.997354649646227 -0.0726890832866359 -3.52246661931144e-13
outer loop
vertex 3.62698106814817 -961.001877511972 -30.3659676522351
vertex 4.12698106813819 -967.862293165539 -2.19999999999093
vertex 3.62698106813819 -961.001877511971 -2.19999999998645
endloop
endfacet
facet normal -0.499999999999966 -0.866025403784458 -3.92736466459967e-13
outer loop
vertex -1.95479252318238 -958.509218804666 -2.19999999998786
vertex -4.55954683607612 -957.430294241617 1.10345288462099e-11
vertex -4.55954683607519 -957.430294241617 -2.19999999998865
endloop
endfacet
facet normal -0.258819045102259 -0.965925826289139 -2.86379619111148e-13
outer loop
vertex -4.55954683607612 -957.430294241617 1.10345288462099e-11
vertex -1.95479252318238 -958.509218804666 -2.19999999998786
vertex -1.95479252318331 -958.509218804667 1.18156595618757e-11
endloop
endfacet
facet normal -0.608761429008688 -0.79335334029126 -4.23219172119896e-13
outer loop
vertex 0.281960713632399 -960.225539928724 -2.1999999999874
vertex -1.95479252318331 -958.509218804667 1.18156595618757e-11
vertex -1.95479252318238 -958.509218804666 -2.19999999998786
endloop
endfacet
facet normal -0.499999999999963 -0.86602540378446 -3.92736466459966e-13
outer loop
vertex -1.95479252318331 -958.509218804667 1.18156595618757e-11
vertex 0.281960713632399 -960.225539928724 -2.1999999999874
vertex 0.281960713631468 -960.225539928724 1.2275314098531e-11
endloop
endfacet
facet normal -0.608761429008721 -0.793353340291235 -2.06389467806991e-13
outer loop
vertex 1.83759563224805 -958.669905010114 -30.3659676522369
vertex -0.854792523187056 -956.603962916341 -2.19999999998924
vertex -0.854792523177084 -956.603962916341 -30.3659676522379
endloop
endfacet
facet normal -0.499999999999995 -0.866025403784442 -1.67017145113689e-13
outer loop
vertex -0.854792523187056 -956.603962916341 -2.19999999998924
vertex 1.83759563224805 -958.669905010114 -30.3659676522369
vertex 1.83759563223807 -958.669905010114 -2.19999999998823
endloop
endfacet
facet normal 0.707106781186546 0.707106781186549 2.49547977199933e-13
outer loop
vertex 2.89825580402787 -957.609244838334 -30.3659676522374
vertex 5.20257583168643 -960.612293165539 1.31636035405336e-11
vertex 5.20257583169728 -960.612293165539 -30.3659676522361
endloop
endfacet
facet normal 0.866025403784446 0.499999999999987 3.07324103323203e-13
outer loop
vertex 5.20257583168643 -960.612293165539 1.31636035405336e-11
vertex 2.89825580402787 -957.609244838334 -30.3659676522374
vertex 2.89825580401701 -957.609244838334 1.18889786904219e-11
endloop
endfacet
facet normal -1.0 5.98285075016699e-25 -3.54007409474901e-13
outer loop
vertex 3.62698106813819 -961.001877511971 -2.19999999998645
vertex 3.62698106814817 -960.183235588209 -30.3659676522336
vertex 3.62698106814817 -961.001877511972 -30.3659676522351
endloop
endfacet
facet normal -1.0 5.98285075016699e-25 -3.54007409474901e-13
outer loop
vertex 3.62698106814817 -960.183235588209 -30.3659676522336
vertex 3.62698106813819 -961.001877511971 -2.19999999998645
vertex 3.62698106813819 -960.183235588209 -2.19999999998487
endloop
endfacet
facet normal 0.130526192219728 0.991444861373853 8.20624886112767e-16
outer loop
vertex -7.35479252318784 -953.362293165539 9.77118386202847e-12
vertex -3.60191636919053 -953.856368684348 -30.3659676522391
vertex -7.35479252319607 -953.362293165539 -30.3659676522395
endloop
endfacet
facet normal 0.258819045102378 0.965925826289107 6.71616445330191e-14
outer loop
vertex -3.60191636919053 -953.856368684348 -30.3659676522391
vertex -7.35479252318784 -953.362293165539 9.77118386202847e-12
vertex -3.60191636920139 -953.856368684347 1.01349595382771e-11
endloop
endfacet
facet normal 0.258819045102347 0.965925826289115 6.7161644533003e-14
outer loop
vertex -3.60191636920139 -953.856368684347 1.01349595382771e-11
vertex -0.104792523177074 -955.304924810665 -30.3659676522384
vertex -3.60191636919053 -953.856368684348 -30.3659676522391
endloop
endfacet
facet normal 0.500000000000006 0.866025403784435 1.74647931106257e-13
outer loop
vertex -0.104792523177074 -955.304924810665 -30.3659676522384
vertex -3.60191636920139 -953.856368684347 1.01349595382771e-11
vertex -0.104792523187931 -955.304924810664 1.09330100528382e-11
endloop
endfacet
facet normal -1.0 -1.28452855200516e-15 -3.98722737283056e-13
outer loop
vertex 3.74520747681792 -963.471629404377 1.24445120874839e-11
vertex 3.7452074768188 -972.252956926697 -2.19999999999448
vertex 3.74520747681794 -972.252956926701 3.21758175658715e-12
endloop
endfacet
facet normal -1.0 -1.28452855200516e-15 -3.98722737283056e-13
outer loop
vertex 3.7452074768188 -972.252956926697 -2.19999999999448
vertex 3.74520747681792 -963.471629404377 1.24445120874839e-11
vertex 3.7452074768188 -963.471629404376 -2.19999999998525
endloop
endfacet
facet normal -1.0 5.09366366754135e-26 -3.54007409474901e-13
outer loop
vertex 3.62698106813822 -974.722708819102 -2.20000000000087
vertex 3.62698106814819 -975.541350742805 -30.3659676522497
vertex 3.62698106813822 -975.541350742864 -2.20000000000101
endloop
endfacet
facet normal -1.0 5.09366366754135e-26 -3.54007409474901e-13
outer loop
vertex 3.62698106814819 -975.541350742805 -30.3659676522497
vertex 3.62698106813822 -974.722708819102 -2.20000000000087
vertex 3.62698106814819 -974.722708819043 -30.3659676522496
endloop
endfacet
facet normal -0.258819045102346 -0.965925826289115 -6.00208805255093e-14
outer loop
vertex -3.99014493684431 -955.305257423781 -30.3659676522385
vertex -7.35479252318853 -954.862293165539 -2.19999999999022
vertex -7.35479252319607 -954.862293165539 -30.3659676522389
endloop
endfacet
facet normal -0.13052619221966 -0.991444861373862 5.7723256173199e-15
outer loop
vertex -7.35479252318853 -954.862293165539 -2.19999999999022
vertex -3.99014493684431 -955.305257423781 -30.3659676522385
vertex -3.99014493685428 -955.305257423781 -2.19999999998982
endloop
endfacet
facet normal -0.683862147873377 -0.729611240802944 -5.37229391278365e-13
outer loop
vertex 3.7452074768188 -963.471629404376 -2.19999999998525
vertex 0.281960713631468 -960.225539928724 1.2275314098531e-11
vertex 0.281960713632399 -960.225539928724 -2.1999999999874
endloop
endfacet
facet normal -0.683862147873377 -0.729611240802944 -5.37229391278365e-13
outer loop
vertex 0.281960713631468 -960.225539928724 1.2275314098531e-11
vertex 3.7452074768188 -963.471629404376 -2.19999999998525
vertex 3.74520747681792 -963.471629404377 1.24445120874839e-11
endloop
endfacet
facet normal 0.258819045102377 -0.965925826289107 -1.9623593066847e-12
outer loop
vertex -3.60191636919053 -981.868217646666 -30.3659676522686
vertex -7.35479252318788 -982.362293165539 -2.0695734015419e-11
vertex -7.35479252319609 -982.362293165475 -30.36596765227
endloop
endfacet
facet normal 0.130526192219728 -0.991444861373853 -2.08231992238444e-12
outer loop
vertex -7.35479252318788 -982.362293165539 -2.0695734015419e-11
vertex -3.60191636919053 -981.868217646666 -30.3659676522686
vertex -3.60191636920137 -981.86821764673 -1.92942106735927e-11
endloop
endfacet
facet normal -0.258819045102263 -0.965925826289137 -2.8637961911115e-13
outer loop
vertex -4.55954683607519 -957.430294241617 -2.19999999998865
vertex -7.3547925231924 -957.062293165539 1.0036260711388e-11
vertex -7.35479252319313 -957.062293165539 -2.19999999998964
endloop
endfacet
facet normal -0.130526192219558 -0.991444861373875 -2.12325272568072e-13
outer loop
vertex -7.3547925231924 -957.062293165539 1.0036260711388e-11
vertex -4.55954683607519 -957.430294241617 -2.19999999998865
vertex -4.55954683607612 -957.430294241617 1.10345288462099e-11
endloop
endfacet
facet normal 8.54252088064803e-14 1.05060404820277e-12 -1.0
outer loop
vertex -16.5471806786136 -958.669905010114 -2.19999999998902
vertex -18.3365661145138 -961.001877511971 -2.1999999999874
vertex -18.3365661145138 -960.183235588209 -2.19999999998582
endloop
endfacet
facet normal 8.54252088064803e-14 1.05060404820277e-12 -1.0
outer loop
vertex -18.3365661145138 -961.001877511971 -2.1999999999874
vertex -18.4547925231944 -963.471629404376 -2.19999999998621
vertex -18.8365661145138 -967.862293165539 -2.19999999999192
endloop
endfacet
facet normal 8.54252088064803e-14 1.05060404820277e-12 -1.0
outer loop
vertex -18.4547925231944 -963.471629404376 -2.19999999998621
vertex -18.3365661145138 -961.001877511971 -2.1999999999874
vertex -14.991545760008 -960.225539928724 -2.19999999998806
endloop
endfacet
facet normal 8.54252088064803e-14 1.05060404820277e-12 -1.0
outer loop
vertex -14.991545760008 -960.225539928724 -2.19999999998806
vertex -18.3365661145138 -961.001877511971 -2.1999999999874
vertex -16.5471806786136 -958.669905010114 -2.19999999998902
endloop
endfacet
facet normal 8.54252088064803e-14 1.05060404820277e-12 -1.0
outer loop
vertex -14.991545760008 -960.225539928724 -2.19999999998806
vertex -16.5471806786136 -958.669905010114 -2.19999999998902
vertex -13.8547925231885 -956.603962916341 -2.1999999999898
endloop
endfacet
facet normal 8.54252088064803e-14 1.05060404820277e-12 -1.0
outer loop
vertex -14.991545760008 -960.225539928724 -2.19999999998806
vertex -13.8547925231885 -956.603962916341 -2.1999999999898
vertex -12.7547925231932 -958.509218804666 -2.19999999998833
endloop
endfacet
facet normal 8.54252088064803e-14 1.05060404820277e-12 -1.0
outer loop
vertex -12.7547925231932 -958.509218804666 -2.19999999998833
vertex -13.8547925231885 -956.603962916341 -2.1999999999898
vertex -10.7194401095213 -955.305257423781 -2.19999999999011
endloop
endfacet
facet normal 8.54252088064803e-14 1.05060404820277e-12 -1.0
outer loop
vertex -12.7547925231932 -958.509218804666 -2.19999999998833
vertex -10.7194401095213 -955.305257423781 -2.19999999999011
vertex -10.1500382103004 -957.430294241617 -2.19999999998889
endloop
endfacet
facet normal 8.54252088064803e-14 1.05060404820277e-12 -1.0
outer loop
vertex -10.1500382103004 -957.430294241617 -2.19999999998889
vertex -10.7194401095213 -955.305257423781 -2.19999999999011
vertex -7.35479252318853 -954.862293165539 -2.19999999999022
endloop
endfacet
facet normal 8.54252088064803e-14 1.05060404820277e-12 -1.0
outer loop
vertex -10.1500382103004 -957.430294241617 -2.19999999998889
vertex -7.35479252318853 -954.862293165539 -2.19999999999022
vertex -7.35479252319313 -957.062293165539 -2.19999999998964
endloop
endfacet
facet normal 8.54252088064803e-14 1.05060404820277e-12 -1.0
outer loop
vertex -7.35479252319313 -957.062293165539 -2.19999999998964
vertex -7.35479252318853 -954.862293165539 -2.19999999999022
vertex -4.55954683607519 -957.430294241617 -2.19999999998865
endloop
endfacet
facet normal 8.54252088064803e-14 1.05060404820277e-12 -1.0
outer loop
vertex -4.55954683607519 -957.430294241617 -2.19999999998865
vertex -7.35479252318853 -954.862293165539 -2.19999999999022
vertex -3.99014493685428 -955.305257423781 -2.19999999998982
endloop
endfacet
facet normal 8.54252088064803e-14 1.05060404820277e-12 -1.0
outer loop
vertex -4.55954683607519 -957.430294241617 -2.19999999998865
vertex -3.99014493685428 -955.305257423781 -2.19999999998982
vertex -1.95479252318238 -958.509218804666 -2.19999999998786
endloop
endfacet
facet normal 8.54252088064803e-14 1.05060404820277e-12 -1.0
outer loop
vertex -1.95479252318238 -958.509218804666 -2.19999999998786
vertex -3.99014493685428 -955.305257423781 -2.19999999998982
vertex -0.854792523187056 -956.603962916341 -2.19999999998924
endloop
endfacet
facet normal 8.54252088064803e-14 1.05060404820277e-12 -1.0
outer loop
vertex -1.95479252318238 -958.509218804666 -2.19999999998786
vertex -0.854792523187056 -956.603962916341 -2.19999999998924
vertex 0.281960713632399 -960.225539928724 -2.1999999999874
endloop
endfacet
facet normal 8.54252088064803e-14 1.05060404820277e-12 -1.0
outer loop
vertex 0.281960713632399 -960.225539928724 -2.1999999999874
vertex -0.854792523187056 -956.603962916341 -2.19999999998924
vertex 1.83759563223807 -958.669905010114 -2.19999999998823
endloop
endfacet
facet normal 8.54252088064803e-14 1.05060404820277e-12 -1.0
outer loop
vertex 0.281960713632399 -960.225539928724 -2.1999999999874
vertex 1.83759563223807 -958.669905010114 -2.19999999998823
vertex 3.7452074768188 -963.471629404376 -2.19999999998525
endloop
endfacet
facet normal 8.54252088064803e-14 1.05060404820277e-12 -1.0
outer loop
vertex 3.7452074768188 -963.471629404376 -2.19999999998525
vertex 1.83759563223807 -958.669905010114 -2.19999999998823
vertex 3.62698106813819 -961.001877511971 -2.19999999998645
endloop
endfacet
facet normal 8.54252088064803e-14 1.05060404820277e-12 -1.0
outer loop
vertex 3.62698106813819 -961.001877511971 -2.19999999998645
vertex 1.83759563223807 -958.669905010114 -2.19999999998823
vertex 3.62698106813819 -960.183235588209 -2.19999999998487
endloop
endfacet
facet normal 8.54252088064803e-14 1.05060404820277e-12 -1.0
outer loop
vertex 3.7452074768188 -963.471629404376 -2.19999999998525
vertex 3.62698106813819 -961.001877511971 -2.19999999998645
vertex 4.12698106813819 -967.862293165539 -2.19999999999093
endloop
endfacet
facet normal 8.54252088064803e-14 1.05060404820277e-12 -1.0
outer loop
vertex 3.7452074768188 -963.471629404376 -2.19999999998525
vertex 4.12698106813819 -967.862293165539 -2.19999999999093
vertex 3.7452074768188 -972.252956926697 -2.19999999999448
endloop
endfacet
facet normal 8.54252088064803e-14 1.05060404820277e-12 -1.0
outer loop
vertex -18.8365661145138 -967.862293165539 -2.19999999999192
vertex -18.4547925231944 -972.252956926697 -2.19999999999544
vertex -18.3365661145138 -974.722708819102 -2.20000000000182
endloop
endfacet
facet normal 8.54252088064803e-14 1.05060404820277e-12 -1.0
outer loop
vertex -18.4547925231944 -972.252956926697 -2.19999999999544
vertex -18.8365661145138 -967.862293165539 -2.19999999999192
vertex -18.4547925231944 -963.471629404376 -2.19999999998621
endloop
endfacet
facet normal 8.54252088064803e-14 1.05060404820277e-12 -1.0
outer loop
vertex -18.3365661145138 -974.722708819102 -2.20000000000182
vertex -18.4547925231944 -972.252956926697 -2.19999999999544
vertex -14.991545760008 -975.49904640235 -2.20000000000411
endloop
endfacet
facet normal 8.54252088064803e-14 1.05060404820277e-12 -1.0
outer loop
vertex -18.3365661145138 -974.722708819102 -2.20000000000182
vertex -14.991545760008 -975.49904640235 -2.20000000000411
vertex -18.3365661145138 -975.541350742864 -2.20000000000196
endloop
endfacet
facet normal 8.54252088064803e-14 1.05060404820277e-12 -1.0
outer loop
vertex -18.3365661145138 -975.541350742864 -2.20000000000196
vertex -14.991545760008 -975.49904640235 -2.20000000000411
vertex -16.5471806786137 -977.05468132096 -2.20000000000834
endloop
endfacet
facet normal 8.54252088064803e-14 1.05060404820277e-12 -1.0
outer loop
vertex -16.5471806786137 -977.05468132096 -2.20000000000834
vertex -14.991545760008 -975.49904640235 -2.20000000000411
vertex -13.8547925231886 -979.120623414732 -2.20000000001346
endloop
endfacet
facet normal 8.54252088064803e-14 1.05060404820277e-12 -1.0
outer loop
vertex -13.8547925231886 -979.120623414732 -2.20000000001346
vertex -14.991545760008 -975.49904640235 -2.20000000000411
vertex -12.7547925231932 -977.215367526407 -2.20000000000798
endloop
endfacet
facet normal 8.54252088064803e-14 1.05060404820277e-12 -1.0
outer loop
vertex -13.8547925231886 -979.120623414732 -2.20000000001346
vertex -12.7547925231932 -977.215367526407 -2.20000000000798
vertex -10.7194401095213 -980.419328907292 -2.2000000000165
endloop
endfacet
facet normal 8.54252088064803e-14 1.05060404820277e-12 -1.0
outer loop
vertex -10.7194401095213 -980.419328907292 -2.2000000000165
vertex -12.7547925231932 -977.215367526407 -2.20000000000798
vertex -10.1500382103004 -978.294292089457 -2.20000000001081
endloop
endfacet
facet normal 8.54252088064803e-14 1.05060404820277e-12 -1.0
outer loop
vertex -10.7194401095213 -980.419328907292 -2.2000000000165
vertex -10.1500382103004 -978.294292089457 -2.20000000001081
vertex -7.35479252318856 -980.862293165534 -2.20000000001754
endloop
endfacet
facet normal 8.54252088064803e-14 1.05060404820277e-12 -1.0
outer loop
vertex -7.35479252318856 -980.862293165534 -2.20000000001754
vertex -10.1500382103004 -978.294292089457 -2.20000000001081
vertex -7.35479252319316 -978.662293165534 -2.20000000001234
endloop
endfacet
facet normal 8.54252088064803e-14 1.05060404820277e-12 -1.0
outer loop
vertex -7.35479252318856 -980.862293165534 -2.20000000001754
vertex -7.35479252319316 -978.662293165534 -2.20000000001234
vertex -4.55954683607519 -978.294292089457 -2.20000000001057
endloop
endfacet
facet normal 8.54252088064803e-14 1.05060404820277e-12 -1.0
outer loop
vertex -7.35479252318856 -980.862293165534 -2.20000000001754
vertex -4.55954683607519 -978.294292089457 -2.20000000001057
vertex -3.99014493685426 -980.419328907292 -2.2000000000162
endloop
endfacet
facet normal 8.54252088064803e-14 1.05060404820277e-12 -1.0
outer loop
vertex -3.99014493685426 -980.419328907292 -2.2000000000162
vertex -4.55954683607519 -978.294292089457 -2.20000000001057
vertex -1.95479252318234 -977.215367526407 -2.20000000000752
endloop
endfacet
facet normal 8.54252088064803e-14 1.05060404820277e-12 -1.0
outer loop
vertex -3.99014493685426 -980.419328907292 -2.2000000000162
vertex -1.95479252318234 -977.215367526407 -2.20000000000752
vertex -0.85479252318701 -979.120623414732 -2.2000000000129
endloop
endfacet
facet normal 8.54252088064803e-14 1.05060404820277e-12 -1.0
outer loop
vertex -0.85479252318701 -979.120623414732 -2.2000000000129
vertex -1.95479252318234 -977.215367526407 -2.20000000000752
vertex 0.281960713632422 -975.49904640235 -2.20000000000345
endloop
endfacet
facet normal 8.54252088064803e-14 1.05060404820277e-12 -1.0
outer loop
vertex -0.85479252318701 -979.120623414732 -2.2000000000129
vertex 0.281960713632422 -975.49904640235 -2.20000000000345
vertex 1.83759563223812 -977.05468132096 -2.20000000000754
endloop
endfacet
facet normal 8.54252088064803e-14 1.05060404820277e-12 -1.0
outer loop
vertex 1.83759563223812 -977.05468132096 -2.20000000000754
vertex 0.281960713632422 -975.49904640235 -2.20000000000345
vertex 3.7452074768188 -972.252956926697 -2.19999999999448
endloop
endfacet
facet normal 8.54252088064803e-14 1.05060404820277e-12 -1.0
outer loop
vertex 1.83759563223812 -977.05468132096 -2.20000000000754
vertex 3.7452074768188 -972.252956926697 -2.19999999999448
vertex 3.62698106813822 -974.722708819102 -2.20000000000087
endloop
endfacet
facet normal 8.54252088064803e-14 1.05060404820277e-12 -1.0
outer loop
vertex 3.62698106813822 -974.722708819102 -2.20000000000087
vertex 3.7452074768188 -972.252956926697 -2.19999999999448
vertex 4.12698106813819 -967.862293165539 -2.19999999999093
endloop
endfacet
facet normal 8.54252088064803e-14 1.05060404820277e-12 -1.0
outer loop
vertex 3.62698106813822 -975.541350742864 -2.20000000000101
vertex 1.83759563223812 -977.05468132096 -2.20000000000754
vertex 3.62698106813822 -974.722708819102 -2.20000000000087
endloop
endfacet
facet normal 0.500000000000007 -0.866025403784435 -1.64476007816196e-12
outer loop
vertex -0.104792523177029 -980.419661520349 -30.3659676522647
vertex -3.60191636920137 -981.86821764673 -1.92942106735927e-11
vertex -3.60191636919053 -981.868217646666 -30.3659676522686
endloop
endfacet
facet normal 0.258819045102346 -0.965925826289115 -1.96235930668473e-12
outer loop
vertex -3.60191636920137 -981.86821764673 -1.92942106735927e-11
vertex -0.104792523177029 -980.419661520349 -30.3659676522647
vertex -0.104792523187909 -980.419661520413 -1.54534163243625e-11
endloop
endfacet
facet normal -0.258819045102313 0.965925826289124 1.9695906576565e-12
outer loop
vertex -3.99014493685426 -980.419328907292 -2.2000000000162
vertex -0.854792523177039 -979.120623414673 -30.3659676522616
vertex -3.99014493684429 -980.419328907233 -30.3659676522649
endloop
endfacet
facet normal -0.500000000000007 0.866025403784435 1.65267355926902e-12
outer loop
vertex -0.854792523177039 -979.120623414673 -30.3659676522616
vertex -3.99014493685426 -980.419328907292 -2.2000000000162
vertex -0.85479252318701 -979.120623414732 -2.2000000000129
endloop
endfacet
facet normal -0.258819045102258 0.965925826289139 1.74482906340448e-12
outer loop
vertex -4.55954683607609 -978.294292089461 -1.08850706226349e-11
vertex -1.95479252318234 -977.215367526407 -2.20000000000752
vertex -4.55954683607519 -978.294292089457 -2.20000000001057
endloop
endfacet
facet normal -0.499999999999969 0.866025403784456 1.42492778416977e-12
outer loop
vertex -1.95479252318234 -977.215367526407 -2.20000000000752
vertex -4.55954683607609 -978.294292089461 -1.08850706226349e-11
vertex -1.95479252318329 -977.215367526411 -7.83668685500061e-12
endloop
endfacet
facet normal -0.645752042092651 0.763547182650274 1.38436955522125e-12
outer loop
vertex 1.83759563223812 -977.05468132096 -2.20000000000754
vertex 3.62698106814819 -975.541350742805 -30.3659676522497
vertex 1.83759563224809 -977.0546813209 -30.3659676522564
endloop
endfacet
facet normal -0.645752042092651 0.763547182650274 1.38436955522125e-12
outer loop
vertex 3.62698106814819 -975.541350742805 -30.3659676522497
vertex 1.83759563223812 -977.05468132096 -2.20000000000754
vertex 3.62698106813822 -975.541350742864 -2.20000000000101
endloop
endfacet
facet normal -0.683862147873377 0.729611240802944 9.96510499815463e-13
outer loop
vertex 0.281960713631468 -975.499046402354 -3.77029518716654e-12
vertex 3.7452074768188 -972.252956926697 -2.19999999999448
vertex 0.281960713632422 -975.49904640235 -2.20000000000345
endloop
endfacet
facet normal -0.683862147873377 0.729611240802944 9.96510499815463e-13
outer loop
vertex 3.7452074768188 -972.252956926697 -2.19999999999448
vertex 0.281960713631468 -975.499046402354 -3.77029518716654e-12
vertex 3.74520747681794 -972.252956926701 3.21758175658715e-12
endloop
endfacet
facet normal -0.499999999999994 0.866025403784442 1.65267355926904e-12
outer loop
vertex -0.85479252318701 -979.120623414732 -2.2000000000129
vertex 1.83759563224809 -977.0546813209 -30.3659676522564
vertex -0.854792523177039 -979.120623414673 -30.3659676522616
endloop
endfacet
facet normal -0.608761429008721 0.793353340291235 1.46059337467678e-12
outer loop
vertex 1.83759563224809 -977.0546813209 -30.3659676522564
vertex -0.85479252318701 -979.120623414732 -2.2000000000129
vertex 1.83759563223812 -977.05468132096 -2.20000000000754
endloop
endfacet
facet normal 0.707106781186546 -0.707106781186549 -1.23596217836852e-12
outer loop
vertex 2.89825580402789 -978.11534149268 -30.3659676522589
vertex 5.20257583168647 -975.112293165539 -2.06985539819016e-12
vertex 2.89825580401701 -978.115341492744 -9.655565236244e-12
endloop
endfacet
facet normal 0.866025403784445 -0.499999999999989 -7.43254393041274e-13
outer loop
vertex 5.20257583168647 -975.112293165539 -2.06985539819016e-12
vertex 2.89825580402789 -978.11534149268 -30.3659676522589
vertex 5.2025758316973 -975.112293165475 -30.3659676522514
endloop
endfacet
facet normal 0.96592582628892 -0.258819045103074 -1.30064007520919e-13
outer loop
vertex 6.65113195801446 -971.615169319462 -30.3659676522426
vertex 7.14520747681207 -967.862293165539 1.60991886488659e-11
vertex 6.65113195800358 -971.615169319525 6.71998012791164e-12
endloop
endfacet
facet normal 0.991444861373667 -0.130526192221139 2.17667888538637e-13
outer loop
vertex 7.14520747681207 -967.862293165539 1.60991886488659e-11
vertex 6.65113195801446 -971.615169319462 -30.3659676522426
vertex 7.14520747682292 -967.862293165539 -30.3659676522332
endloop
endfacet
facet normal -0.130526192219661 0.991444861373862 2.08900503203216e-12
outer loop
vertex -7.35479252318856 -980.862293165534 -2.20000000001754
vertex -3.99014493684429 -980.419328907233 -30.3659676522649
vertex -7.35479252319609 -980.862293165475 -30.3659676522662
endloop
endfacet
facet normal -0.258819045102346 0.965925826289115 1.96959065765647e-12
outer loop
vertex -3.99014493684429 -980.419328907233 -30.3659676522649
vertex -7.35479252318856 -980.862293165534 -2.20000000001754
vertex -3.99014493685426 -980.419328907292 -2.2000000000162
endloop
endfacet
facet normal -0.499999999999963 0.86602540378446 1.42492778416978e-12
outer loop
vertex -1.95479252318329 -977.215367526411 -7.83668685500061e-12
vertex 0.281960713632422 -975.49904640235 -2.20000000000345
vertex -1.95479252318234 -977.215367526407 -2.20000000000752
endloop
endfacet
facet normal -0.608761429008691 0.793353340291258 1.23854375226094e-12
outer loop
vertex 0.281960713632422 -975.49904640235 -2.20000000000345
vertex -1.95479252318329 -977.215367526411 -7.83668685500061e-12
vertex 0.281960713631468 -975.499046402354 -3.77029518716654e-12
endloop
endfacet
facet normal 0.86602540378443 -0.500000000000014 -7.43254393041333e-13
outer loop
vertex 5.2025758316973 -975.112293165475 -30.3659676522514
vertex 6.65113195800358 -971.615169319525 6.71998012791164e-12
vertex 5.20257583168647 -975.112293165539 -2.06985539819016e-12
endloop
endfacet
facet normal 0.965925826288933 -0.258819045103027 -1.30064007520788e-13
outer loop
vertex 6.65113195800358 -971.615169319525 6.71998012791164e-12
vertex 5.2025758316973 -975.112293165475 -30.3659676522514
vertex 6.65113195801446 -971.615169319462 -30.3659676522426
endloop
endfacet
facet normal -0.130526192219558 0.991444861373876 1.87287271114915e-12
outer loop
vertex -7.3547925231924 -978.662293165539 -1.2656009573675e-11
vertex -4.55954683607519 -978.294292089457 -2.20000000001057
vertex -7.35479252319316 -978.662293165534 -2.20000000001234
endloop
endfacet
facet normal -0.258819045102262 0.965925826289138 1.74482906340448e-12
outer loop
vertex -4.55954683607519 -978.294292089457 -2.20000000001057
vertex -7.3547925231924 -978.662293165539 -1.2656009573675e-11
vertex -4.55954683607609 -978.294292089461 -1.08850706226349e-11
endloop
endfacet
facet normal -0.997354649646201 0.0726890832869928 -2.76707367446816e-13
outer loop
vertex 4.12698106813819 -967.862293165539 -2.19999999999093
vertex 3.62698106814819 -974.722708819043 -30.3659676522496
vertex 3.62698106813822 -974.722708819102 -2.20000000000087
endloop
endfacet
facet normal -0.997354649646201 0.0726890832869928 -2.76707367446816e-13
outer loop
vertex 3.62698106814819 -974.722708819043 -30.3659676522496
vertex 4.12698106813819 -967.862293165539 -2.19999999999093
vertex 4.12698106814817 -967.862293165539 -30.3659676522396
endloop
endfacet
facet normal 0.707106781186546 -0.707106781186549 -1.23596217836852e-12
outer loop
vertex 2.89825580402789 -978.11534149268 -30.3659676522589
vertex -0.104792523187909 -980.419661520413 -1.54534163243625e-11
vertex -0.104792523177029 -980.419661520349 -30.3659676522647
endloop
endfacet
facet normal 0.499999999999995 -0.866025403784441 -1.64476007816198e-12
outer loop
vertex -0.104792523187909 -980.419661520413 -1.54534163243625e-11
vertex 2.89825580402789 -978.11534149268 -30.3659676522589
vertex 2.89825580401701 -978.115341492744 -9.655565236244e-12
endloop
endfacet
facet normal 0.866025403784432 0.500000000000012 3.07324103323197e-13
outer loop
vertex 5.20257583169728 -960.612293165539 -30.3659676522361
vertex 6.65113195800355 -964.109417011552 1.46046064131156e-11
vertex 6.65113195801441 -964.109417011553 -30.3659676522347
endloop
endfacet
facet normal 0.965925826289075 0.258819045102498 3.44115513702397e-13
outer loop
vertex 6.65113195800355 -964.109417011552 1.46046064131156e-11
vertex 5.20257583169728 -960.612293165539 -30.3659676522361
vertex 5.20257583168643 -960.612293165539 1.31636035405336e-11
endloop
endfacet
facet normal 0.499999999999994 0.866025403784442 1.74647931106253e-13
outer loop
vertex -0.104792523187931 -955.304924810664 1.09330100528382e-11
vertex 2.89825580402787 -957.609244838334 -30.3659676522374
vertex -0.104792523177074 -955.304924810665 -30.3659676522384
endloop
endfacet
facet normal 0.707106781186546 0.707106781186549 2.49547977199933e-13
outer loop
vertex 2.89825580402787 -957.609244838334 -30.3659676522374
vertex -0.104792523187931 -955.304924810664 1.09330100528382e-11
vertex 2.89825580401701 -957.609244838334 1.18889786904219e-11
endloop
endfacet
facet normal -0.500000000000006 -0.866025403784435 -1.67017145113693e-13
outer loop
vertex -0.854792523177084 -956.603962916341 -30.3659676522379
vertex -3.99014493685428 -955.305257423781 -2.19999999998982
vertex -3.99014493684431 -955.305257423781 -30.3659676522385
endloop
endfacet
facet normal -0.258819045102314 -0.965925826289124 -6.00208805254927e-14
outer loop
vertex -3.99014493685428 -955.305257423781 -2.19999999998982
vertex -0.854792523177084 -956.603962916341 -30.3659676522379
vertex -0.854792523187056 -956.603962916341 -2.19999999998924
endloop
endfacet
facet normal -4.32360534221126e-14 -1.01353454415327e-12 1.0
outer loop
vertex -21.3607170043793 -971.615169319525 5.51021450689859e-12
vertex -21.3607170043793 -964.109417011552 1.33948407921025e-11
vertex -21.8547925231878 -967.862293165539 1.48443035641321e-11
endloop
endfacet
facet normal -4.32360534221126e-14 -1.01353454415327e-12 1.0
outer loop
vertex -21.3607170043793 -964.109417011552 1.33948407921025e-11
vertex -21.3607170043793 -971.615169319525 5.51021450689859e-12
vertex -19.9121608780622 -975.112293165539 -3.1555424939711e-12
endloop
endfacet
facet normal -4.32360534221126e-14 -1.01353454415327e-12 1.0
outer loop
vertex -21.3607170043793 -964.109417011552 1.33948407921025e-11
vertex -19.9121608780622 -975.112293165539 -3.1555424939711e-12
vertex -19.9121608780622 -960.612293165539 1.20779164447526e-11
endloop
endfacet
facet normal -4.32360534221126e-14 -1.01353454415327e-12 1.0
outer loop
vertex -19.9121608780622 -960.612293165539 1.20779164447526e-11
vertex -19.9121608780622 -975.112293165539 -3.1555424939711e-12
vertex -18.4547925231937 -972.252956926701 2.25597318603832e-12
endloop
endfacet
facet normal -4.32360534221126e-14 -1.01353454415327e-12 1.0
outer loop
vertex -18.4547925231937 -972.252956926701 2.25597318603832e-12
vertex -19.9121608780622 -975.112293165539 -3.1555424939711e-12
vertex -17.6078408503928 -978.115341492744 -1.05438546782466e-11
endloop
endfacet
facet normal -4.32360534221126e-14 -1.01353454415327e-12 1.0
outer loop
vertex -18.4547925231937 -972.252956926701 2.25597318603832e-12
vertex -17.6078408503928 -978.115341492744 -1.05438546782466e-11
vertex -14.9915457600072 -975.499046402354 -4.43016734408275e-12
endloop
endfacet
facet normal -4.32360534221126e-14 -1.01353454415327e-12 1.0
outer loop
vertex -14.9915457600072 -975.499046402354 -4.43016734408275e-12
vertex -17.6078408503928 -978.115341492744 -1.05438546782466e-11
vertex -14.6047925231879 -980.419661520413 -1.60822688499707e-11
endloop
endfacet
facet normal -4.32360534221126e-14 -1.01353454415327e-12 1.0
outer loop
vertex -14.9915457600072 -975.499046402354 -4.43016734408275e-12
vertex -14.6047925231879 -980.419661520413 -1.60822688499707e-11
vertex -12.7547925231925 -977.215367526411 -8.30198132462101e-12
endloop
endfacet
facet normal -4.32360534221126e-14 -1.01353454415327e-12 1.0
outer loop
vertex -12.7547925231925 -977.215367526411 -8.30198132462101e-12
vertex -14.6047925231879 -980.419661520413 -1.60822688499707e-11
vertex -11.1076686771744 -981.86821764673 -1.96185068190857e-11
endloop
endfacet
facet normal -4.32360534221126e-14 -1.01353454415327e-12 1.0
outer loop
vertex -12.7547925231925 -977.215367526411 -8.30198132462101e-12
vertex -11.1076686771744 -981.86821764673 -1.96185068190857e-11
vertex -10.1500382102997 -978.294292089461 -1.1127587740134e-11
endloop
endfacet
facet normal -4.32360534221126e-14 -1.01353454415327e-12 1.0
outer loop
vertex -10.1500382102997 -978.294292089461 -1.1127587740134e-11
vertex -11.1076686771744 -981.86821764673 -1.96185068190857e-11
vertex -7.35479252318788 -982.362293165539 -2.0695734015419e-11
endloop
endfacet
facet normal -4.32360534221126e-14 -1.01353454415327e-12 1.0
outer loop
vertex -10.1500382102997 -978.294292089461 -1.1127587740134e-11
vertex -7.35479252318788 -982.362293165539 -2.0695734015419e-11
vertex -7.3547925231924 -978.662293165539 -1.2656009573675e-11
endloop
endfacet
facet normal -4.32360534221126e-14 -1.01353454415327e-12 1.0
outer loop
vertex -7.3547925231924 -978.662293165539 -1.2656009573675e-11
vertex -7.35479252318788 -982.362293165539 -2.0695734015419e-11
vertex -4.55954683607609 -978.294292089461 -1.08850706226349e-11
endloop
endfacet
facet normal -4.32360534221126e-14 -1.01353454415327e-12 1.0
outer loop
vertex -4.55954683607609 -978.294292089461 -1.08850706226349e-11
vertex -7.35479252318788 -982.362293165539 -2.0695734015419e-11
vertex -3.60191636920137 -981.86821764673 -1.92942106735927e-11
endloop
endfacet
facet normal -4.32360534221126e-14 -1.01353454415327e-12 1.0
outer loop
vertex -4.55954683607609 -978.294292089461 -1.08850706226349e-11
vertex -3.60191636920137 -981.86821764673 -1.92942106735927e-11
vertex -1.95479252318329 -977.215367526411 -7.83668685500061e-12
endloop
endfacet
facet normal -4.32360534221126e-14 -1.01353454415327e-12 1.0
outer loop
vertex -1.95479252318329 -977.215367526411 -7.83668685500061e-12
vertex -3.60191636920137 -981.86821764673 -1.92942106735927e-11
vertex -0.104792523187909 -980.419661520413 -1.54534163243625e-11
endloop
endfacet
facet normal -4.32360534221126e-14 -1.01353454415327e-12 1.0
outer loop
vertex -1.95479252318329 -977.215367526411 -7.83668685500061e-12
vertex -0.104792523187909 -980.419661520413 -1.54534163243625e-11
vertex 0.281960713631468 -975.499046402354 -3.77029518716654e-12
endloop
endfacet
facet normal -4.32360534221126e-14 -1.01353454415327e-12 1.0
outer loop
vertex 0.281960713631468 -975.499046402354 -3.77029518716654e-12
vertex -0.104792523187909 -980.419661520413 -1.54534163243625e-11
vertex 2.89825580401701 -978.115341492744 -9.655565236244e-12
endloop
endfacet
facet normal -4.32360534221126e-14 -1.01353454415327e-12 1.0
outer loop
vertex 0.281960713631468 -975.499046402354 -3.77029518716654e-12
vertex 2.89825580401701 -978.115341492744 -9.655565236244e-12
vertex 3.74520747681794 -972.252956926701 3.21758175658715e-12
endloop
endfacet
facet normal -4.32360534221126e-14 -1.01353454415327e-12 1.0
outer loop
vertex 3.74520747681794 -972.252956926701 3.21758175658715e-12
vertex 2.89825580401701 -978.115341492744 -9.655565236244e-12
vertex 5.20257583168647 -975.112293165539 -2.06985539819016e-12
endloop
endfacet
facet normal -4.32360534221126e-14 -1.01353454415327e-12 1.0
outer loop
vertex 3.74520747681794 -972.252956926701 3.21758175658715e-12
vertex 5.20257583168647 -975.112293165539 -2.06985539819016e-12
vertex 5.20257583168643 -960.612293165539 1.31636035405336e-11
endloop
endfacet
facet normal -4.32360534221126e-14 -1.01353454415327e-12 1.0
outer loop
vertex 5.20257583168643 -960.612293165539 1.31636035405336e-11
vertex 5.20257583168647 -975.112293165539 -2.06985539819016e-12
vertex 6.65113195800355 -964.109417011552 1.46046064131156e-11
endloop
endfacet
facet normal -4.32360534221126e-14 -1.01353454415327e-12 1.0
outer loop
vertex 6.65113195800355 -964.109417011552 1.46046064131156e-11
vertex 5.20257583168647 -975.112293165539 -2.06985539819016e-12
vertex 6.65113195800358 -971.615169319525 6.71998012791164e-12
endloop
endfacet
facet normal -4.32360534221126e-14 -1.01353454415327e-12 1.0
outer loop
vertex 6.65113195800355 -964.109417011552 1.46046064131156e-11
vertex 6.65113195800358 -971.615169319525 6.71998012791164e-12
vertex 7.14520747681207 -967.862293165539 1.60991886488659e-11
endloop
endfacet
facet normal -4.32360534221126e-14 -1.01353454415327e-12 1.0
outer loop
vertex -19.9121608780622 -960.612293165539 1.20779164447526e-11
vertex -18.4547925231937 -963.471629404377 1.1482903516935e-11
vertex -17.6078408503928 -957.609244838334 1.10006892484193e-11
endloop
endfacet
facet normal -4.32360534221126e-14 -1.01353454415327e-12 1.0
outer loop
vertex -18.4547925231937 -963.471629404377 1.1482903516935e-11
vertex -19.9121608780622 -960.612293165539 1.20779164447526e-11
vertex -18.4547925231937 -972.252956926701 2.25597318603832e-12
endloop
endfacet
facet normal -4.32360534221126e-14 -1.01353454415327e-12 1.0
outer loop
vertex -17.6078408503928 -957.609244838334 1.10006892484193e-11
vertex -18.4547925231937 -963.471629404377 1.1482903516935e-11
vertex -14.9915457600072 -960.225539928724 1.16154419416148e-11
endloop
endfacet
facet normal -4.32360534221126e-14 -1.01353454415327e-12 1.0
outer loop
vertex -17.6078408503928 -957.609244838334 1.10006892484193e-11
vertex -14.9915457600072 -960.225539928724 1.16154419416148e-11
vertex -14.6047925231878 -955.304924810665 1.030415752723e-11
endloop
endfacet
facet normal -4.32360534221126e-14 -1.01353454415327e-12 1.0
outer loop
vertex -14.6047925231878 -955.304924810665 1.030415752723e-11
vertex -14.9915457600072 -960.225539928724 1.16154419416148e-11
vertex -12.7547925231925 -958.509218804667 1.13503650922553e-11
endloop
endfacet
facet normal -4.32360534221126e-14 -1.01353454415327e-12 1.0
outer loop
vertex -14.6047925231878 -955.304924810665 1.030415752723e-11
vertex -12.7547925231925 -958.509218804667 1.13503650922553e-11
vertex -11.1076686771744 -953.856368684347 9.81066339278413e-12
endloop
endfacet
facet normal -4.32360534221126e-14 -1.01353454415327e-12 1.0
outer loop
vertex -11.1076686771744 -953.856368684347 9.81066339278413e-12
vertex -12.7547925231925 -958.509218804667 1.13503650922553e-11
vertex -10.1500382102997 -957.430294241617 1.07920117287108e-11
endloop
endfacet
facet normal -4.32360534221126e-14 -1.01353454415327e-12 1.0
outer loop
vertex -11.1076686771744 -953.856368684347 9.81066339278413e-12
vertex -10.1500382102997 -957.430294241617 1.07920117287108e-11
vertex -7.35479252318784 -953.362293165539 9.77118386202847e-12
endloop
endfacet
facet normal -4.32360534221126e-14 -1.01353454415327e-12 1.0
outer loop
vertex -7.35479252318784 -953.362293165539 9.77118386202847e-12
vertex -10.1500382102997 -957.430294241617 1.07920117287108e-11
vertex -7.3547925231924 -957.062293165539 1.0036260711388e-11
endloop
endfacet
facet normal -4.32360534221126e-14 -1.01353454415327e-12 1.0
outer loop
vertex -7.35479252318784 -953.362293165539 9.77118386202847e-12
vertex -7.3547925231924 -957.062293165539 1.0036260711388e-11
vertex -4.55954683607612 -957.430294241617 1.10345288462099e-11
endloop
endfacet
facet normal -4.32360534221126e-14 -1.01353454415327e-12 1.0
outer loop
vertex -7.35479252318784 -953.362293165539 9.77118386202847e-12
vertex -4.55954683607612 -957.430294241617 1.10345288462099e-11
vertex -3.60191636920139 -953.856368684347 1.01349595382771e-11
endloop
endfacet
facet normal -4.32360534221126e-14 -1.01353454415327e-12 1.0
outer loop
vertex -3.60191636920139 -953.856368684347 1.01349595382771e-11
vertex -4.55954683607612 -957.430294241617 1.10345288462099e-11
vertex -1.95479252318331 -958.509218804667 1.18156595618757e-11
endloop
endfacet
facet normal -4.32360534221126e-14 -1.01353454415327e-12 1.0
outer loop
vertex -3.60191636920139 -953.856368684347 1.01349595382771e-11
vertex -1.95479252318331 -958.509218804667 1.18156595618757e-11
vertex -0.104792523187931 -955.304924810664 1.09330100528382e-11
endloop
endfacet
facet normal -4.32360534221126e-14 -1.01353454415327e-12 1.0
outer loop
vertex -0.104792523187931 -955.304924810664 1.09330100528382e-11
vertex -1.95479252318331 -958.509218804667 1.18156595618757e-11
vertex 0.281960713631468 -960.225539928724 1.2275314098531e-11
endloop
endfacet
facet normal -4.32360534221126e-14 -1.01353454415327e-12 1.0
outer loop
vertex -0.104792523187931 -955.304924810664 1.09330100528382e-11
vertex 0.281960713631468 -960.225539928724 1.2275314098531e-11
vertex 2.89825580401701 -957.609244838334 1.18889786904219e-11
endloop
endfacet
facet normal -4.32360534221126e-14 -1.01353454415327e-12 1.0
outer loop
vertex 2.89825580401701 -957.609244838334 1.18889786904219e-11
vertex 0.281960713631468 -960.225539928724 1.2275314098531e-11
vertex 3.74520747681792 -963.471629404377 1.24445120874839e-11
endloop
endfacet
facet normal -4.32360534221126e-14 -1.01353454415327e-12 1.0
outer loop
vertex 2.89825580401701 -957.609244838334 1.18889786904219e-11
vertex 3.74520747681792 -963.471629404377 1.24445120874839e-11
vertex 5.20257583168643 -960.612293165539 1.31636035405336e-11
endloop
endfacet
facet normal -4.32360534221126e-14 -1.01353454415327e-12 1.0
outer loop
vertex 5.20257583168643 -960.612293165539 1.31636035405336e-11
vertex 3.74520747681792 -963.471629404377 1.24445120874839e-11
vertex 3.74520747681794 -972.252956926701 3.21758175658715e-12
endloop
endfacet
facet normal -0.258819045102504 -0.965925826289073 -1.96416831690732e-12
outer loop
vertex -11.1076686771744 -981.86821764673 -1.96185068190857e-11
vertex -14.6047925231961 -980.419661520349 -30.3659676522654
vertex -11.1076686771826 -981.868217646666 -30.3659676522689
endloop
endfacet
facet normal -0.500000000000007 -0.866025403784435 -1.68805756368368e-12
outer loop
vertex -14.6047925231961 -980.419661520349 -30.3659676522654
vertex -11.1076686771744 -981.86821764673 -1.96185068190857e-11
vertex -14.6047925231879 -980.419661520413 -1.60822688499707e-11
endloop
endfacet
facet normal 0.500000000000006 0.866025403784435 1.6958886356122e-12
outer loop
vertex -13.8547925231961 -979.120623414673 -30.3659676522622
vertex -10.7194401095213 -980.419328907292 -2.2000000000165
vertex -10.7194401095289 -980.419328907233 -30.3659676522652
endloop
endfacet
facet normal 0.258819045102504 0.965925826289073 1.97153847020754e-12
outer loop
vertex -10.7194401095213 -980.419328907292 -2.2000000000165
vertex -13.8547925231961 -979.120623414673 -30.3659676522622
vertex -13.8547925231886 -979.120623414732 -2.20000000001346
endloop
endfacet
facet normal 0.499999999999969 0.866025403784456 1.46789825985848e-12
outer loop
vertex -12.7547925231932 -977.215367526407 -2.20000000000798
vertex -10.1500382102997 -978.294292089461 -1.1127587740134e-11
vertex -10.1500382103004 -978.294292089457 -2.20000000001081
endloop
endfacet
facet normal 0.258819045102479 0.96592582628908 1.74155408352329e-12
outer loop
vertex -10.1500382102997 -978.294292089461 -1.1127587740134e-11
vertex -12.7547925231932 -977.215367526407 -2.20000000000798
vertex -12.7547925231925 -977.215367526411 -8.30198132462101e-12
endloop
endfacet
facet normal 0.645752042092651 0.763547182650274 1.44022848385843e-12
outer loop
vertex -18.3365661145213 -975.541350742805 -30.3659676522507
vertex -16.5471806786137 -977.05468132096 -2.20000000000834
vertex -16.5471806786212 -977.0546813209 -30.3659676522572
endloop
endfacet
facet normal 0.645752042092651 0.763547182650274 1.44022848385843e-12
outer loop
vertex -16.5471806786137 -977.05468132096 -2.20000000000834
vertex -18.3365661145213 -975.541350742805 -30.3659676522507
vertex -18.3365661145138 -975.541350742864 -2.20000000000196
endloop
endfacet
facet normal 0.683862147873377 0.729611240802944 1.0549706558429e-12
outer loop
vertex -18.4547925231944 -972.252956926697 -2.19999999999544
vertex -14.9915457600072 -975.499046402354 -4.43016734408275e-12
vertex -14.991545760008 -975.49904640235 -2.20000000000411
endloop
endfacet
facet normal 0.683862147873377 0.729611240802944 1.0549706558429e-12
outer loop
vertex -14.9915457600072 -975.499046402354 -4.43016734408275e-12
vertex -18.4547925231944 -972.252956926697 -2.19999999999544
vertex -18.4547925231937 -972.252956926701 2.25597318603832e-12
endloop
endfacet
facet normal 0.608761429008721 0.793353340291235 1.51319396613233e-12
outer loop
vertex -16.5471806786212 -977.0546813209 -30.3659676522572
vertex -13.8547925231886 -979.120623414732 -2.20000000001346
vertex -13.8547925231961 -979.120623414673 -30.3659676522622
endloop
endfacet
facet normal 0.499999999999993 0.866025403784443 1.69588863561222e-12
outer loop
vertex -13.8547925231886 -979.120623414732 -2.20000000001346
vertex -16.5471806786212 -977.0546813209 -30.3659676522572
vertex -16.5471806786137 -977.05468132096 -2.20000000000834
endloop
endfacet
facet normal -0.866025403784445 -0.499999999999989 -8.18153571624907e-13
outer loop
vertex -19.9121608780622 -975.112293165539 -3.1555424939711e-12
vertex -17.607840850401 -978.11534149268 -30.3659676522598
vertex -17.6078408503928 -978.115341492744 -1.05438546782466e-11
endloop
endfacet
facet normal -0.707106781186546 -0.707106781186549 -1.29713309734796e-12
outer loop
vertex -17.607840850401 -978.11534149268 -30.3659676522598
vertex -19.9121608780622 -975.112293165539 -3.1555424939711e-12
vertex -19.9121608780704 -975.112293165475 -30.3659676522524
endloop
endfacet
facet normal -0.991444861373667 -0.130526192221139 1.31934928859607e-13
outer loop
vertex -21.8547925231878 -967.862293165539 1.48443035641321e-11
vertex -21.3607170043876 -971.615169319462 -30.3659676522438
vertex -21.3607170043793 -971.615169319525 5.51021450689859e-12
endloop
endfacet
facet normal -0.96592582628892 -0.258819045103075 -2.13594653195034e-13
outer loop
vertex -21.3607170043876 -971.615169319462 -30.3659676522438
vertex -21.8547925231878 -967.862293165539 1.48443035641321e-11
vertex -21.8547925231961 -967.862293165539 -30.3659676522344
endloop
endfacet
facet normal 0.258819045102536 0.965925826289064 1.97153847020751e-12
outer loop
vertex -10.7194401095289 -980.419328907233 -30.3659676522652
vertex -7.35479252318856 -980.862293165534 -2.20000000001754
vertex -7.35479252319609 -980.862293165475 -30.3659676522662
endloop
endfacet
facet normal 0.130526192220053 0.99144486137381 2.05977719022846e-12
outer loop
vertex -7.35479252318856 -980.862293165534 -2.20000000001754
vertex -10.7194401095289 -980.419328907233 -30.3659676522652
vertex -10.7194401095213 -980.419328907292 -2.2000000000165
endloop
endfacet
facet normal 0.608761429008691 0.793353340291258 1.29068014662226e-12
outer loop
vertex -14.991545760008 -975.49904640235 -2.20000000000411
vertex -12.7547925231925 -977.215367526411 -8.30198132462101e-12
vertex -12.7547925231932 -977.215367526407 -2.20000000000798
endloop
endfacet
facet normal 0.499999999999963 0.86602540378446 1.46789825985849e-12
outer loop
vertex -12.7547925231925 -977.215367526411 -8.30198132462101e-12
vertex -14.991545760008 -975.49904640235 -2.20000000000411
vertex -14.9915457600072 -975.499046402354 -4.43016734408275e-12
endloop
endfacet
facet normal -0.965925826288933 -0.258819045103027 -2.13594653194904e-13
outer loop
vertex -21.3607170043793 -971.615169319525 5.51021450689859e-12
vertex -19.9121608780704 -975.112293165475 -30.3659676522524
vertex -19.9121608780622 -975.112293165539 -3.1555424939711e-12
endloop
endfacet
facet normal -0.86602540378443 -0.500000000000014 -8.18153571624965e-13
outer loop
vertex -19.9121608780704 -975.112293165475 -30.3659676522524
vertex -21.3607170043793 -971.615169319525 5.51021450689859e-12
vertex -21.3607170043876 -971.615169319462 -30.3659676522438
endloop
endfacet
facet normal 0.258819045102482 0.965925826289079 1.74155408352329e-12
outer loop
vertex -10.1500382103004 -978.294292089457 -2.20000000001081
vertex -7.3547925231924 -978.662293165539 -1.2656009573675e-11
vertex -7.35479252319316 -978.662293165534 -2.20000000001234
endloop
endfacet
facet normal 0.13052619222001 0.991444861373816 1.83330946693723e-12
outer loop
vertex -7.3547925231924 -978.662293165539 -1.2656009573675e-11
vertex -10.1500382103004 -978.294292089457 -2.20000000001081
vertex -10.1500382102997 -978.294292089461 -1.1127587740134e-11
endloop
endfacet
facet normal 0.997354649646201 0.0726890832869928 -1.90461665383324e-13
outer loop
vertex -18.3365661145213 -974.722708819043 -30.3659676522505
vertex -18.8365661145138 -967.862293165539 -2.19999999999192
vertex -18.3365661145138 -974.722708819102 -2.20000000000182
endloop
endfacet
facet normal 0.997354649646201 0.0726890832869928 -1.90461665383324e-13
outer loop
vertex -18.8365661145138 -967.862293165539 -2.19999999999192
vertex -18.3365661145213 -974.722708819043 -30.3659676522505
vertex -18.8365661145213 -967.862293165539 -30.3659676522406
endloop
endfacet
facet normal -0.499999999999995 -0.866025403784442 -1.68805756368369e-12
outer loop
vertex -14.6047925231879 -980.419661520413 -1.60822688499707e-11
vertex -17.607840850401 -978.11534149268 -30.3659676522598
vertex -14.6047925231961 -980.419661520349 -30.3659676522654
endloop
endfacet
facet normal -0.707106781186546 -0.707106781186549 -1.29713309734796e-12
outer loop
vertex -17.607840850401 -978.11534149268 -30.3659676522598
vertex -14.6047925231879 -980.419661520413 -1.60822688499707e-11
vertex -17.6078408503928 -978.115341492744 -1.05438546782466e-11
endloop
endfacet
facet normal -0.130526192220053 -0.99144486137381 -2.05273032538371e-12
outer loop
vertex -7.35479252318788 -982.362293165539 -2.0695734015419e-11
vertex -11.1076686771826 -981.868217646666 -30.3659676522689
vertex -7.35479252319609 -982.362293165475 -30.36596765227
endloop
endfacet
facet normal -0.258819045102535 -0.965925826289064 -1.96416831690729e-12
outer loop
vertex -11.1076686771826 -981.868217646666 -30.3659676522689
vertex -7.35479252318788 -982.362293165539 -2.0695734015419e-11
vertex -11.1076686771744 -981.86821764673 -1.96185068190857e-11
endloop
endfacet
facet normal -0.707106781186546 0.70710678118655 1.83197235394045e-13
outer loop
vertex -17.607840850401 -957.609244838334 -30.3659676522383
vertex -14.6047925231878 -955.304924810665 1.030415752723e-11
vertex -14.6047925231961 -955.304924810665 -30.365967652239
endloop
endfacet
facet normal -0.499999999999994 0.866025403784443 1.2538067657721e-13
outer loop
vertex -14.6047925231878 -955.304924810665 1.030415752723e-11
vertex -17.607840850401 -957.609244838334 -30.3659676522383
vertex -17.6078408503928 -957.609244838334 1.10006892484193e-11
endloop
endfacet
facet normal 0.258819045102505 -0.965925826289073 -5.87276861669533e-14
outer loop
vertex -10.7194401095213 -955.305257423781 -2.19999999999011
vertex -13.8547925231961 -956.603962916341 -30.3659676522385
vertex -10.7194401095288 -955.305257423781 -30.3659676522388
endloop
endfacet
facet normal 0.500000000000005 -0.866025403784436 -1.25380676577214e-13
outer loop
vertex -13.8547925231961 -956.603962916341 -30.3659676522385
vertex -10.7194401095213 -955.305257423781 -2.19999999999011
vertex -13.8547925231885 -956.603962916341 -2.1999999999898
endloop
endfacet
facet normal -0.965925826289075 0.258819045102498 2.59016739952929e-13
outer loop
vertex -21.3607170043793 -964.109417011552 1.33948407921025e-11
vertex -19.9121608780704 -960.612293165539 -30.3659676522372
vertex -21.3607170043875 -964.109417011553 -30.3659676522359
endloop
endfacet
facet normal -0.866025403784431 0.500000000000012 2.28529205366518e-13
outer loop
vertex -19.9121608780704 -960.612293165539 -30.3659676522372
vertex -21.3607170043793 -964.109417011552 1.33948407921025e-11
vertex -19.9121608780622 -960.612293165539 1.20779164447526e-11
endloop
endfacet
facet normal 0.997354649646227 -0.0726890832866359 -2.66003304105377e-13
outer loop
vertex -18.3365661145213 -961.001877511972 -30.3659676522361
vertex -18.8365661145138 -967.862293165539 -2.19999999999192
vertex -18.8365661145213 -967.862293165539 -30.3659676522406
endloop
endfacet
facet normal 0.997354649646227 -0.0726890832866359 -2.66003304105377e-13
outer loop
vertex -18.8365661145138 -967.862293165539 -2.19999999999192
vertex -18.3365661145213 -961.001877511972 -30.3659676522361
vertex -18.3365661145138 -961.001877511971 -2.1999999999874
endloop
endfacet
facet normal 1.0 -1.28452855200093e-15 -3.12250630438858e-13
outer loop
vertex -18.4547925231944 -972.252956926697 -2.19999999999544
vertex -18.4547925231937 -963.471629404377 1.1482903516935e-11
vertex -18.4547925231937 -972.252956926701 2.25597318603832e-12
endloop
endfacet
facet normal 1.0 -1.28452855200093e-15 -3.12250630438858e-13
outer loop
vertex -18.4547925231937 -963.471629404377 1.1482903516935e-11
vertex -18.4547925231944 -972.252956926697 -2.19999999999544
vertex -18.4547925231944 -963.471629404376 -2.19999999998621
endloop
endfacet
facet normal 1.0 6.0828374287682e-25 -2.70443518130942e-13
outer loop
vertex -18.3365661145213 -960.183235588209 -30.3659676522345
vertex -18.3365661145138 -961.001877511971 -2.1999999999874
vertex -18.3365661145213 -961.001877511972 -30.3659676522361
endloop
endfacet
facet normal 1.0 6.0828374287682e-25 -2.70443518130942e-13
outer loop
vertex -18.3365661145138 -961.001877511971 -2.1999999999874
vertex -18.3365661145213 -960.183235588209 -30.3659676522345
vertex -18.3365661145138 -960.183235588209 -2.19999999998582
endloop
endfacet
facet normal -0.258819045102536 0.965925826289064 6.23307378025198e-14
outer loop
vertex -11.1076686771826 -953.856368684348 -30.3659676522395
vertex -7.35479252318784 -953.362293165539 9.77118386202847e-12
vertex -7.35479252319607 -953.362293165539 -30.3659676522395
endloop
endfacet
facet normal -0.130526192220052 0.99144486137381 3.05992336885703e-14
outer loop
vertex -7.35479252318784 -953.362293165539 9.77118386202847e-12
vertex -11.1076686771826 -953.856368684348 -30.3659676522395
vertex -11.1076686771744 -953.856368684347 9.81066339278413e-12
endloop
endfacet
facet normal 0.645752042092646 -0.763547182650278 -1.65962883214165e-13
outer loop
vertex -16.5471806786136 -958.669905010114 -2.19999999998902
vertex -18.3365661145213 -960.183235588209 -30.3659676522345
vertex -16.5471806786212 -958.669905010114 -30.3659676522377
endloop
endfacet
facet normal 0.645752042092646 -0.763547182650278 -1.65962883214165e-13
outer loop
vertex -18.3365661145213 -960.183235588209 -30.3659676522345
vertex -16.5471806786136 -958.669905010114 -2.19999999998902
vertex -18.3365661145138 -960.183235588209 -2.19999999998582
endloop
endfacet
facet normal 0.130526192220052 -0.99144486137381 -2.34547796298923e-14
outer loop
vertex -7.35479252318853 -954.862293165539 -2.19999999999022
vertex -10.7194401095288 -955.305257423781 -30.3659676522388
vertex -7.35479252319607 -954.862293165539 -30.3659676522389
endloop
endfacet
facet normal 0.258819045102537 -0.965925826289064 -5.87276861669622e-14
outer loop
vertex -10.7194401095288 -955.305257423781 -30.3659676522388
vertex -7.35479252318853 -954.862293165539 -2.19999999999022
vertex -10.7194401095213 -955.305257423781 -2.19999999999011
endloop
endfacet
facet normal 0.683862147873377 -0.729611240802944 -4.78010034974483e-13
outer loop
vertex -14.9915457600072 -960.225539928724 1.16154419416148e-11
vertex -18.4547925231944 -963.471629404376 -2.19999999998621
vertex -14.991545760008 -960.225539928724 -2.19999999998806
endloop
endfacet
facet normal 0.683862147873377 -0.729611240802944 -4.78010034974483e-13
outer loop
vertex -18.4547925231944 -963.471629404376 -2.19999999998621
vertex -14.9915457600072 -960.225539928724 1.16154419416148e-11
vertex -18.4547925231937 -963.471629404377 1.1482903516935e-11
endloop
endfacet
facet normal -0.500000000000004 0.866025403784436 1.25380676577213e-13
outer loop
vertex -14.6047925231961 -955.304924810665 -30.365967652239
vertex -11.1076686771744 -953.856368684347 9.81066339278413e-12
vertex -11.1076686771826 -953.856368684348 -30.3659676522395
endloop
endfacet
facet normal -0.258819045102505 0.965925826289073 6.23307378025122e-14
outer loop
vertex -11.1076686771744 -953.856368684347 9.81066339278413e-12
vertex -14.6047925231961 -955.304924810665 -30.365967652239
vertex -14.6047925231878 -955.304924810665 1.030415752723e-11
endloop
endfacet
facet normal 1.0 5.47102144523858e-26 -2.67535302630702e-13
outer loop
vertex -18.3365661145213 -975.541350742805 -30.3659676522507
vertex -18.3365661145138 -974.722708819102 -2.20000000000182
vertex -18.3365661145138 -975.541350742864 -2.20000000000196
endloop
endfacet
facet normal 1.0 5.47102144523858e-26 -2.67535302630702e-13
outer loop
vertex -18.3365661145138 -974.722708819102 -2.20000000000182
vertex -18.3365661145213 -975.541350742805 -30.3659676522507
vertex -18.3365661145213 -974.722708819043 -30.3659676522505
endloop
endfacet
facet normal 0.25881904510248 -0.965925826289079 -2.82813396476575e-13
outer loop
vertex -10.1500382102997 -957.430294241617 1.07920117287108e-11
vertex -12.7547925231932 -958.509218804666 -2.19999999998833
vertex -10.1500382103004 -957.430294241617 -2.19999999998889
endloop
endfacet
facet normal 0.499999999999967 -0.866025403784458 -3.43407627612774e-13
outer loop
vertex -12.7547925231932 -958.509218804666 -2.19999999998833
vertex -10.1500382102997 -957.430294241617 1.07920117287108e-11
vertex -12.7547925231925 -958.509218804667 1.13503650922553e-11
endloop
endfacet
facet normal 0.499999999999963 -0.86602540378446 -3.43407627612773e-13
outer loop
vertex -12.7547925231925 -958.509218804667 1.13503650922553e-11
vertex -14.991545760008 -960.225539928724 -2.19999999998806
vertex -12.7547925231932 -958.509218804666 -2.19999999998833
endloop
endfacet
facet normal 0.608761429008687 -0.793353340291261 -3.70073799817484e-13
outer loop
vertex -14.991545760008 -960.225539928724 -2.19999999998806
vertex -12.7547925231925 -958.509218804667 1.13503650922553e-11
vertex -14.9915457600072 -960.225539928724 1.16154419416148e-11
endloop
endfacet
facet normal 0.499999999999994 -0.866025403784442 -1.2538067657721e-13
outer loop
vertex -13.8547925231885 -956.603962916341 -2.1999999999898
vertex -16.5471806786212 -958.669905010114 -30.3659676522377
vertex -13.8547925231961 -956.603962916341 -30.3659676522385
endloop
endfacet
facet normal 0.608761429008719 -0.793353340291237 -1.55620309304781e-13
outer loop
vertex -16.5471806786212 -958.669905010114 -30.3659676522377
vertex -13.8547925231885 -956.603962916341 -2.1999999999898
vertex -16.5471806786136 -958.669905010114 -2.19999999998902
endloop
endfacet
facet normal -0.70710678118655 0.707106781186545 1.83197235394046e-13
outer loop
vertex -17.6078408503928 -957.609244838334 1.10006892484193e-11
vertex -19.9121608780704 -960.612293165539 -30.3659676522372
vertex -19.9121608780622 -960.612293165539 1.20779164447526e-11
endloop
endfacet
facet normal -0.866025403784431 0.500000000000012 2.28529205366518e-13
outer loop
vertex -19.9121608780704 -960.612293165539 -30.3659676522372
vertex -17.6078408503928 -957.609244838334 1.10006892484193e-11
vertex -17.607840850401 -957.609244838334 -30.3659676522383
endloop
endfacet
facet normal -0.965925826289075 0.258819045102498 2.59016739952929e-13
outer loop
vertex -21.3607170043793 -964.109417011552 1.33948407921025e-11
vertex -21.8547925231961 -967.862293165539 -30.3659676522344
vertex -21.8547925231878 -967.862293165539 1.48443035641321e-11
endloop
endfacet
facet normal -0.99144486137381 0.130526192220052 2.68093024997147e-13
outer loop
vertex -21.8547925231961 -967.862293165539 -30.3659676522344
vertex -21.3607170043793 -964.109417011552 1.33948407921025e-11
vertex -21.3607170043875 -964.109417011553 -30.3659676522359
endloop
endfacet
endsolid Nerf Gun
