solid Nerf Gun
facet normal -4.32154312336186e-14 2.73227923025157e-14 1.0
outer loop
vertex 4.12698106814554 -967.862293165572 30.3659676522146
vertex 3.62698106814554 -960.183235588242 30.3659676522166
vertex 3.62698106814554 -961.001877512005 30.3659676522174
endloop
endfacet
facet normal -4.32154312336186e-14 2.73227923025157e-14 1.0
outer loop
vertex -21.3607170043902 -971.615169319495 30.3659676522126
vertex -21.3607170043902 -964.109417011585 30.3659676522126
vertex -21.8547925231987 -967.862293165572 30.3659676522072
endloop
endfacet
facet normal -4.32154312336186e-14 2.73227923025157e-14 1.0
outer loop
vertex -21.3607170043902 -964.109417011585 30.3659676522126
vertex -21.3607170043902 -971.615169319495 30.3659676522126
vertex -19.9121608780731 -975.112293165508 30.3659676522177
endloop
endfacet
facet normal -4.32154312336186e-14 2.73227923025157e-14 1.0
outer loop
vertex -21.3607170043902 -964.109417011585 30.3659676522126
vertex -19.9121608780731 -975.112293165508 30.3659676522177
vertex -19.912160878073 -960.612293165572 30.3659676522178
endloop
endfacet
facet normal -4.32154312336186e-14 2.73227923025157e-14 1.0
outer loop
vertex -19.912160878073 -960.612293165572 30.3659676522178
vertex -19.9121608780731 -975.112293165508 30.3659676522177
vertex -18.3365661145239 -975.541350742837 30.3659676522156
endloop
endfacet
facet normal -4.32154312336186e-14 2.73227923025157e-14 1.0
outer loop
vertex -18.3365661145239 -975.541350742837 30.3659676522156
vertex -19.9121608780731 -975.112293165508 30.3659676522177
vertex -17.6078408504037 -978.115341492713 30.3659676522221
endloop
endfacet
facet normal -4.32154312336186e-14 2.73227923025157e-14 1.0
outer loop
vertex -19.912160878073 -960.612293165572 30.3659676522178
vertex -18.3365661145239 -975.541350742837 30.3659676522156
vertex -18.8365661145239 -967.862293165572 30.3659676522136
endloop
endfacet
facet normal -4.32154312336186e-14 2.73227923025157e-14 1.0
outer loop
vertex -18.3365661145239 -975.541350742837 30.3659676522156
vertex -17.6078408504037 -978.115341492713 30.3659676522221
vertex -16.5471806786238 -977.054681320933 30.3659676522207
endloop
endfacet
facet normal -4.32154312336186e-14 2.73227923025157e-14 1.0
outer loop
vertex -16.5471806786238 -977.054681320933 30.3659676522207
vertex -17.6078408504037 -978.115341492713 30.3659676522221
vertex -14.6047925231987 -980.419661520382 30.3659676522254
endloop
endfacet
facet normal -4.32154312336186e-14 2.73227923025157e-14 1.0
outer loop
vertex -16.5471806786238 -977.054681320933 30.3659676522207
vertex -14.6047925231987 -980.419661520382 30.3659676522254
vertex -13.8547925231987 -979.120623414706 30.3659676522237
endloop
endfacet
facet normal -4.32154312336186e-14 2.73227923025157e-14 1.0
outer loop
vertex -13.8547925231987 -979.120623414706 30.3659676522237
vertex -14.6047925231987 -980.419661520382 30.3659676522254
vertex -11.1076686771852 -981.868217646699 30.3659676522277
endloop
endfacet
facet normal -4.32154312336186e-14 2.73227923025157e-14 1.0
outer loop
vertex -13.8547925231987 -979.120623414706 30.3659676522237
vertex -11.1076686771852 -981.868217646699 30.3659676522277
vertex -10.7194401095315 -980.419328907266 30.3659676522256
endloop
endfacet
facet normal -4.32154312336186e-14 2.73227923025157e-14 1.0
outer loop
vertex -10.7194401095315 -980.419328907266 30.3659676522256
vertex -11.1076686771852 -981.868217646699 30.3659676522277
vertex -7.35479252317967 -982.362293165508 30.3659676522286
endloop
endfacet
facet normal -4.32154312336186e-14 2.73227923025157e-14 1.0
outer loop
vertex -10.7194401095315 -980.419328907266 30.3659676522256
vertex -7.35479252317967 -982.362293165508 30.3659676522286
vertex -7.35479252317967 -980.862293165508 30.3659676522265
endloop
endfacet
facet normal -4.32154312336186e-14 2.73227923025157e-14 1.0
outer loop
vertex -7.35479252317967 -980.862293165508 30.3659676522265
vertex -7.35479252317967 -982.362293165508 30.3659676522286
vertex -3.60191636919315 -981.868217646699 30.3659676522281
endloop
endfacet
facet normal -4.32154312336186e-14 2.73227923025157e-14 1.0
outer loop
vertex -7.35479252317967 -980.862293165508 30.3659676522265
vertex -3.60191636919315 -981.868217646699 30.3659676522281
vertex -3.99014493684691 -980.419328907266 30.3659676522259
endloop
endfacet
facet normal -4.32154312336186e-14 2.73227923025157e-14 1.0
outer loop
vertex -3.99014493684691 -980.419328907266 30.3659676522259
vertex -3.60191636919315 -981.868217646699 30.3659676522281
vertex -0.85479252317966 -979.120623414706 30.3659676522242
endloop
endfacet
facet normal -4.32154312336186e-14 2.73227923025157e-14 1.0
outer loop
vertex -0.85479252317966 -979.120623414706 30.3659676522242
vertex -3.60191636919315 -981.868217646699 30.3659676522281
vertex -0.10479252317965 -980.419661520382 30.3659676522261
endloop
endfacet
facet normal -4.32154312336186e-14 2.73227923025157e-14 1.0
outer loop
vertex -0.85479252317966 -979.120623414706 30.3659676522242
vertex -0.10479252317965 -980.419661520382 30.3659676522261
vertex 1.83759563224547 -977.054681320933 30.3659676522215
endloop
endfacet
facet normal -4.32154312336186e-14 2.73227923025157e-14 1.0
outer loop
vertex 1.83759563224547 -977.054681320933 30.3659676522215
vertex -0.10479252317965 -980.419661520382 30.3659676522261
vertex 2.89825580402527 -978.115341492713 30.365967652223
endloop
endfacet
facet normal -4.32154312336186e-14 2.73227923025157e-14 1.0
outer loop
vertex 1.83759563224547 -977.054681320933 30.3659676522215
vertex 2.89825580402527 -978.115341492713 30.365967652223
vertex 3.62698106814557 -975.541350742837 30.3659676522165
endloop
endfacet
facet normal -4.32154312336186e-14 2.73227923025157e-14 1.0
outer loop
vertex 3.62698106814557 -975.541350742837 30.3659676522165
vertex 2.89825580402527 -978.115341492713 30.365967652223
vertex 5.20257583169468 -975.112293165508 30.3659676522188
endloop
endfacet
facet normal -4.32154312336186e-14 2.73227923025157e-14 1.0
outer loop
vertex 3.62698106814557 -975.541350742837 30.3659676522165
vertex 5.20257583169468 -975.112293165508 30.3659676522188
vertex 3.62698106814557 -974.722708819076 30.3659676522173
endloop
endfacet
facet normal -4.32154312336186e-14 2.73227923025157e-14 1.0
outer loop
vertex 3.62698106814557 -974.722708819076 30.3659676522173
vertex 5.20257583169468 -975.112293165508 30.3659676522188
vertex 4.12698106814554 -967.862293165572 30.3659676522146
endloop
endfacet
facet normal -4.32154312336186e-14 2.73227923025157e-14 1.0
outer loop
vertex 4.12698106814554 -967.862293165572 30.3659676522146
vertex 5.20257583169468 -975.112293165508 30.3659676522188
vertex 5.20257583169466 -960.612293165572 30.3659676522189
endloop
endfacet
facet normal -4.32154312336186e-14 2.73227923025157e-14 1.0
outer loop
vertex 5.20257583169466 -960.612293165572 30.3659676522189
vertex 5.20257583169468 -975.112293165508 30.3659676522188
vertex 6.65113195801179 -964.109417011585 30.3659676522139
endloop
endfacet
facet normal -4.32154312336186e-14 2.73227923025157e-14 1.0
outer loop
vertex 6.65113195801179 -964.109417011585 30.3659676522139
vertex 5.20257583169468 -975.112293165508 30.3659676522188
vertex 6.65113195801183 -971.615169319495 30.3659676522138
endloop
endfacet
facet normal -4.32154312336186e-14 2.73227923025157e-14 1.0
outer loop
vertex 6.65113195801179 -964.109417011585 30.3659676522139
vertex 6.65113195801183 -971.615169319495 30.3659676522138
vertex 7.1452074768203 -967.862293165572 30.3659676522084
endloop
endfacet
facet normal -4.32154312336186e-14 2.73227923025157e-14 1.0
outer loop
vertex -19.912160878073 -960.612293165572 30.3659676522178
vertex -18.3365661145239 -960.183235588242 30.3659676522157
vertex -17.6078408504036 -957.609244838367 30.3659676522223
endloop
endfacet
facet normal -4.32154312336186e-14 2.73227923025157e-14 1.0
outer loop
vertex -18.3365661145239 -960.183235588242 30.3659676522157
vertex -19.912160878073 -960.612293165572 30.3659676522178
vertex -18.8365661145239 -967.862293165572 30.3659676522136
endloop
endfacet
facet normal -4.32154312336186e-14 2.73227923025157e-14 1.0
outer loop
vertex -18.3365661145239 -960.183235588242 30.3659676522157
vertex -18.8365661145239 -967.862293165572 30.3659676522136
vertex -18.3365661145239 -961.001877512005 30.3659676522164
endloop
endfacet
facet normal -4.32154312336186e-14 2.73227923025157e-14 1.0
outer loop
vertex -17.6078408504036 -957.609244838367 30.3659676522223
vertex -18.3365661145239 -960.183235588242 30.3659676522157
vertex -16.5471806786238 -958.669905010147 30.3659676522207
endloop
endfacet
facet normal -4.32154312336186e-14 2.73227923025157e-14 1.0
outer loop
vertex -17.6078408504036 -957.609244838367 30.3659676522223
vertex -16.5471806786238 -958.669905010147 30.3659676522207
vertex -14.6047925231987 -955.304924810698 30.3659676522257
endloop
endfacet
facet normal -4.32154312336186e-14 2.73227923025157e-14 1.0
outer loop
vertex -14.6047925231987 -955.304924810698 30.3659676522257
vertex -16.5471806786238 -958.669905010147 30.3659676522207
vertex -13.8547925231987 -956.603962916374 30.3659676522239
endloop
endfacet
facet normal -4.32154312336186e-14 2.73227923025157e-14 1.0
outer loop
vertex -14.6047925231987 -955.304924810698 30.3659676522257
vertex -13.8547925231987 -956.603962916374 30.3659676522239
vertex -11.1076686771852 -953.856368684381 30.365967652228
endloop
endfacet
facet normal -4.32154312336186e-14 2.73227923025157e-14 1.0
outer loop
vertex -11.1076686771852 -953.856368684381 30.365967652228
vertex -13.8547925231987 -956.603962916374 30.3659676522239
vertex -10.7194401095315 -955.305257423814 30.3659676522258
endloop
endfacet
facet normal -4.32154312336186e-14 2.73227923025157e-14 1.0
outer loop
vertex -11.1076686771852 -953.856368684381 30.365967652228
vertex -10.7194401095315 -955.305257423814 30.3659676522258
vertex -7.35479252317969 -953.362293165572 30.3659676522289
endloop
endfacet
facet normal -4.32154312336186e-14 2.73227923025157e-14 1.0
outer loop
vertex -7.35479252317969 -953.362293165572 30.3659676522289
vertex -10.7194401095315 -955.305257423814 30.3659676522258
vertex -7.35479252317969 -954.862293165572 30.3659676522267
endloop
endfacet
facet normal -4.32154312336186e-14 2.73227923025157e-14 1.0
outer loop
vertex -7.35479252317969 -953.362293165572 30.3659676522289
vertex -7.35479252317969 -954.862293165572 30.3659676522267
vertex -3.99014493684693 -955.305257423814 30.3659676522261
endloop
endfacet
facet normal -4.32154312336186e-14 2.73227923025157e-14 1.0
outer loop
vertex -7.35479252317969 -953.362293165572 30.3659676522289
vertex -3.99014493684693 -955.305257423814 30.3659676522261
vertex -3.60191636919315 -953.856368684381 30.3659676522283
endloop
endfacet
facet normal -4.32154312336186e-14 2.73227923025157e-14 1.0
outer loop
vertex -3.60191636919315 -953.856368684381 30.3659676522283
vertex -3.99014493684693 -955.305257423814 30.3659676522261
vertex -0.854792523179705 -956.603962916374 30.3659676522244
endloop
endfacet
facet normal -4.32154312336186e-14 2.73227923025157e-14 1.0
outer loop
vertex -3.60191636919315 -953.856368684381 30.3659676522283
vertex -0.854792523179705 -956.603962916374 30.3659676522244
vertex -0.104792523179696 -955.304924810698 30.3659676522263
endloop
endfacet
facet normal -4.32154312336186e-14 2.73227923025157e-14 1.0
outer loop
vertex -0.104792523179696 -955.304924810698 30.3659676522263
vertex -0.854792523179705 -956.603962916374 30.3659676522244
vertex 1.83759563224542 -958.669905010147 30.3659676522215
endloop
endfacet
facet normal -4.32154312336186e-14 2.73227923025157e-14 1.0
outer loop
vertex -0.104792523179696 -955.304924810698 30.3659676522263
vertex 1.83759563224542 -958.669905010147 30.3659676522215
vertex 2.89825580402525 -957.609244838367 30.3659676522231
endloop
endfacet
facet normal -4.32154312336186e-14 2.73227923025157e-14 1.0
outer loop
vertex 2.89825580402525 -957.609244838367 30.3659676522231
vertex 1.83759563224542 -958.669905010147 30.3659676522215
vertex 3.62698106814554 -960.183235588242 30.3659676522166
endloop
endfacet
facet normal -4.32154312336186e-14 2.73227923025157e-14 1.0
outer loop
vertex 2.89825580402525 -957.609244838367 30.3659676522231
vertex 3.62698106814554 -960.183235588242 30.3659676522166
vertex 5.20257583169466 -960.612293165572 30.3659676522189
endloop
endfacet
facet normal -4.32154312336186e-14 2.73227923025157e-14 1.0
outer loop
vertex 5.20257583169466 -960.612293165572 30.3659676522189
vertex 3.62698106814554 -960.183235588242 30.3659676522166
vertex 4.12698106814554 -967.862293165572 30.3659676522146
endloop
endfacet
facet normal -4.32154312336186e-14 2.73227923025157e-14 1.0
outer loop
vertex -18.3365661145239 -974.722708819076 30.3659676522163
vertex -18.8365661145239 -967.862293165572 30.3659676522136
vertex -18.3365661145239 -975.541350742837 30.3659676522156
endloop
endfacet
facet normal -0.258819045102484 -0.965925826289078 -7.40276675271225e-13
outer loop
vertex -4.55954683607537 -957.43029424162 2.19999999997393
vertex -7.35479252318337 -957.06229316554 -2.46013875937479e-11
vertex -4.55954683607611 -957.430294241618 -2.57462939856623e-11
endloop
endfacet
facet normal -0.130526192220011 -0.991444861373816 -8.00200008327125e-13
outer loop
vertex -7.35479252318337 -957.06229316554 -2.46013875937479e-11
vertex -4.55954683607537 -957.43029424162 2.19999999997393
vertex -7.35479252318263 -957.062293165542 2.19999999997508
endloop
endfacet
facet normal 0.645752042092646 -0.763547182650278 -5.88789080912266e-13
outer loop
vertex -16.5471806786138 -958.669905010117 2.19999999997196
vertex -18.3365661145239 -960.183235588242 30.3659676522157
vertex -18.336566114514 -960.183235588212 2.199999999967
endloop
endfacet
facet normal 0.645752042092646 -0.763547182650278 -5.88789080912266e-13
outer loop
vertex -18.3365661145239 -960.183235588242 30.3659676522157
vertex -16.5471806786138 -958.669905010117 2.19999999997196
vertex -16.5471806786238 -958.669905010147 30.3659676522207
endloop
endfacet
facet normal -0.965925826289062 0.258819045102545 -6.9958005532638e-14
outer loop
vertex -21.3607170043902 -964.109417011585 30.3659676522126
vertex -21.8547925231878 -967.86229316554 -4.21020995844401e-11
vertex -21.8547925231987 -967.862293165572 30.3659676522072
endloop
endfacet
facet normal -0.99144486137381 0.130526192220052 -2.15553349661446e-13
outer loop
vertex -21.8547925231878 -967.86229316554 -4.21020995844401e-11
vertex -21.3607170043902 -964.109417011585 30.3659676522126
vertex -21.3607170043793 -964.109417011553 -3.66313646082972e-11
endloop
endfacet
facet normal 0.997354649646227 -0.0726890832866359 2.75234812581317e-13
outer loop
vertex -18.836566114514 -967.862293165542 2.19999999996492
vertex -18.3365661145239 -961.001877512005 30.3659676522164
vertex -18.8365661145239 -967.862293165572 30.3659676522136
endloop
endfacet
facet normal 0.997354649646227 -0.0726890832866359 2.75234812581317e-13
outer loop
vertex -18.3365661145239 -961.001877512005 30.3659676522164
vertex -18.836566114514 -967.862293165542 2.19999999996492
vertex -18.336566114514 -961.001877511974 2.19999999996772
endloop
endfacet
facet normal 0.258819045102259 -0.965925826289139 -7.36721127467022e-13
outer loop
vertex -10.1500382102996 -957.430294241618 -2.59859911366789e-11
vertex -12.7547925231934 -958.50921880467 2.19999999997177
vertex -12.7547925231925 -958.509218804668 -2.79092082777765e-11
endloop
endfacet
facet normal 0.499999999999966 -0.866025403784458 -5.2455609417757e-13
outer loop
vertex -12.7547925231934 -958.50921880467 2.19999999997177
vertex -10.1500382102996 -957.430294241618 -2.59859911366789e-11
vertex -10.1500382103006 -957.43029424162 2.19999999997369
endloop
endfacet
facet normal 0.499999999999963 -0.86602540378446 -5.24556094177573e-13
outer loop
vertex -12.7547925231925 -958.509218804668 -2.79092082777765e-11
vertex -14.9915457600082 -960.225539928727 2.19999999996949
vertex -14.9915457600072 -960.225539928725 -3.01877411956752e-11
endloop
endfacet
facet normal 0.608761429008688 -0.79335334029126 -4.17102376834326e-13
outer loop
vertex -14.9915457600082 -960.225539928727 2.19999999996949
vertex -12.7547925231925 -958.509218804668 -2.79092082777765e-11
vertex -12.7547925231934 -958.50921880467 2.19999999997177
endloop
endfacet
facet normal 0.499999999999995 -0.866025403784442 -7.5027541552383e-13
outer loop
vertex -13.8547925231887 -956.603962916344 2.19999999997517
vertex -16.5471806786238 -958.669905010147 30.3659676522207
vertex -16.5471806786138 -958.669905010117 2.19999999997196
endloop
endfacet
facet normal 0.608761429008721 -0.793353340291235 -6.33932081147205e-13
outer loop
vertex -16.5471806786238 -958.669905010147 30.3659676522207
vertex -13.8547925231887 -956.603962916344 2.19999999997517
vertex -13.8547925231987 -956.603962916374 30.3659676522239
endloop
endfacet
facet normal -0.707106781186547 0.707106781186549 4.99424425387189e-13
outer loop
vertex -17.6078408504036 -957.609244838367 30.3659676522223
vertex -19.9121608780622 -960.61229316554 -3.14877457441298e-11
vertex -19.912160878073 -960.612293165572 30.3659676522178
endloop
endfacet
facet normal -0.866025403784446 0.499999999999987 2.22286909712614e-13
outer loop
vertex -19.9121608780622 -960.61229316554 -3.14877457441298e-11
vertex -17.6078408504036 -957.609244838367 30.3659676522223
vertex -17.6078408503928 -957.609244838335 -2.70321987017041e-11
endloop
endfacet
facet normal 1.0 -3.62423948625738e-25 3.53986787286336e-13
outer loop
vertex -18.336566114514 -961.001877511974 2.19999999996772
vertex -18.3365661145239 -960.183235588242 30.3659676522157
vertex -18.3365661145239 -961.001877512005 30.3659676522164
endloop
endfacet
facet normal 1.0 -3.62423948625738e-25 3.53986787286336e-13
outer loop
vertex -18.3365661145239 -960.183235588242 30.3659676522157
vertex -18.336566114514 -961.001877511974 2.19999999996772
vertex -18.336566114514 -960.183235588212 2.199999999967
endloop
endfacet
facet normal -0.258819045102378 0.965925826289107 9.55939102045117e-13
outer loop
vertex -11.1076686771852 -953.856368684381 30.365967652228
vertex -7.35479252318792 -953.36229316554 -2.04165573336468e-11
vertex -11.1076686771744 -953.856368684348 -2.13020268091668e-11
endloop
endfacet
facet normal -0.130526192219728 0.991444861373853 1.04930688855227e-12
outer loop
vertex -7.35479252318792 -953.36229316554 -2.04165573336468e-11
vertex -11.1076686771852 -953.856368684381 30.365967652228
vertex -7.35479252317969 -953.362293165572 30.3659676522289
endloop
endfacet
facet normal -0.500000000000006 0.866025403784435 7.42644629531256e-13
outer loop
vertex -14.6047925231987 -955.304924810698 30.3659676522257
vertex -11.1076686771744 -953.856368684348 -2.13020268091668e-11
vertex -14.6047925231878 -955.304924810665 -2.36341390902339e-11
endloop
endfacet
facet normal -0.258819045102347 0.965925826289115 9.55939102045142e-13
outer loop
vertex -11.1076686771744 -953.856368684348 -2.13020268091668e-11
vertex -14.6047925231987 -955.304924810698 30.3659676522257
vertex -11.1076686771852 -953.856368684381 30.365967652228
endloop
endfacet
facet normal 1.0 -1.28452855301323e-15 3.9870211509449e-13
outer loop
vertex -18.4547925231937 -963.471629404378 -3.37972982933366e-11
vertex -18.4547925231946 -972.2529569267 2.19999999996382
vertex -18.4547925231937 -972.252956926702 -3.38706174218828e-11
endloop
endfacet
facet normal 1.0 -1.28452855301323e-15 3.9870211509449e-13
outer loop
vertex -18.4547925231946 -972.2529569267 2.19999999996382
vertex -18.4547925231937 -963.471629404378 -3.37972982933366e-11
vertex -18.4547925231946 -963.471629404379 2.1999999999639
endloop
endfacet
facet normal 1.0 -9.09772386967023e-25 3.53986787286336e-13
outer loop
vertex -18.336566114514 -974.722708819105 2.1999999999676
vertex -18.3365661145239 -975.541350742837 30.3659676522156
vertex -18.336566114514 -975.541350742867 2.19999999996687
endloop
endfacet
facet normal 1.0 -9.09772386967023e-25 3.53986787286336e-13
outer loop
vertex -18.3365661145239 -975.541350742837 30.3659676522156
vertex -18.336566114514 -974.722708819105 2.1999999999676
vertex -18.3365661145239 -974.722708819076 30.3659676522163
endloop
endfacet
facet normal 0.13052619221966 -0.991444861373862 -1.05589983905571e-12
outer loop
vertex -7.35479252318723 -954.862293165542 2.19999999997799
vertex -10.7194401095315 -955.305257423814 30.3659676522258
vertex -10.7194401095215 -955.305257423784 2.19999999997712
endloop
endfacet
facet normal 0.258819045102347 -0.965925826289115 -9.63079866052636e-13
outer loop
vertex -10.7194401095315 -955.305257423814 30.3659676522258
vertex -7.35479252318723 -954.862293165542 2.19999999997799
vertex -7.35479252317969 -954.862293165572 30.3659676522267
endloop
endfacet
facet normal 0.683862147873377 -0.729611240802944 -2.35578947434517e-13
outer loop
vertex -14.9915457600072 -960.225539928725 -3.01877411956752e-11
vertex -18.4547925231946 -963.471629404379 2.1999999999639
vertex -18.4547925231937 -963.471629404378 -3.37972982933366e-11
endloop
endfacet
facet normal 0.683862147873377 -0.729611240802944 -2.35578947434517e-13
outer loop
vertex -18.4547925231946 -963.471629404379 2.1999999999639
vertex -14.9915457600072 -960.225539928725 -3.01877411956752e-11
vertex -14.9915457600082 -960.225539928727 2.19999999996949
endloop
endfacet
facet normal -0.130526192219728 -0.991444861373853 1.03219779241755e-12
outer loop
vertex -7.35479252318788 -982.36229316554 -2.06675343505935e-11
vertex -11.1076686771852 -981.868217646699 30.3659676522277
vertex -11.1076686771744 -981.868217646731 -2.15417239601834e-11
endloop
endfacet
facet normal -0.258819045102377 -0.965925826289107 9.39269234936869e-13
outer loop
vertex -11.1076686771852 -981.868217646699 30.3659676522277
vertex -7.35479252318788 -982.36229316554 -2.06675343505935e-11
vertex -7.35479252317967 -982.362293165508 30.3659676522286
endloop
endfacet
facet normal 0.130526192219558 -0.991444861373875 -8.37802240870337e-13
outer loop
vertex -7.35479252318337 -957.06229316554 -2.46013875937479e-11
vertex -10.1500382103006 -957.43029424162 2.19999999997369
vertex -10.1500382102996 -957.430294241618 -2.59859911366789e-11
endloop
endfacet
facet normal 0.258819045102263 -0.965925826289137 -7.36721127467018e-13
outer loop
vertex -10.1500382103006 -957.43029424162 2.19999999997369
vertex -7.35479252318337 -957.06229316554 -2.46013875937479e-11
vertex -7.35479252318263 -957.062293165542 2.19999999997508
endloop
endfacet
facet normal -8.54045866179152e-14 -8.58225919053315e-15 1.0
outer loop
vertex -16.5471806786139 -977.054681320963 2.19999999997181
vertex -18.336566114514 -974.722708819105 2.1999999999676
vertex -18.336566114514 -975.541350742867 2.19999999996687
endloop
endfacet
facet normal -8.54045866179152e-14 -8.58225919053315e-15 1.0
outer loop
vertex -18.336566114514 -974.722708819105 2.1999999999676
vertex -18.4547925231946 -972.2529569267 2.19999999996382
vertex -18.836566114514 -967.862293165542 2.19999999996492
endloop
endfacet
facet normal -8.54045866179152e-14 -8.58225919053315e-15 1.0
outer loop
vertex -18.4547925231946 -972.2529569267 2.19999999996382
vertex -18.336566114514 -974.722708819105 2.1999999999676
vertex -14.9915457600082 -975.499046402353 2.19999999996936
endloop
endfacet
facet normal -8.54045866179152e-14 -8.58225919053315e-15 1.0
outer loop
vertex -14.9915457600082 -975.499046402353 2.19999999996936
vertex -18.336566114514 -974.722708819105 2.1999999999676
vertex -16.5471806786139 -977.054681320963 2.19999999997181
endloop
endfacet
facet normal -8.54045866179152e-14 -8.58225919053315e-15 1.0
outer loop
vertex -14.9915457600082 -975.499046402353 2.19999999996936
vertex -16.5471806786139 -977.054681320963 2.19999999997181
vertex -13.8547925231887 -979.120623414735 2.19999999997497
endloop
endfacet
facet normal -8.54045866179152e-14 -8.58225919053315e-15 1.0
outer loop
vertex -14.9915457600082 -975.499046402353 2.19999999996936
vertex -13.8547925231887 -979.120623414735 2.19999999997497
vertex -12.7547925231934 -977.21536752641 2.19999999997161
endloop
endfacet
facet normal -8.54045866179152e-14 -8.58225919053315e-15 1.0
outer loop
vertex -12.7547925231934 -977.21536752641 2.19999999997161
vertex -13.8547925231887 -979.120623414735 2.19999999997497
vertex -10.7194401095215 -980.419328907295 2.1999999999769
endloop
endfacet
facet normal -8.54045866179152e-14 -8.58225919053315e-15 1.0
outer loop
vertex -12.7547925231934 -977.21536752641 2.19999999997161
vertex -10.7194401095215 -980.419328907295 2.1999999999769
vertex -10.1500382103006 -978.29429208946 2.19999999997352
endloop
endfacet
facet normal -8.54045866179152e-14 -8.58225919053315e-15 1.0
outer loop
vertex -10.1500382103006 -978.29429208946 2.19999999997352
vertex -10.7194401095215 -980.419328907295 2.1999999999769
vertex -7.35479252318721 -980.862293165537 2.19999999997776
endloop
endfacet
facet normal -8.54045866179152e-14 -8.58225919053315e-15 1.0
outer loop
vertex -10.1500382103006 -978.29429208946 2.19999999997352
vertex -7.35479252318721 -980.862293165537 2.19999999997776
vertex -7.3547925231826 -978.662293165538 2.1999999999749
endloop
endfacet
facet normal -8.54045866179152e-14 -8.58225919053315e-15 1.0
outer loop
vertex -7.3547925231826 -978.662293165538 2.1999999999749
vertex -7.35479252318721 -980.862293165537 2.19999999997776
vertex -3.99014493685445 -980.419328907295 2.19999999997719
endloop
endfacet
facet normal -8.54045866179152e-14 -8.58225919053315e-15 1.0
outer loop
vertex -7.3547925231826 -978.662293165538 2.1999999999749
vertex -3.99014493685445 -980.419328907295 2.19999999997719
vertex -4.55954683607537 -978.29429208946 2.19999999997376
endloop
endfacet
facet normal -8.54045866179152e-14 -8.58225919053315e-15 1.0
outer loop
vertex -4.55954683607537 -978.29429208946 2.19999999997376
vertex -3.99014493685445 -980.419328907295 2.19999999997719
vertex -1.95479252318252 -977.21536752641 2.19999999997207
endloop
endfacet
facet normal -8.54045866179152e-14 -8.58225919053315e-15 1.0
outer loop
vertex -1.95479252318252 -977.21536752641 2.19999999997207
vertex -3.99014493685445 -980.419328907295 2.19999999997719
vertex -0.854792523187197 -979.120623414735 2.19999999997553
endloop
endfacet
facet normal -8.54045866179152e-14 -8.58225919053315e-15 1.0
outer loop
vertex -1.95479252318252 -977.21536752641 2.19999999997207
vertex -0.854792523187197 -979.120623414735 2.19999999997553
vertex 0.281960713632235 -975.499046402353 2.19999999997002
endloop
endfacet
facet normal -8.54045866179152e-14 -8.58225919053315e-15 1.0
outer loop
vertex 0.281960713632235 -975.499046402353 2.19999999997002
vertex -0.854792523187197 -979.120623414735 2.19999999997553
vertex 1.83759563223793 -977.054681320963 2.1999999999726
endloop
endfacet
facet normal -8.54045866179152e-14 -8.58225919053315e-15 1.0
outer loop
vertex 0.281960713632235 -975.499046402353 2.19999999997002
vertex 1.83759563223793 -977.054681320963 2.1999999999726
vertex 3.74520747681862 -972.2529569267 2.19999999996479
endloop
endfacet
facet normal -8.54045866179152e-14 -8.58225919053315e-15 1.0
outer loop
vertex 3.74520747681862 -972.2529569267 2.19999999996479
vertex 1.83759563223793 -977.054681320963 2.1999999999726
vertex 3.62698106813803 -974.722708819105 2.19999999996855
endloop
endfacet
facet normal -8.54045866179152e-14 -8.58225919053315e-15 1.0
outer loop
vertex 3.62698106813803 -974.722708819105 2.19999999996855
vertex 1.83759563223793 -977.054681320963 2.1999999999726
vertex 3.62698106813803 -975.541350742867 2.19999999996782
endloop
endfacet
facet normal -8.54045866179152e-14 -8.58225919053315e-15 1.0
outer loop
vertex 3.74520747681862 -972.2529569267 2.19999999996479
vertex 3.62698106813803 -974.722708819105 2.19999999996855
vertex 4.12698106813801 -967.862293165542 2.19999999996592
endloop
endfacet
facet normal -8.54045866179152e-14 -8.58225919053315e-15 1.0
outer loop
vertex 3.74520747681862 -972.2529569267 2.19999999996479
vertex 4.12698106813801 -967.862293165542 2.19999999996592
vertex 3.74520747681862 -963.471629404379 2.19999999996486
endloop
endfacet
facet normal -8.54045866179152e-14 -8.58225919053315e-15 1.0
outer loop
vertex -18.836566114514 -967.862293165542 2.19999999996492
vertex -18.4547925231946 -963.471629404379 2.1999999999639
vertex -18.336566114514 -961.001877511974 2.19999999996772
endloop
endfacet
facet normal -8.54045866179152e-14 -8.58225919053315e-15 1.0
outer loop
vertex -18.4547925231946 -963.471629404379 2.1999999999639
vertex -18.836566114514 -967.862293165542 2.19999999996492
vertex -18.4547925231946 -972.2529569267 2.19999999996382
endloop
endfacet
facet normal -8.54045866179152e-14 -8.58225919053315e-15 1.0
outer loop
vertex -18.336566114514 -961.001877511974 2.19999999996772
vertex -18.4547925231946 -963.471629404379 2.1999999999639
vertex -14.9915457600082 -960.225539928727 2.19999999996949
endloop
endfacet
facet normal -8.54045866179152e-14 -8.58225919053315e-15 1.0
outer loop
vertex -18.336566114514 -961.001877511974 2.19999999996772
vertex -14.9915457600082 -960.225539928727 2.19999999996949
vertex -18.336566114514 -960.183235588212 2.199999999967
endloop
endfacet
facet normal -8.54045866179152e-14 -8.58225919053315e-15 1.0
outer loop
vertex -18.336566114514 -960.183235588212 2.199999999967
vertex -14.9915457600082 -960.225539928727 2.19999999996949
vertex -16.5471806786138 -958.669905010117 2.19999999997196
endloop
endfacet
facet normal -8.54045866179152e-14 -8.58225919053315e-15 1.0
outer loop
vertex -16.5471806786138 -958.669905010117 2.19999999997196
vertex -14.9915457600082 -960.225539928727 2.19999999996949
vertex -13.8547925231887 -956.603962916344 2.19999999997517
endloop
endfacet
facet normal -8.54045866179152e-14 -8.58225919053315e-15 1.0
outer loop
vertex -13.8547925231887 -956.603962916344 2.19999999997517
vertex -14.9915457600082 -960.225539928727 2.19999999996949
vertex -12.7547925231934 -958.50921880467 2.19999999997177
endloop
endfacet
facet normal -8.54045866179152e-14 -8.58225919053315e-15 1.0
outer loop
vertex -13.8547925231887 -956.603962916344 2.19999999997517
vertex -12.7547925231934 -958.50921880467 2.19999999997177
vertex -10.7194401095215 -955.305257423784 2.19999999997712
endloop
endfacet
facet normal -8.54045866179152e-14 -8.58225919053315e-15 1.0
outer loop
vertex -10.7194401095215 -955.305257423784 2.19999999997712
vertex -12.7547925231934 -958.50921880467 2.19999999997177
vertex -10.1500382103006 -957.43029424162 2.19999999997369
endloop
endfacet
facet normal -8.54045866179152e-14 -8.58225919053315e-15 1.0
outer loop
vertex -10.7194401095215 -955.305257423784 2.19999999997712
vertex -10.1500382103006 -957.43029424162 2.19999999997369
vertex -7.35479252318723 -954.862293165542 2.19999999997799
endloop
endfacet
facet normal -8.54045866179152e-14 -8.58225919053315e-15 1.0
outer loop
vertex -7.35479252318723 -954.862293165542 2.19999999997799
vertex -10.1500382103006 -957.43029424162 2.19999999997369
vertex -7.35479252318263 -957.062293165542 2.19999999997508
endloop
endfacet
facet normal -8.54045866179152e-14 -8.58225919053315e-15 1.0
outer loop
vertex -7.35479252318723 -954.862293165542 2.19999999997799
vertex -7.35479252318263 -957.062293165542 2.19999999997508
vertex -3.99014493685447 -955.305257423784 2.19999999997741
endloop
endfacet
facet normal -8.54045866179152e-14 -8.58225919053315e-15 1.0
outer loop
vertex -3.99014493685447 -955.305257423784 2.19999999997741
vertex -7.35479252318263 -957.062293165542 2.19999999997508
vertex -4.55954683607537 -957.43029424162 2.19999999997393
endloop
endfacet
facet normal -8.54045866179152e-14 -8.58225919053315e-15 1.0
outer loop
vertex -3.99014493685447 -955.305257423784 2.19999999997741
vertex -4.55954683607537 -957.43029424162 2.19999999997393
vertex -1.95479252318257 -958.50921880467 2.19999999997223
endloop
endfacet
facet normal -8.54045866179152e-14 -8.58225919053315e-15 1.0
outer loop
vertex -3.99014493685447 -955.305257423784 2.19999999997741
vertex -1.95479252318257 -958.50921880467 2.19999999997223
vertex -0.854792523187242 -956.603962916344 2.19999999997573
endloop
endfacet
facet normal -8.54045866179152e-14 -8.58225919053315e-15 1.0
outer loop
vertex -0.854792523187242 -956.603962916344 2.19999999997573
vertex -1.95479252318257 -958.50921880467 2.19999999997223
vertex 0.281960713632213 -960.225539928727 2.19999999997015
endloop
endfacet
facet normal -8.54045866179152e-14 -8.58225919053315e-15 1.0
outer loop
vertex -0.854792523187242 -956.603962916344 2.19999999997573
vertex 0.281960713632213 -960.225539928727 2.19999999997015
vertex 1.83759563223789 -958.669905010117 2.19999999997276
endloop
endfacet
facet normal -8.54045866179152e-14 -8.58225919053315e-15 1.0
outer loop
vertex 1.83759563223789 -958.669905010117 2.19999999997276
vertex 0.281960713632213 -960.225539928727 2.19999999997015
vertex 3.74520747681862 -963.471629404379 2.19999999996486
endloop
endfacet
facet normal -8.54045866179152e-14 -8.58225919053315e-15 1.0
outer loop
vertex 1.83759563223789 -958.669905010117 2.19999999997276
vertex 3.74520747681862 -963.471629404379 2.19999999996486
vertex 3.62698106813801 -961.001877511974 2.19999999996867
endloop
endfacet
facet normal -8.54045866179152e-14 -8.58225919053315e-15 1.0
outer loop
vertex 3.62698106813801 -961.001877511974 2.19999999996867
vertex 3.74520747681862 -963.471629404379 2.19999999996486
vertex 4.12698106813801 -967.862293165542 2.19999999996592
endloop
endfacet
facet normal -8.54045866179152e-14 -8.58225919053315e-15 1.0
outer loop
vertex 3.62698106813801 -960.183235588212 2.19999999996795
vertex 1.83759563223789 -958.669905010117 2.19999999997276
vertex 3.62698106813801 -961.001877511974 2.19999999996867
endloop
endfacet
facet normal -0.258819045102346 -0.965925826289115 9.39269234936893e-13
outer loop
vertex -11.1076686771744 -981.868217646731 -2.15417239601834e-11
vertex -14.6047925231987 -980.419661520382 30.3659676522254
vertex -14.6047925231879 -980.419661520414 -2.38512765093901e-11
endloop
endfacet
facet normal -0.500000000000006 -0.866025403784435 7.27488139713013e-13
outer loop
vertex -14.6047925231987 -980.419661520382 30.3659676522254
vertex -11.1076686771744 -981.868217646731 -2.15417239601834e-11
vertex -11.1076686771852 -981.868217646699 30.3659676522277
endloop
endfacet
facet normal 0.500000000000006 0.866025403784435 -7.35401620820072e-13
outer loop
vertex -13.8547925231987 -979.120623414706 30.3659676522237
vertex -10.7194401095215 -980.419328907295 2.1999999999769
vertex -13.8547925231887 -979.120623414735 2.19999999997497
endloop
endfacet
facet normal 0.258819045102313 0.965925826289124 -9.46500585908655e-13
outer loop
vertex -10.7194401095215 -980.419328907295 2.1999999999769
vertex -13.8547925231987 -979.120623414706 30.3659676522237
vertex -10.7194401095315 -980.419328907266 30.3659676522256
endloop
endfacet
facet normal 0.499999999999969 0.866025403784457 -5.07655845720801e-13
outer loop
vertex -12.7547925231934 -977.21536752641 2.19999999997161
vertex -10.1500382102997 -978.294292089461 -2.61636490250794e-11
vertex -12.7547925231925 -977.215367526411 -2.80699463672818e-11
endloop
endfacet
facet normal 0.258819045102258 0.965925826289139 -7.21738991656616e-13
outer loop
vertex -10.1500382102997 -978.294292089461 -2.61636490250794e-11
vertex -12.7547925231934 -977.21536752641 2.19999999997161
vertex -10.1500382103006 -978.29429208946 2.19999999997352
endloop
endfacet
facet normal 0.645752042092651 0.763547182650274 -5.7564415112972e-13
outer loop
vertex -18.3365661145239 -975.541350742837 30.3659676522156
vertex -16.5471806786139 -977.054681320963 2.19999999997181
vertex -18.336566114514 -975.541350742867 2.19999999996687
endloop
endfacet
facet normal 0.645752042092651 0.763547182650274 -5.7564415112972e-13
outer loop
vertex -16.5471806786139 -977.054681320963 2.19999999997181
vertex -18.3365661145239 -975.541350742837 30.3659676522156
vertex -16.5471806786238 -977.054681320933 30.3659676522207
endloop
endfacet
facet normal 0.683862147873377 0.729611240802944 -2.23730366570913e-13
outer loop
vertex -18.4547925231946 -972.2529569267 2.19999999996382
vertex -14.9915457600072 -975.499046402354 -3.03230995868375e-11
vertex -18.4547925231937 -972.252956926702 -3.38706174218828e-11
endloop
endfacet
facet normal 0.683862147873377 0.729611240802944 -2.23730366570913e-13
outer loop
vertex -14.9915457600072 -975.499046402354 -3.03230995868375e-11
vertex -18.4547925231946 -972.2529569267 2.19999999996382
vertex -14.9915457600082 -975.499046402353 2.19999999996936
endloop
endfacet
facet normal 0.608761429008721 0.793353340291235 -6.2029693370854e-13
outer loop
vertex -16.5471806786238 -977.054681320933 30.3659676522207
vertex -13.8547925231887 -979.120623414735 2.19999999997497
vertex -16.5471806786139 -977.054681320963 2.19999999997181
endloop
endfacet
facet normal 0.499999999999994 0.866025403784442 -7.35401620820085e-13
outer loop
vertex -13.8547925231887 -979.120623414735 2.19999999997497
vertex -16.5471806786238 -977.054681320933 30.3659676522207
vertex -13.8547925231987 -979.120623414706 30.3659676522237
endloop
endfacet
facet normal -0.707106781186546 -0.707106781186549 4.87018939960152e-13
outer loop
vertex -17.6078408504037 -978.115341492713 30.3659676522221
vertex -19.9121608780622 -975.11229316554 -3.16118242693619e-11
vertex -17.6078408503928 -978.115341492745 -2.72070366236221e-11
endloop
endfacet
facet normal -0.866025403784445 -0.499999999999989 2.13679098683813e-13
outer loop
vertex -19.9121608780622 -975.11229316554 -3.16118242693619e-11
vertex -17.6078408504037 -978.115341492713 30.3659676522221
vertex -19.9121608780731 -975.112293165508 30.3659676522177
endloop
endfacet
facet normal -0.96592582628892 -0.258819045103075 -1.44053661640337e-13
outer loop
vertex -21.3607170043902 -971.615169319495 30.3659676522126
vertex -21.8547925231878 -967.86229316554 -4.21020995844401e-11
vertex -21.3607170043793 -971.615169319526 -3.66962238373958e-11
endloop
endfacet
facet normal -0.991444861373667 -0.130526192221139 -3.55898998332571e-13
outer loop
vertex -21.8547925231878 -967.86229316554 -4.21020995844401e-11
vertex -21.3607170043902 -971.615169319495 30.3659676522126
vertex -21.8547925231987 -967.862293165572 30.3659676522072
endloop
endfacet
facet normal 0.258819045102345 0.965925826289115 -9.46500585908629e-13
outer loop
vertex -10.7194401095315 -980.419328907266 30.3659676522256
vertex -7.35479252318721 -980.862293165537 2.19999999997776
vertex -10.7194401095215 -980.419328907295 2.1999999999769
endloop
endfacet
facet normal 0.130526192219661 0.991444861373862 -1.03888290206526e-12
outer loop
vertex -7.35479252318721 -980.862293165537 2.19999999997776
vertex -10.7194401095315 -980.419328907266 30.3659676522256
vertex -7.35479252317967 -980.862293165508 30.3659676522265
endloop
endfacet
facet normal 0.608761429008691 0.793353340291258 -3.98247311292677e-13
outer loop
vertex -14.9915457600082 -975.499046402353 2.19999999996936
vertex -12.7547925231925 -977.215367526411 -2.80699463672818e-11
vertex -14.9915457600072 -975.499046402354 -3.03230995868375e-11
endloop
endfacet
facet normal 0.499999999999963 0.86602540378446 -5.07655845720806e-13
outer loop
vertex -12.7547925231925 -977.215367526411 -2.80699463672818e-11
vertex -14.9915457600082 -975.499046402353 2.19999999996936
vertex -12.7547925231934 -977.21536752641 2.19999999997161
endloop
endfacet
facet normal -0.86602540378443 -0.500000000000014 2.13679098683846e-13
outer loop
vertex -19.9121608780731 -975.112293165508 30.3659676522177
vertex -21.3607170043793 -971.615169319526 -3.66962238373958e-11
vertex -19.9121608780622 -975.11229316554 -3.16118242693619e-11
endloop
endfacet
facet normal -0.965925826288933 -0.258819045103027 -1.44053661640419e-13
outer loop
vertex -21.3607170043793 -971.615169319526 -3.66962238373958e-11
vertex -19.9121608780731 -975.112293165508 30.3659676522177
vertex -21.3607170043902 -971.615169319495 30.3659676522126
endloop
endfacet
facet normal 0.258819045102262 0.965925826289138 -7.21738991656613e-13
outer loop
vertex -10.1500382103006 -978.29429208946 2.19999999997352
vertex -7.35479252318337 -978.662293165539 -2.47846854151135e-11
vertex -10.1500382102997 -978.294292089461 -2.61636490250794e-11
endloop
endfacet
facet normal 0.130526192219558 0.991444861373876 -8.22750581182234e-13
outer loop
vertex -7.35479252318337 -978.662293165539 -2.47846854151135e-11
vertex -10.1500382103006 -978.29429208946 2.19999999997352
vertex -7.3547925231826 -978.662293165538 2.1999999999749
endloop
endfacet
facet normal 0.997354649646201 0.0726890832869928 3.53678081525719e-13
outer loop
vertex -18.836566114514 -967.862293165542 2.19999999996492
vertex -18.3365661145239 -974.722708819076 30.3659676522163
vertex -18.336566114514 -974.722708819105 2.1999999999676
endloop
endfacet
facet normal 0.997354649646201 0.0726890832869928 3.53678081525719e-13
outer loop
vertex -18.3365661145239 -974.722708819076 30.3659676522163
vertex -18.836566114514 -967.862293165542 2.19999999996492
vertex -18.8365661145239 -967.862293165572 30.3659676522136
endloop
endfacet
facet normal -0.499999999999995 -0.866025403784441 7.27488139713023e-13
outer loop
vertex -14.6047925231879 -980.419661520414 -2.38512765093901e-11
vertex -17.6078408504037 -978.115341492713 30.3659676522221
vertex -17.6078408503928 -978.115341492745 -2.72070366236221e-11
endloop
endfacet
facet normal -0.707106781186546 -0.707106781186549 4.87018939960152e-13
outer loop
vertex -17.6078408504037 -978.115341492713 30.3659676522221
vertex -14.6047925231879 -980.419661520414 -2.38512765093901e-11
vertex -14.6047925231987 -980.419661520382 30.3659676522254
endloop
endfacet
facet normal -0.866025403784432 0.500000000000012 2.22286909712646e-13
outer loop
vertex -19.912160878073 -960.612293165572 30.3659676522178
vertex -21.3607170043793 -964.109417011553 -3.66313646082972e-11
vertex -21.3607170043902 -964.109417011585 30.3659676522126
endloop
endfacet
facet normal -0.965925826289074 0.258819045102498 -6.99580055326916e-14
outer loop
vertex -21.3607170043793 -964.109417011553 -3.66313646082972e-11
vertex -19.912160878073 -960.612293165572 30.3659676522178
vertex -19.9121608780622 -960.61229316554 -3.14877457441298e-11
endloop
endfacet
facet normal -0.707106781186547 0.707106781186549 4.99424425387189e-13
outer loop
vertex -17.6078408504036 -957.609244838367 30.3659676522223
vertex -14.6047925231878 -955.304924810665 -2.36341390902339e-11
vertex -17.6078408503928 -957.609244838335 -2.70321987017041e-11
endloop
endfacet
facet normal -0.499999999999994 0.866025403784442 7.42644629531267e-13
outer loop
vertex -14.6047925231878 -955.304924810665 -2.36341390902339e-11
vertex -17.6078408504036 -957.609244838367 30.3659676522223
vertex -14.6047925231987 -955.304924810698 30.3659676522257
endloop
endfacet
facet normal 0.258819045102314 -0.965925826289124 -9.63079866052662e-13
outer loop
vertex -10.7194401095215 -955.305257423784 2.19999999997712
vertex -13.8547925231987 -956.603962916374 30.3659676522239
vertex -13.8547925231887 -956.603962916344 2.19999999997517
endloop
endfacet
facet normal 0.500000000000006 -0.866025403784435 -7.50275415523819e-13
outer loop
vertex -13.8547925231987 -956.603962916374 30.3659676522239
vertex -10.7194401095215 -955.305257423784 2.19999999997712
vertex -10.7194401095315 -955.305257423814 30.3659676522258
endloop
endfacet
facet normal 4.32154312335474e-14 4.56517632400315e-14 -1.0
outer loop
vertex -19.9121608780622 -960.61229316554 -3.14877457441298e-11
vertex -18.4547925231937 -963.471629404378 -3.37972982933366e-11
vertex -18.4547925231937 -972.252956926702 -3.38706174218828e-11
endloop
endfacet
facet normal 4.32154312335474e-14 4.56517632400315e-14 -1.0
outer loop
vertex -18.4547925231937 -963.471629404378 -3.37972982933366e-11
vertex -19.9121608780622 -960.61229316554 -3.14877457441298e-11
vertex -17.6078408503928 -957.609244838335 -2.70321987017041e-11
endloop
endfacet
facet normal 4.32154312335474e-14 4.56517632400315e-14 -1.0
outer loop
vertex -18.4547925231937 -963.471629404378 -3.37972982933366e-11
vertex -17.6078408503928 -957.609244838335 -2.70321987017041e-11
vertex -14.9915457600072 -960.225539928725 -3.01877411956752e-11
endloop
endfacet
facet normal 4.32154312335474e-14 4.56517632400315e-14 -1.0
outer loop
vertex -14.9915457600072 -960.225539928725 -3.01877411956752e-11
vertex -17.6078408503928 -957.609244838335 -2.70321987017041e-11
vertex -14.6047925231878 -955.304924810665 -2.36341390902339e-11
endloop
endfacet
facet normal 4.32154312335474e-14 4.56517632400315e-14 -1.0
outer loop
vertex -14.9915457600072 -960.225539928725 -3.01877411956752e-11
vertex -14.6047925231878 -955.304924810665 -2.36341390902339e-11
vertex -12.7547925231925 -958.509218804668 -2.79092082777765e-11
endloop
endfacet
facet normal 4.32154312335474e-14 4.56517632400315e-14 -1.0
outer loop
vertex -12.7547925231925 -958.509218804668 -2.79092082777765e-11
vertex -14.6047925231878 -955.304924810665 -2.36341390902339e-11
vertex -11.1076686771744 -953.856368684348 -2.13020268091668e-11
endloop
endfacet
facet normal 4.32154312335474e-14 4.56517632400315e-14 -1.0
outer loop
vertex -12.7547925231925 -958.509218804668 -2.79092082777765e-11
vertex -11.1076686771744 -953.856368684348 -2.13020268091668e-11
vertex -10.1500382102996 -957.430294241618 -2.59859911366789e-11
endloop
endfacet
facet normal 4.32154312335474e-14 4.56517632400315e-14 -1.0
outer loop
vertex -10.1500382102996 -957.430294241618 -2.59859911366789e-11
vertex -11.1076686771744 -953.856368684348 -2.13020268091668e-11
vertex -7.35479252318792 -953.36229316554 -2.04165573336468e-11
endloop
endfacet
facet normal 4.32154312335474e-14 4.56517632400315e-14 -1.0
outer loop
vertex -10.1500382102996 -957.430294241618 -2.59859911366789e-11
vertex -7.35479252318792 -953.36229316554 -2.04165573336468e-11
vertex -7.35479252318337 -957.06229316554 -2.46013875937479e-11
endloop
endfacet
facet normal 4.32154312335474e-14 4.56517632400315e-14 -1.0
outer loop
vertex -7.35479252318337 -957.06229316554 -2.46013875937479e-11
vertex -7.35479252318792 -953.36229316554 -2.04165573336468e-11
vertex -3.60191636920138 -953.856368684348 -2.09777306636738e-11
endloop
endfacet
facet normal 4.32154312335474e-14 4.56517632400315e-14 -1.0
outer loop
vertex -7.35479252318337 -957.06229316554 -2.46013875937479e-11
vertex -3.60191636920138 -953.856368684348 -2.09777306636738e-11
vertex -4.55954683607611 -957.430294241618 -2.57462939856623e-11
endloop
endfacet
facet normal 4.32154312335474e-14 4.56517632400315e-14 -1.0
outer loop
vertex -4.55954683607611 -957.430294241618 -2.57462939856623e-11
vertex -3.60191636920138 -953.856368684348 -2.09777306636738e-11
vertex -1.95479252318331 -958.509218804668 -2.74467337746387e-11
endloop
endfacet
facet normal 4.32154312335474e-14 4.56517632400315e-14 -1.0
outer loop
vertex -1.95479252318331 -958.509218804668 -2.74467337746387e-11
vertex -3.60191636920138 -953.856368684348 -2.09777306636738e-11
vertex -0.104792523187928 -955.304924810665 -2.30024665981432e-11
endloop
endfacet
facet normal 4.32154312335474e-14 4.56517632400315e-14 -1.0
outer loop
vertex -1.95479252318331 -958.509218804668 -2.74467337746387e-11
vertex -0.104792523187928 -955.304924810665 -2.30024665981432e-11
vertex 0.281960713631471 -960.225539928725 -2.95306890052416e-11
endloop
endfacet
facet normal 4.32154312335474e-14 4.56517632400315e-14 -1.0
outer loop
vertex 0.281960713631471 -960.225539928725 -2.95306890052416e-11
vertex -0.104792523187928 -955.304924810665 -2.30024665981432e-11
vertex 2.89825580401702 -957.609244838335 -2.6141089293219e-11
endloop
endfacet
facet normal 4.32154312335474e-14 4.56517632400315e-14 -1.0
outer loop
vertex 0.281960713631471 -960.225539928725 -2.95306890052416e-11
vertex 2.89825580401702 -957.609244838335 -2.6141089293219e-11
vertex 3.74520747681792 -963.471629404378 -3.28328697563052e-11
endloop
endfacet
facet normal 4.32154312335474e-14 4.56517632400315e-14 -1.0
outer loop
vertex 3.74520747681792 -963.471629404378 -3.28328697563052e-11
vertex 2.89825580401702 -957.609244838335 -2.6141089293219e-11
vertex 5.20257583168643 -960.61229316554 -3.04020586483489e-11
endloop
endfacet
facet normal 4.32154312335474e-14 4.56517632400315e-14 -1.0
outer loop
vertex 3.74520747681792 -963.471629404378 -3.28328697563052e-11
vertex 5.20257583168643 -960.61229316554 -3.04020586483489e-11
vertex 3.74520747681794 -972.252956926702 -3.2909008851334e-11
endloop
endfacet
facet normal 4.32154312335474e-14 4.56517632400315e-14 -1.0
outer loop
vertex -21.3607170043793 -964.109417011553 -3.66313646082972e-11
vertex -21.3607170043793 -971.615169319526 -3.66962238373958e-11
vertex -21.8547925231878 -967.86229316554 -4.21020995844401e-11
endloop
endfacet
facet normal 4.32154312335474e-14 4.56517632400315e-14 -1.0
outer loop
vertex -21.3607170043793 -971.615169319526 -3.66962238373958e-11
vertex -21.3607170043793 -964.109417011553 -3.66313646082972e-11
vertex -19.9121608780622 -975.11229316554 -3.16118242693619e-11
endloop
endfacet
facet normal 4.32154312335474e-14 4.56517632400315e-14 -1.0
outer loop
vertex -19.9121608780622 -975.11229316554 -3.16118242693619e-11
vertex -21.3607170043793 -964.109417011553 -3.66313646082972e-11
vertex -19.9121608780622 -960.61229316554 -3.14877457441298e-11
endloop
endfacet
facet normal 4.32154312335474e-14 4.56517632400315e-14 -1.0
outer loop
vertex -19.9121608780622 -975.11229316554 -3.16118242693619e-11
vertex -19.9121608780622 -960.61229316554 -3.14877457441298e-11
vertex -18.4547925231937 -972.252956926702 -3.38706174218828e-11
endloop
endfacet
facet normal 4.32154312335474e-14 4.56517632400315e-14 -1.0
outer loop
vertex -19.9121608780622 -975.11229316554 -3.16118242693619e-11
vertex -18.4547925231937 -972.252956926702 -3.38706174218828e-11
vertex -17.6078408503928 -978.115341492745 -2.72070366236221e-11
endloop
endfacet
facet normal 4.32154312335474e-14 4.56517632400315e-14 -1.0
outer loop
vertex -17.6078408503928 -978.115341492745 -2.72070366236221e-11
vertex -18.4547925231937 -972.252956926702 -3.38706174218828e-11
vertex -14.9915457600072 -975.499046402354 -3.03230995868375e-11
endloop
endfacet
facet normal 4.32154312335474e-14 4.56517632400315e-14 -1.0
outer loop
vertex -17.6078408503928 -978.115341492745 -2.72070366236221e-11
vertex -14.9915457600072 -975.499046402354 -3.03230995868375e-11
vertex -14.6047925231879 -980.419661520414 -2.38512765093901e-11
endloop
endfacet
facet normal 4.32154312335474e-14 4.56517632400315e-14 -1.0
outer loop
vertex -14.6047925231879 -980.419661520414 -2.38512765093901e-11
vertex -14.9915457600072 -975.499046402354 -3.03230995868375e-11
vertex -12.7547925231925 -977.215367526411 -2.80699463672818e-11
endloop
endfacet
facet normal 4.32154312335474e-14 4.56517632400315e-14 -1.0
outer loop
vertex -14.6047925231879 -980.419661520414 -2.38512765093901e-11
vertex -12.7547925231925 -977.215367526411 -2.80699463672818e-11
vertex -11.1076686771744 -981.868217646731 -2.15417239601834e-11
endloop
endfacet
facet normal 4.32154312335474e-14 4.56517632400315e-14 -1.0
outer loop
vertex -11.1076686771744 -981.868217646731 -2.15417239601834e-11
vertex -12.7547925231925 -977.215367526411 -2.80699463672818e-11
vertex -10.1500382102997 -978.294292089461 -2.61636490250794e-11
endloop
endfacet
facet normal 4.32154312335474e-14 4.56517632400315e-14 -1.0
outer loop
vertex -11.1076686771744 -981.868217646731 -2.15417239601834e-11
vertex -10.1500382102997 -978.294292089461 -2.61636490250794e-11
vertex -7.35479252318788 -982.36229316554 -2.06675343505935e-11
endloop
endfacet
facet normal 4.32154312335474e-14 4.56517632400315e-14 -1.0
outer loop
vertex -7.35479252318788 -982.36229316554 -2.06675343505935e-11
vertex -10.1500382102997 -978.294292089461 -2.61636490250794e-11
vertex -7.35479252318337 -978.662293165539 -2.47846854151135e-11
endloop
endfacet
facet normal 4.32154312335474e-14 4.56517632400315e-14 -1.0
outer loop
vertex -7.35479252318788 -982.36229316554 -2.06675343505935e-11
vertex -7.35479252318337 -978.662293165539 -2.47846854151135e-11
vertex -3.60191636920136 -981.868217646731 -2.12174278146904e-11
endloop
endfacet
facet normal 4.32154312335474e-14 4.56517632400315e-14 -1.0
outer loop
vertex -3.60191636920136 -981.868217646731 -2.12174278146904e-11
vertex -7.35479252318337 -978.662293165539 -2.47846854151135e-11
vertex -4.55954683607609 -978.294292089461 -2.59239518740628e-11
endloop
endfacet
facet normal 4.32154312335474e-14 4.56517632400315e-14 -1.0
outer loop
vertex -3.60191636920136 -981.868217646731 -2.12174278146904e-11
vertex -4.55954683607609 -978.294292089461 -2.59239518740628e-11
vertex -1.95479252318329 -977.215367526411 -2.76074718641439e-11
endloop
endfacet
facet normal 4.32154312335474e-14 4.56517632400315e-14 -1.0
outer loop
vertex -3.60191636920136 -981.868217646731 -2.12174278146904e-11
vertex -1.95479252318329 -977.215367526411 -2.76074718641439e-11
vertex -0.104792523187906 -980.419661520414 -2.32196040172994e-11
endloop
endfacet
facet normal 4.32154312335474e-14 4.56517632400315e-14 -1.0
outer loop
vertex -0.104792523187906 -980.419661520414 -2.32196040172994e-11
vertex -1.95479252318329 -977.215367526411 -2.76074718641439e-11
vertex 0.281960713631471 -975.499046402354 -2.96632274299213e-11
endloop
endfacet
facet normal 4.32154312335474e-14 4.56517632400315e-14 -1.0
outer loop
vertex -0.104792523187906 -980.419661520414 -2.32196040172994e-11
vertex 0.281960713631471 -975.499046402354 -2.96632274299213e-11
vertex 2.89825580401702 -978.115341492745 -2.63187471816195e-11
endloop
endfacet
facet normal 4.32154312335474e-14 4.56517632400315e-14 -1.0
outer loop
vertex 2.89825580401702 -978.115341492745 -2.63187471816195e-11
vertex 0.281960713631471 -975.499046402354 -2.96632274299213e-11
vertex 3.74520747681794 -972.252956926702 -3.2909008851334e-11
endloop
endfacet
facet normal 4.32154312335474e-14 4.56517632400315e-14 -1.0
outer loop
vertex 2.89825580401702 -978.115341492745 -2.63187471816195e-11
vertex 3.74520747681794 -972.252956926702 -3.2909008851334e-11
vertex 5.20257583168648 -975.11229316554 -3.0526137173581e-11
endloop
endfacet
facet normal 4.32154312335474e-14 4.56517632400315e-14 -1.0
outer loop
vertex 5.20257583168648 -975.11229316554 -3.0526137173581e-11
vertex 3.74520747681794 -972.252956926702 -3.2909008851334e-11
vertex 5.20257583168643 -960.61229316554 -3.04020586483489e-11
endloop
endfacet
facet normal 4.32154312335474e-14 4.56517632400315e-14 -1.0
outer loop
vertex 5.20257583168648 -975.11229316554 -3.0526137173581e-11
vertex 5.20257583168643 -960.61229316554 -3.04020586483489e-11
vertex 6.65113195800356 -964.109417011553 -3.54215989872841e-11
endloop
endfacet
facet normal 4.32154312335474e-14 4.56517632400315e-14 -1.0
outer loop
vertex 5.20257583168648 -975.11229316554 -3.0526137173581e-11
vertex 6.65113195800356 -964.109417011553 -3.54215989872841e-11
vertex 6.65113195800358 -971.615169319526 -3.54892781828653e-11
endloop
endfacet
facet normal 4.32154312335474e-14 4.56517632400315e-14 -1.0
outer loop
vertex 6.65113195800358 -971.615169319526 -3.54892781828653e-11
vertex 6.65113195800356 -964.109417011553 -3.54215989872841e-11
vertex 7.14520747681207 -967.86229316554 -4.08472144997063e-11
endloop
endfacet
facet normal 0.500000000000006 -0.866025403784435 7.70765003046166e-13
outer loop
vertex -0.10479252317965 -980.419661520382 30.3659676522261
vertex -3.60191636920136 -981.868217646731 -2.12174278146904e-11
vertex -0.104792523187906 -980.419661520414 -2.32196040172994e-11
endloop
endfacet
facet normal 0.258819045102504 -0.965925826289073 9.41067570329218e-13
outer loop
vertex -3.60191636920136 -981.868217646731 -2.12174278146904e-11
vertex -0.10479252317965 -980.419661520382 30.3659676522261
vertex -3.60191636919315 -981.868217646699 30.3659676522281
endloop
endfacet
facet normal -0.258819045102504 0.965925826289073 -9.48437723629439e-13
outer loop
vertex -3.99014493685445 -980.419328907295 2.19999999997719
vertex -0.85479252317966 -979.120623414706 30.3659676522242
vertex -0.854792523187197 -979.120623414735 2.19999999997553
endloop
endfacet
facet normal -0.500000000000006 0.866025403784435 -7.78596074974692e-13
outer loop
vertex -0.85479252317966 -979.120623414706 30.3659676522242
vertex -3.99014493685445 -980.419328907295 2.19999999997719
vertex -3.99014493684691 -980.419328907266 30.3659676522259
endloop
endfacet
facet normal -0.258819045102479 0.96592582628908 -7.18453336945183e-13
outer loop
vertex -4.55954683607609 -978.294292089461 -2.59239518740628e-11
vertex -1.95479252318252 -977.21536752641 2.19999999997207
vertex -1.95479252318329 -977.215367526411 -2.76074718641439e-11
endloop
endfacet
facet normal -0.499999999999969 0.866025403784456 -5.50605699220947e-13
outer loop
vertex -1.95479252318252 -977.21536752641 2.19999999997207
vertex -4.55954683607609 -978.294292089461 -2.59239518740628e-11
vertex -4.55954683607537 -978.29429208946 2.19999999997376
endloop
endfacet
facet normal -0.645752042092651 0.763547182650274 -6.31476446126153e-13
outer loop
vertex 1.83759563223793 -977.054681320963 2.1999999999726
vertex 3.62698106814557 -975.541350742837 30.3659676522165
vertex 3.62698106813803 -975.541350742867 2.19999999996782
endloop
endfacet
facet normal -0.645752042092651 0.763547182650274 -6.31476446126153e-13
outer loop
vertex 3.62698106814557 -975.541350742837 30.3659676522165
vertex 1.83759563223793 -977.054681320963 2.1999999999726
vertex 1.83759563224547 -977.054681320933 30.3659676522215
endloop
endfacet
facet normal -0.683862147873377 0.729611240802944 -2.82162317130022e-13
outer loop
vertex 0.281960713631471 -975.499046402354 -2.96632274299213e-11
vertex 3.74520747681862 -972.2529569267 2.19999999996479
vertex 3.74520747681794 -972.252956926702 -3.2909008851334e-11
endloop
endfacet
facet normal -0.683862147873377 0.729611240802944 -2.82162317130022e-13
outer loop
vertex 3.74520747681862 -972.2529569267 2.19999999996479
vertex 0.281960713631471 -975.499046402354 -2.96632274299213e-11
vertex 0.281960713632235 -975.499046402353 2.19999999997002
endloop
endfacet
facet normal -0.499999999999994 0.866025403784442 -7.78596074974703e-13
outer loop
vertex -0.854792523187197 -979.120623414735 2.19999999997553
vertex 1.83759563224547 -977.054681320933 30.3659676522215
vertex 1.83759563223793 -977.054681320963 2.1999999999726
endloop
endfacet
facet normal -0.608761429008721 0.793353340291235 -6.72872417178136e-13
outer loop
vertex 1.83759563224547 -977.054681320933 30.3659676522215
vertex -0.854792523187197 -979.120623414735 2.19999999997553
vertex -0.85479252317966 -979.120623414706 30.3659676522242
endloop
endfacet
facet normal 0.866025403784445 -0.499999999999988 2.88542558589088e-13
outer loop
vertex 5.20257583168648 -975.11229316554 -3.0526137173581e-11
vertex 2.89825580402527 -978.115341492713 30.365967652223
vertex 2.89825580401702 -978.115341492745 -2.63187471816195e-11
endloop
endfacet
facet normal 0.707106781186546 -0.707106781186549 5.48160694760839e-13
outer loop
vertex 2.89825580402527 -978.115341492713 30.365967652223
vertex 5.20257583168648 -975.11229316554 -3.0526137173581e-11
vertex 5.20257583169468 -975.112293165508 30.3659676522188
endloop
endfacet
facet normal 0.991444861373667 -0.130526192221139 -2.70206930179307e-13
outer loop
vertex 7.14520747681207 -967.86229316554 -4.08472144997063e-11
vertex 6.65113195801183 -971.615169319495 30.3659676522138
vertex 6.65113195800358 -971.615169319526 -3.54892781828653e-11
endloop
endfacet
facet normal 0.96592582628892 -0.258819045103075 -6.05628549752818e-14
outer loop
vertex 6.65113195801183 -971.615169319495 30.3659676522138
vertex 7.14520747681207 -967.86229316554 -4.08472144997063e-11
vertex 7.1452074768203 -967.862293165572 30.3659676522084
endloop
endfacet
facet normal -0.130526192220053 0.99144486137381 -1.00964967679012e-12
outer loop
vertex -7.35479252318721 -980.862293165537 2.19999999997776
vertex -3.99014493684691 -980.419328907266 30.3659676522259
vertex -3.99014493685445 -980.419328907295 2.19999999997719
endloop
endfacet
facet normal -0.258819045102536 0.965925826289064 -9.48437723629421e-13
outer loop
vertex -3.99014493684691 -980.419328907266 30.3659676522259
vertex -7.35479252318721 -980.862293165537 2.19999999997776
vertex -7.35479252317967 -980.862293165508 30.3659676522265
endloop
endfacet
facet normal -0.499999999999963 0.86602540378446 -5.50605699220952e-13
outer loop
vertex -1.95479252318329 -977.215367526411 -2.76074718641439e-11
vertex 0.281960713632235 -975.499046402353 2.19999999997002
vertex 0.281960713631471 -975.499046402354 -2.96632274299213e-11
endloop
endfacet
facet normal -0.608761429008691 0.793353340291258 -4.50358597668037e-13
outer loop
vertex 0.281960713632235 -975.499046402353 2.19999999997002
vertex -1.95479252318329 -977.215367526411 -2.76074718641439e-11
vertex -1.95479252318252 -977.21536752641 2.19999999997207
endloop
endfacet
facet normal 0.965925826288933 -0.258819045103027 -6.05628549753621e-14
outer loop
vertex 6.65113195800358 -971.615169319526 -3.54892781828653e-11
vertex 5.20257583169468 -975.112293165508 30.3659676522188
vertex 5.20257583168648 -975.11229316554 -3.0526137173581e-11
endloop
endfacet
facet normal 0.86602540378443 -0.500000000000014 2.88542558589119e-13
outer loop
vertex 5.20257583169468 -975.112293165508 30.3659676522188
vertex 6.65113195800358 -971.615169319526 -3.54892781828653e-11
vertex 6.65113195801183 -971.615169319495 30.3659676522138
endloop
endfacet
facet normal -0.13052619222001 0.991444861373816 -7.83181953498883e-13
outer loop
vertex -7.35479252318337 -978.662293165539 -2.47846854151135e-11
vertex -4.55954683607537 -978.29429208946 2.19999999997376
vertex -4.55954683607609 -978.294292089461 -2.59239518740628e-11
endloop
endfacet
facet normal -0.258819045102482 0.965925826289079 -7.18453336945181e-13
outer loop
vertex -4.55954683607537 -978.29429208946 2.19999999997376
vertex -7.35479252318337 -978.662293165539 -2.47846854151135e-11
vertex -7.3547925231826 -978.662293165538 2.1999999999749
endloop
endfacet
facet normal -0.997354649646201 0.0726890832869928 2.67473514733529e-13
outer loop
vertex 3.62698106814557 -974.722708819076 30.3659676522173
vertex 4.12698106813801 -967.862293165542 2.19999999996592
vertex 3.62698106813803 -974.722708819105 2.19999999996855
endloop
endfacet
facet normal -0.997354649646201 0.0726890832869928 2.67473514733529e-13
outer loop
vertex 4.12698106813801 -967.862293165542 2.19999999996592
vertex 3.62698106814557 -974.722708819076 30.3659676522173
vertex 4.12698106814554 -967.862293165572 30.3659676522146
endloop
endfacet
facet normal 0.707106781186546 -0.707106781186549 5.48160694760839e-13
outer loop
vertex 2.89825580402527 -978.115341492713 30.365967652223
vertex -0.104792523187906 -980.419661520414 -2.32196040172994e-11
vertex 2.89825580401702 -978.115341492745 -2.63187471816195e-11
endloop
endfacet
facet normal 0.499999999999995 -0.866025403784441 7.70765003046175e-13
outer loop
vertex -0.104792523187906 -980.419661520414 -2.32196040172994e-11
vertex 2.89825580402527 -978.115341492713 30.365967652223
vertex -0.10479252317965 -980.419661520382 30.3659676522261
endloop
endfacet
facet normal 0.258819045102535 -0.965925826289065 9.41067570329202e-13
outer loop
vertex -3.60191636919315 -981.868217646699 30.3659676522281
vertex -7.35479252318788 -982.36229316554 -2.06675343505935e-11
vertex -3.60191636920136 -981.868217646731 -2.12174278146904e-11
endloop
endfacet
facet normal 0.130526192220053 -0.99144486137381 1.00260281194537e-12
outer loop
vertex -7.35479252318788 -982.36229316554 -2.06675343505935e-11
vertex -3.60191636919315 -981.868217646699 30.3659676522281
vertex -7.35479252317967 -982.362293165508 30.3659676522286
endloop
endfacet
facet normal 0.499999999999993 0.866025403784443 7.91891261871745e-13
outer loop
vertex -0.104792523187928 -955.304924810665 -2.30024665981432e-11
vertex 2.89825580402525 -957.609244838367 30.3659676522231
vertex 2.89825580401702 -957.609244838335 -2.6141089293219e-11
endloop
endfacet
facet normal 0.707106781186546 0.707106781186549 5.65746003014323e-13
outer loop
vertex 2.89825580402525 -957.609244838367 30.3659676522231
vertex -0.104792523187928 -955.304924810665 -2.30024665981432e-11
vertex -0.104792523179696 -955.304924810698 30.3659676522263
endloop
endfacet
facet normal -0.500000000000005 -0.866025403784436 -7.91891261871735e-13
outer loop
vertex -0.854792523179705 -956.603962916374 30.3659676522244
vertex -3.99014493685447 -955.305257423784 2.19999999997741
vertex -0.854792523187242 -956.603962916344 2.19999999997573
endloop
endfacet
facet normal -0.258819045102505 -0.965925826289072 -9.64362385580842e-13
outer loop
vertex -3.99014493685447 -955.305257423784 2.19999999997741
vertex -0.854792523179705 -956.603962916374 30.3659676522244
vertex -3.99014493684693 -955.305257423814 30.3659676522261
endloop
endfacet
facet normal 0.965925826289074 0.258819045102498 1.51009292077166e-14
outer loop
vertex 6.65113195800356 -964.109417011553 -3.54215989872841e-11
vertex 5.20257583169466 -960.612293165572 30.3659676522189
vertex 6.65113195801179 -964.109417011585 30.3659676522139
endloop
endfacet
facet normal 0.866025403784432 0.500000000000012 3.01046088990967e-13
outer loop
vertex 5.20257583169466 -960.612293165572 30.3659676522189
vertex 6.65113195800356 -964.109417011553 -3.54215989872841e-11
vertex 5.20257583168643 -960.61229316554 -3.04020586483489e-11
endloop
endfacet
facet normal -0.997354649646227 -0.0726890832866359 1.89032590026853e-13
outer loop
vertex 3.62698106814554 -961.001877512005 30.3659676522174
vertex 4.12698106813801 -967.862293165542 2.19999999996592
vertex 4.12698106814554 -967.862293165572 30.3659676522146
endloop
endfacet
facet normal -0.997354649646227 -0.0726890832866359 1.89032590026853e-13
outer loop
vertex 4.12698106813801 -967.862293165542 2.19999999996592
vertex 3.62698106814554 -961.001877512005 30.3659676522174
vertex 3.62698106813801 -961.001877511974 2.19999999996867
endloop
endfacet
facet normal -1.0 -1.28452855174591e-15 3.12271252627421e-13
outer loop
vertex 3.74520747681862 -972.2529569267 2.19999999996479
vertex 3.74520747681792 -963.471629404378 -3.28328697563052e-11
vertex 3.74520747681794 -972.252956926702 -3.2909008851334e-11
endloop
endfacet
facet normal -1.0 -1.28452855174591e-15 3.12271252627421e-13
outer loop
vertex 3.74520747681792 -963.471629404378 -3.28328697563052e-11
vertex 3.74520747681862 -972.2529569267 2.19999999996479
vertex 3.74520747681862 -963.471629404379 2.19999999996486
endloop
endfacet
facet normal -1.0 9.075828943601e-25 2.70464140319508e-13
outer loop
vertex 3.62698106814554 -960.183235588242 30.3659676522166
vertex 3.62698106813801 -961.001877511974 2.19999999996867
vertex 3.62698106814554 -961.001877512005 30.3659676522174
endloop
endfacet
facet normal -1.0 9.075828943601e-25 2.70464140319508e-13
outer loop
vertex 3.62698106813801 -961.001877511974 2.19999999996867
vertex 3.62698106814554 -960.183235588242 30.3659676522166
vertex 3.62698106813801 -960.183235588212 2.19999999996795
endloop
endfacet
facet normal 0.130526192220052 0.99144486137381 1.01952289627827e-12
outer loop
vertex -7.35479252318792 -953.36229316554 -2.04165573336468e-11
vertex -3.60191636919315 -953.856368684381 30.3659676522283
vertex -3.60191636920138 -953.856368684348 -2.09777306636738e-11
endloop
endfacet
facet normal 0.258819045102536 0.965925826289064 9.60759333945267e-13
outer loop
vertex -3.60191636919315 -953.856368684381 30.3659676522283
vertex -7.35479252318792 -953.36229316554 -2.04165573336468e-11
vertex -7.35479252317969 -953.362293165572 30.3659676522289
endloop
endfacet
facet normal -0.645752042092646 -0.763547182650278 -6.42762520877365e-13
outer loop
vertex 3.62698106814554 -960.183235588242 30.3659676522166
vertex 1.83759563223789 -958.669905010117 2.19999999997276
vertex 3.62698106813801 -960.183235588212 2.19999999996795
endloop
endfacet
facet normal -0.645752042092646 -0.763547182650278 -6.42762520877365e-13
outer loop
vertex 1.83759563223789 -958.669905010117 2.19999999997276
vertex 3.62698106814554 -960.183235588242 30.3659676522166
vertex 1.83759563224542 -958.669905010147 30.3659676522215
endloop
endfacet
facet normal -0.258819045102537 -0.965925826289064 -9.64362385580824e-13
outer loop
vertex -3.99014493684693 -955.305257423814 30.3659676522261
vertex -7.35479252318723 -954.862293165542 2.19999999997799
vertex -3.99014493685447 -955.305257423784 2.19999999997741
endloop
endfacet
facet normal -0.130526192220052 -0.99144486137381 -1.02666735033695e-12
outer loop
vertex -7.35479252318723 -954.862293165542 2.19999999997799
vertex -3.99014493684693 -955.305257423814 30.3659676522261
vertex -7.35479252317969 -954.862293165572 30.3659676522267
endloop
endfacet
facet normal -0.683862147873377 -0.729611240802944 -2.94770098270067e-13
outer loop
vertex 3.74520747681862 -963.471629404379 2.19999999996486
vertex 0.281960713631471 -960.225539928725 -2.95306890052416e-11
vertex 3.74520747681792 -963.471629404378 -3.28328697563052e-11
endloop
endfacet
facet normal -0.683862147873377 -0.729611240802944 -2.94770098270067e-13
outer loop
vertex 0.281960713631471 -960.225539928725 -2.95306890052416e-11
vertex 3.74520747681862 -963.471629404379 2.19999999996486
vertex 0.281960713632213 -960.225539928727 2.19999999997015
endloop
endfacet
facet normal 0.258819045102505 0.965925826289073 9.60759333945283e-13
outer loop
vertex -3.60191636920138 -953.856368684348 -2.09777306636738e-11
vertex -0.104792523179696 -955.304924810698 30.3659676522263
vertex -0.104792523187928 -955.304924810665 -2.30024665981432e-11
endloop
endfacet
facet normal 0.500000000000005 0.866025403784436 7.91891261871735e-13
outer loop
vertex -0.104792523179696 -955.304924810698 30.3659676522263
vertex -3.60191636920138 -953.856368684348 -2.09777306636738e-11
vertex -3.60191636919315 -953.856368684381 30.3659676522283
endloop
endfacet
facet normal -1.0 3.5708970797247e-25 2.67555924819267e-13
outer loop
vertex 3.62698106814557 -975.541350742837 30.3659676522165
vertex 3.62698106813803 -974.722708819105 2.19999999996855
vertex 3.62698106813803 -975.541350742867 2.19999999996782
endloop
endfacet
facet normal -1.0 3.5708970797247e-25 2.67555924819267e-13
outer loop
vertex 3.62698106813803 -974.722708819105 2.19999999996855
vertex 3.62698106814557 -975.541350742837 30.3659676522165
vertex 3.62698106814557 -974.722708819076 30.3659676522173
endloop
endfacet
facet normal -0.499999999999967 -0.866025403784458 -5.73864310836198e-13
outer loop
vertex -1.95479252318257 -958.50921880467 2.19999999997223
vertex -4.55954683607611 -957.430294241618 -2.57462939856623e-11
vertex -1.95479252318331 -958.509218804668 -2.74467337746387e-11
endloop
endfacet
facet normal -0.25881904510248 -0.965925826289079 -7.40276675271227e-13
outer loop
vertex -4.55954683607611 -957.430294241618 -2.57462939856623e-11
vertex -1.95479252318257 -958.50921880467 2.19999999997223
vertex -4.55954683607537 -957.43029424162 2.19999999997393
endloop
endfacet
facet normal -0.608761429008687 -0.793353340291261 -4.70222641150779e-13
outer loop
vertex 0.281960713632213 -960.225539928727 2.19999999997015
vertex -1.95479252318331 -958.509218804668 -2.74467337746387e-11
vertex 0.281960713631471 -960.225539928725 -2.95306890052416e-11
endloop
endfacet
facet normal -0.499999999999963 -0.86602540378446 -5.73864310836201e-13
outer loop
vertex -1.95479252318331 -958.509218804668 -2.74467337746387e-11
vertex 0.281960713632213 -960.225539928727 2.19999999997015
vertex -1.95479252318257 -958.50921880467 2.19999999997223
endloop
endfacet
facet normal -0.608761429008719 -0.793353340291237 -6.84676131663456e-13
outer loop
vertex 1.83759563224542 -958.669905010147 30.3659676522215
vertex -0.854792523187242 -956.603962916344 2.19999999997573
vertex 1.83759563223789 -958.669905010117 2.19999999997276
endloop
endfacet
facet normal -0.499999999999994 -0.866025403784442 -7.91891261871745e-13
outer loop
vertex -0.854792523187242 -956.603962916344 2.19999999997573
vertex 1.83759563224542 -958.669905010147 30.3659676522215
vertex -0.854792523179705 -956.603962916374 30.3659676522244
endloop
endfacet
facet normal 0.866025403784446 0.499999999999986 3.01046088990936e-13
outer loop
vertex 5.20257583168643 -960.61229316554 -3.04020586483489e-11
vertex 2.89825580402525 -957.609244838367 30.3659676522231
vertex 5.20257583169466 -960.612293165572 30.3659676522189
endloop
endfacet
facet normal 0.707106781186546 0.707106781186549 5.65746003014323e-13
outer loop
vertex 2.89825580402525 -957.609244838367 30.3659676522231
vertex 5.20257583168643 -960.61229316554 -3.04020586483489e-11
vertex 2.89825580401702 -957.609244838335 -2.6141089293219e-11
endloop
endfacet
facet normal 0.99144486137381 0.130526192220052 -1.29861915204365e-13
outer loop
vertex 7.14520747681207 -967.86229316554 -4.08472144997063e-11
vertex 6.65113195801179 -964.109417011585 30.3659676522139
vertex 7.1452074768203 -967.862293165572 30.3659676522084
endloop
endfacet
facet normal 0.965925826289062 0.258819045102544 1.51009292077696e-14
outer loop
vertex 6.65113195801179 -964.109417011585 30.3659676522139
vertex 7.14520747681207 -967.86229316554 -4.08472144997063e-11
vertex 6.65113195800356 -964.109417011553 -3.54215989872841e-11
endloop
endfacet
endsolid Nerf Gun
