solid Nerf Gun
facet normal 8.44032607648565e-26 -1.0 -3.59050514930333e-14
outer loop
vertex -110.615326337483 -953.21920350388 -15.9399568289923
vertex -118.121078645475 -953.21920350388 -15.9399568289923
vertex -114.368202491488 -953.219203503881 -16.4340323478008
endloop
endfacet
facet normal 8.44032607648565e-26 -1.0 -3.59050514930333e-14
outer loop
vertex -118.121078645475 -953.21920350388 -15.9399568289923
vertex -110.615326337483 -953.21920350388 -15.9399568289923
vertex -107.118202491469 -953.219203503878 -14.4914007026752
endloop
endfacet
facet normal 8.44032607648565e-26 -1.0 -3.59050514930333e-14
outer loop
vertex -118.121078645475 -953.21920350388 -15.9399568289923
vertex -107.118202491469 -953.219203503878 -14.4914007026752
vertex -114.368202491488 -953.219203503878 -14.9340323478008
endloop
endfacet
facet normal 8.44032607648565e-26 -1.0 -3.59050514930333e-14
outer loop
vertex -114.368202491488 -953.219203503878 -14.9340323478008
vertex -107.118202491469 -953.219203503878 -14.4914007026752
vertex -111.003554905137 -953.219203503878 -14.4910680895587
endloop
endfacet
facet normal 8.44032607648565e-26 -1.0 -3.59050514930333e-14
outer loop
vertex -111.003554905137 -953.219203503878 -14.4910680895587
vertex -107.118202491469 -953.219203503878 -14.4914007026752
vertex -104.115154164265 -953.219203503874 -12.1870806750058
endloop
endfacet
facet normal 8.44032607648565e-26 -1.0 -3.59050514930333e-14
outer loop
vertex -111.003554905137 -953.219203503878 -14.4910680895587
vertex -104.115154164265 -953.219203503874 -12.1870806750058
vertex -107.868202491469 -953.219203503876 -13.1923625969985
endloop
endfacet
facet normal 8.44032607648565e-26 -1.0 -3.59050514930333e-14
outer loop
vertex -107.868202491469 -953.219203503876 -13.1923625969985
vertex -104.115154164265 -953.219203503874 -12.1870806750058
vertex -105.175814336044 -953.219203503873 -11.1264205032259
endloop
endfacet
facet normal 8.44032607648565e-26 -1.0 -3.59050514930333e-14
outer loop
vertex -105.175814336044 -953.219203503873 -11.1264205032259
vertex -104.115154164265 -953.219203503874 -12.1870806750058
vertex -101.810834136595 -953.21920350387 -9.18403234780083
endloop
endfacet
facet normal 8.44032607648565e-26 -1.0 -3.59050514930333e-14
outer loop
vertex -105.175814336044 -953.219203503873 -11.1264205032259
vertex -101.810834136595 -953.21920350387 -9.18403234780083
vertex -103.386428900144 -953.219203503868 -9.61308992513044
endloop
endfacet
facet normal 8.44032607648565e-26 -1.0 -3.59050514930333e-14
outer loop
vertex -103.386428900144 -953.219203503868 -9.61308992513044
vertex -101.810834136595 -953.21920350387 -9.18403234780083
vertex -103.386428900144 -953.219203503869 -8.79444800136839
endloop
endfacet
facet normal 8.44032607648565e-26 -1.0 -3.59050514930333e-14
outer loop
vertex -103.386428900144 -953.219203503869 -8.79444800136839
vertex -101.810834136595 -953.21920350387 -9.18403234780083
vertex -100.362278010278 -953.219203503865 -5.68690850178739
endloop
endfacet
facet normal 8.44032607648565e-26 -1.0 -3.59050514930333e-14
outer loop
vertex -103.386428900144 -953.219203503869 -8.79444800136839
vertex -100.362278010278 -953.219203503865 -5.68690850178739
vertex -102.886428900144 -953.219203503866 -1.93403234780084
endloop
endfacet
facet normal 8.44032607648565e-26 -1.0 -3.59050514930333e-14
outer loop
vertex -102.886428900144 -953.219203503866 -1.93403234780084
vertex -100.362278010278 -953.219203503865 -5.68690850178739
vertex -99.8682024914695 -953.21920350386 -1.93403234780084
endloop
endfacet
facet normal 8.44032607648565e-26 -1.0 -3.59050514930333e-14
outer loop
vertex -102.886428900144 -953.219203503866 -1.93403234780084
vertex -99.8682024914695 -953.21920350386 -1.93403234780084
vertex -100.362278010278 -953.219203503865 1.81884380612163
endloop
endfacet
facet normal 8.44032607648565e-26 -1.0 -3.59050514930333e-14
outer loop
vertex -102.886428900144 -953.219203503866 -1.93403234780084
vertex -100.362278010278 -953.219203503865 1.81884380612163
vertex -103.386428900144 -953.219203503869 4.92638330570264
endloop
endfacet
facet normal 8.44032607648565e-26 -1.0 -3.59050514930333e-14
outer loop
vertex -103.386428900144 -953.219203503869 4.92638330570264
vertex -100.362278010278 -953.219203503865 1.81884380612163
vertex -101.810834136595 -953.21920350387 5.31596765213508
endloop
endfacet
facet normal 8.44032607648565e-26 -1.0 -3.59050514930333e-14
outer loop
vertex -103.386428900144 -953.219203503869 4.92638330570264
vertex -101.810834136595 -953.21920350387 5.31596765213508
vertex -103.386428900144 -953.219203503868 5.74502522946468
endloop
endfacet
facet normal 8.44032607648565e-26 -1.0 -3.59050514930333e-14
outer loop
vertex -103.386428900144 -953.219203503868 5.74502522946468
vertex -101.810834136595 -953.21920350387 5.31596765213508
vertex -104.115154164265 -953.219203503874 8.31901597934002
endloop
endfacet
facet normal 8.44032607648565e-26 -1.0 -3.59050514930333e-14
outer loop
vertex -103.386428900144 -953.219203503868 5.74502522946468
vertex -104.115154164265 -953.219203503874 8.31901597934002
vertex -105.175814336044 -953.219203503873 7.25835580756019
endloop
endfacet
facet normal 8.44032607648565e-26 -1.0 -3.59050514930333e-14
outer loop
vertex -105.175814336044 -953.219203503873 7.25835580756019
vertex -104.115154164265 -953.219203503874 8.31901597934002
vertex -107.868202491469 -953.219203503876 9.32429790133278
endloop
endfacet
facet normal 8.44032607648565e-26 -1.0 -3.59050514930333e-14
outer loop
vertex -107.868202491469 -953.219203503876 9.32429790133278
vertex -104.115154164265 -953.219203503874 8.31901597934002
vertex -107.118202491469 -953.219203503878 10.6233360070094
endloop
endfacet
facet normal 8.44032607648565e-26 -1.0 -3.59050514930333e-14
outer loop
vertex -107.868202491469 -953.219203503876 9.32429790133278
vertex -107.118202491469 -953.219203503878 10.6233360070094
vertex -111.003554905137 -953.219203503878 10.623003393893
endloop
endfacet
facet normal 8.44032607648565e-26 -1.0 -3.59050514930333e-14
outer loop
vertex -111.003554905137 -953.219203503878 10.623003393893
vertex -107.118202491469 -953.219203503878 10.6233360070094
vertex -114.368202491488 -953.219203503878 11.0659676521351
endloop
endfacet
facet normal 8.44032607648565e-26 -1.0 -3.59050514930333e-14
outer loop
vertex -114.368202491488 -953.219203503878 11.0659676521351
vertex -107.118202491469 -953.219203503878 10.6233360070094
vertex -110.615326337483 -953.21920350388 12.0718921333266
endloop
endfacet
facet normal 8.44032607648565e-26 -1.0 -3.59050514930333e-14
outer loop
vertex -114.368202491488 -953.219203503878 -14.9340323478008
vertex -121.618202491488 -953.219203503878 -14.4914007026752
vertex -118.121078645475 -953.21920350388 -15.9399568289923
endloop
endfacet
facet normal 8.44032607648565e-26 -1.0 -3.59050514930333e-14
outer loop
vertex -121.618202491488 -953.219203503878 -14.4914007026752
vertex -114.368202491488 -953.219203503878 -14.9340323478008
vertex -117.732850077821 -953.219203503878 -14.4910680895587
endloop
endfacet
facet normal 8.44032607648565e-26 -1.0 -3.59050514930333e-14
outer loop
vertex -121.618202491488 -953.219203503878 -14.4914007026752
vertex -117.732850077821 -953.219203503878 -14.4910680895587
vertex -124.621250818693 -953.219203503874 -12.1870806750058
endloop
endfacet
facet normal 8.44032607648565e-26 -1.0 -3.59050514930333e-14
outer loop
vertex -124.621250818693 -953.219203503874 -12.1870806750058
vertex -117.732850077821 -953.219203503878 -14.4910680895587
vertex -120.868202491488 -953.219203503876 -13.1923625969985
endloop
endfacet
facet normal 8.44032607648565e-26 -1.0 -3.59050514930333e-14
outer loop
vertex -124.621250818693 -953.219203503874 -12.1870806750058
vertex -120.868202491488 -953.219203503876 -13.1923625969985
vertex -123.560590646914 -953.219203503873 -11.1264205032259
endloop
endfacet
facet normal 8.44032607648565e-26 -1.0 -3.59050514930333e-14
outer loop
vertex -124.621250818693 -953.219203503874 -12.1870806750058
vertex -123.560590646914 -953.219203503873 -11.1264205032259
vertex -126.925570846363 -953.21920350387 -9.18403234780083
endloop
endfacet
facet normal 8.44032607648565e-26 -1.0 -3.59050514930333e-14
outer loop
vertex -126.925570846363 -953.21920350387 -9.18403234780083
vertex -123.560590646914 -953.219203503873 -11.1264205032259
vertex -125.349976082814 -953.219203503868 -9.61308992513044
endloop
endfacet
facet normal 8.44032607648565e-26 -1.0 -3.59050514930333e-14
outer loop
vertex -126.925570846363 -953.21920350387 -9.18403234780083
vertex -125.349976082814 -953.219203503868 -9.61308992513044
vertex -125.349976082814 -953.219203503869 -8.79444800136839
endloop
endfacet
facet normal 8.44032607648565e-26 -1.0 -3.59050514930333e-14
outer loop
vertex -126.925570846363 -953.21920350387 -9.18403234780083
vertex -125.349976082814 -953.219203503869 -8.79444800136839
vertex -128.37412697268 -953.219203503865 -5.68690850178738
endloop
endfacet
facet normal 8.44032607648565e-26 -1.0 -3.59050514930333e-14
outer loop
vertex -128.37412697268 -953.219203503865 -5.68690850178738
vertex -125.349976082814 -953.219203503869 -8.79444800136839
vertex -125.849976082814 -953.219203503866 -1.93403234780083
endloop
endfacet
facet normal 8.44032607648565e-26 -1.0 -3.59050514930333e-14
outer loop
vertex -128.37412697268 -953.219203503865 -5.68690850178738
vertex -125.849976082814 -953.219203503866 -1.93403234780083
vertex -128.868202491488 -953.21920350386 -1.93403234780083
endloop
endfacet
facet normal 8.44032607648565e-26 -1.0 -3.59050514930333e-14
outer loop
vertex -128.868202491488 -953.21920350386 -1.93403234780083
vertex -125.849976082814 -953.219203503866 -1.93403234780083
vertex -125.349976082814 -953.219203503869 4.92638330570264
endloop
endfacet
facet normal 8.44032607648565e-26 -1.0 -3.59050514930333e-14
outer loop
vertex -128.868202491488 -953.21920350386 -1.93403234780083
vertex -125.349976082814 -953.219203503869 4.92638330570264
vertex -128.37412697268 -953.219203503865 1.81884380612163
endloop
endfacet
facet normal 8.44032607648565e-26 -1.0 -3.59050514930333e-14
outer loop
vertex -128.37412697268 -953.219203503865 1.81884380612163
vertex -125.349976082814 -953.219203503869 4.92638330570264
vertex -126.925570846363 -953.21920350387 5.31596765213508
endloop
endfacet
facet normal 8.44032607648565e-26 -1.0 -3.59050514930333e-14
outer loop
vertex -126.925570846363 -953.21920350387 5.31596765213508
vertex -125.349976082814 -953.219203503869 4.92638330570264
vertex -125.349976082814 -953.219203503868 5.74502522946469
endloop
endfacet
facet normal 8.44032607648565e-26 -1.0 -3.59050514930333e-14
outer loop
vertex -126.925570846363 -953.21920350387 5.31596765213508
vertex -125.349976082814 -953.219203503868 5.74502522946469
vertex -124.621250818693 -953.219203503874 8.31901597934002
endloop
endfacet
facet normal 8.44032607648565e-26 -1.0 -3.59050514930333e-14
outer loop
vertex -124.621250818693 -953.219203503874 8.31901597934002
vertex -125.349976082814 -953.219203503868 5.74502522946469
vertex -123.560590646914 -953.219203503873 7.2583558075602
endloop
endfacet
facet normal 8.44032607648565e-26 -1.0 -3.59050514930333e-14
outer loop
vertex -124.621250818693 -953.219203503874 8.31901597934002
vertex -123.560590646914 -953.219203503873 7.2583558075602
vertex -120.868202491489 -953.219203503876 9.32429790133279
endloop
endfacet
facet normal 8.44032607648565e-26 -1.0 -3.59050514930333e-14
outer loop
vertex -124.621250818693 -953.219203503874 8.31901597934002
vertex -120.868202491489 -953.219203503876 9.32429790133279
vertex -121.618202491489 -953.219203503878 10.6233360070094
endloop
endfacet
facet normal 8.44032607648565e-26 -1.0 -3.59050514930333e-14
outer loop
vertex -121.618202491489 -953.219203503878 10.6233360070094
vertex -120.868202491489 -953.219203503876 9.32429790133279
vertex -117.732850077821 -953.219203503878 10.623003393893
endloop
endfacet
facet normal 8.44032607648565e-26 -1.0 -3.59050514930333e-14
outer loop
vertex -121.618202491489 -953.219203503878 10.6233360070094
vertex -117.732850077821 -953.219203503878 10.623003393893
vertex -114.368202491488 -953.219203503878 11.0659676521351
endloop
endfacet
facet normal 8.44032607648565e-26 -1.0 -3.59050514930333e-14
outer loop
vertex -121.618202491489 -953.219203503878 10.6233360070094
vertex -114.368202491488 -953.219203503878 11.0659676521351
vertex -118.121078645475 -953.21920350388 12.0718921333266
endloop
endfacet
facet normal 8.44032607648565e-26 -1.0 -3.59050514930333e-14
outer loop
vertex -118.121078645475 -953.21920350388 12.0718921333266
vertex -114.368202491488 -953.219203503878 11.0659676521351
vertex -110.615326337483 -953.21920350388 12.0718921333266
endloop
endfacet
facet normal 8.44032607648565e-26 -1.0 -3.59050514930333e-14
outer loop
vertex -118.121078645475 -953.21920350388 12.0718921333266
vertex -110.615326337483 -953.21920350388 12.0718921333266
vertex -114.368202491488 -953.219203503881 12.5659676521351
endloop
endfacet
facet normal 0.130526192220011 7.86050425869649e-13 0.991444861373816
outer loop
vertex -114.368202491484 -925.053235851627 -12.7340323478307
vertex -117.163448178591 -922.853235851626 -12.3660312717546
vertex -117.163448178592 -925.053235851626 -12.3660312717528
endloop
endfacet
facet normal 0.258819045102479 7.20801872825645e-13 0.965925826289079
outer loop
vertex -117.163448178591 -922.853235851626 -12.3660312717546
vertex -114.368202491484 -925.053235851627 -12.7340323478307
vertex -114.368202491483 -922.853235851627 -12.7340323478326
endloop
endfacet
facet normal -0.645752042092646 6.10142574055541e-13 0.763547182650278
outer loop
vertex -105.175814336044 -953.219203503873 -11.1264205032259
vertex -103.386428900153 -925.053235851619 -9.61308992516035
vertex -105.175814336053 -925.053235851624 -11.1264205032559
endloop
endfacet
facet normal -0.645752042092646 6.10142574055541e-13 0.763547182650278
outer loop
vertex -103.386428900153 -925.053235851619 -9.61308992516035
vertex -105.175814336044 -953.219203503873 -11.1264205032259
vertex -103.386428900144 -953.219203503868 -9.61308992513044
endloop
endfacet
facet normal 0.965925826289074 3.04363565385138e-14 -0.258819045102498
outer loop
vertex -100.362278010288 -922.853235851616 -5.68690850181943
vertex -99.8682024914695 -953.21920350386 -1.93403234780084
vertex -100.362278010278 -953.219203503865 -5.68690850178739
endloop
endfacet
facet normal 0.99144486137381 1.73827842045689e-13 -0.130526192220052
outer loop
vertex -99.8682024914695 -953.21920350386 -1.93403234780084
vertex -100.362278010288 -922.853235851616 -5.68690850181943
vertex -99.868202491479 -922.85323585161 -1.93403234783288
endloop
endfacet
facet normal -0.997354649646227 -2.32757537857172e-13 0.0726890832866359
outer loop
vertex -102.886428900144 -953.219203503866 -1.93403234780084
vertex -103.386428900153 -925.05323585162 -8.7944480013983
vertex -103.386428900144 -953.219203503869 -8.79444800136839
endloop
endfacet
facet normal -0.997354649646227 -2.32757537857172e-13 0.0726890832866359
outer loop
vertex -103.386428900153 -925.05323585162 -8.7944480013983
vertex -102.886428900144 -953.219203503866 -1.93403234780084
vertex -102.886428900153 -925.053235851617 -1.93403234783075
endloop
endfacet
facet normal -0.258819045102264 7.39616278312535e-13 0.965925826289137
outer loop
vertex -111.572956804366 -925.053235851626 -12.3660312717528
vertex -108.968202491474 -922.853235851624 -11.2871067087048
vertex -111.572956804367 -922.853235851626 -12.3660312717546
endloop
endfacet
facet normal -0.499999999999962 5.38731355313489e-13 0.866025403784461
outer loop
vertex -108.968202491474 -922.853235851624 -11.2871067087048
vertex -111.572956804366 -925.053235851626 -12.3660312717528
vertex -108.968202491474 -925.053235851624 -11.2871067087029
endloop
endfacet
facet normal -0.499999999999967 5.38731355313484e-13 0.866025403784457
outer loop
vertex -108.968202491474 -925.053235851624 -11.2871067087029
vertex -106.73144925466 -922.853235851622 -9.57078558464763
vertex -108.968202491474 -922.853235851624 -11.2871067087048
endloop
endfacet
facet normal -0.608761429008688 4.36601500511237e-13 0.79335334029126
outer loop
vertex -106.73144925466 -922.853235851622 -9.57078558464763
vertex -108.968202491474 -925.053235851624 -11.2871067087029
vertex -106.731449254659 -925.053235851622 -9.57078558464578
endloop
endfacet
facet normal -0.500000000000006 7.64450676659736e-13 0.866025403784435
outer loop
vertex -107.868202491469 -953.219203503876 -13.1923625969985
vertex -105.175814336053 -925.053235851624 -11.1264205032559
vertex -107.868202491478 -925.053235851627 -13.1923625970285
endloop
endfacet
facet normal -0.608761429008721 6.53431204824117e-13 0.793353340291235
outer loop
vertex -105.175814336053 -925.053235851624 -11.1264205032559
vertex -107.868202491469 -953.219203503876 -13.1923625969985
vertex -105.175814336044 -953.219203503873 -11.1264205032259
endloop
endfacet
facet normal 0.707106781186551 -5.239137761928e-13 -0.707106781186544
outer loop
vertex -104.115154164274 -922.853235851625 -12.1870806750378
vertex -101.810834136595 -953.21920350387 -9.18403234780083
vertex -104.115154164265 -953.219203503874 -12.1870806750058
endloop
endfacet
facet normal 0.866025403784431 -2.55421441401127e-13 -0.500000000000012
outer loop
vertex -101.810834136595 -953.21920350387 -9.18403234780083
vertex -104.115154164274 -922.853235851625 -12.1870806750378
vertex -101.810834136605 -922.853235851621 -9.18403234783287
endloop
endfacet
facet normal -1.0 -3.10771356052802e-13 -2.73902865670437e-25
outer loop
vertex -103.386428900153 -925.05323585162 -8.7944480013983
vertex -103.386428900144 -953.219203503868 -9.61308992513044
vertex -103.386428900144 -953.219203503869 -8.79444800136839
endloop
endfacet
facet normal -1.0 -3.10771356052802e-13 -2.73902865670437e-25
outer loop
vertex -103.386428900144 -953.219203503868 -9.61308992513044
vertex -103.386428900153 -925.05323585162 -8.7944480013983
vertex -103.386428900153 -925.053235851619 -9.61308992516035
endloop
endfacet
facet normal 0.130526192219728 -1.0464387974629e-12 -0.991444861373853
outer loop
vertex -114.368202491479 -922.853235851631 -16.4340323478329
vertex -110.615326337483 -953.21920350388 -15.9399568289923
vertex -114.368202491488 -953.219203503881 -16.4340323478008
endloop
endfacet
facet normal 0.258819045102378 -9.5883425289064e-13 -0.965925826289107
outer loop
vertex -110.615326337483 -953.21920350388 -15.9399568289923
vertex -114.368202491479 -922.853235851631 -16.4340323478329
vertex -110.615326337492 -922.853235851631 -15.9399568290244
endloop
endfacet
facet normal 0.499999999999994 -7.56819890667183e-13 -0.866025403784442
outer loop
vertex -107.118202491479 -922.853235851628 -14.4914007027072
vertex -110.615326337483 -953.21920350388 -15.9399568289923
vertex -110.615326337492 -922.853235851631 -15.9399568290244
endloop
endfacet
facet normal 0.258819045102378 -9.5883425289064e-13 -0.965925826289107
outer loop
vertex -110.615326337483 -953.21920350388 -15.9399568289923
vertex -107.118202491479 -922.853235851628 -14.4914007027072
vertex -107.118202491469 -953.219203503878 -14.4914007026752
endloop
endfacet
facet normal -1.0 -3.55486683860956e-13 1.28452855237652e-15
outer loop
vertex -103.268202491473 -922.853235851618 2.45663141332908
vertex -103.268202491472 -925.053235851616 -6.3246961089936
vertex -103.268202491472 -925.053235851616 2.45663141332784
endloop
endfacet
facet normal -1.0 -3.55486683860956e-13 1.28452855237652e-15
outer loop
vertex -103.268202491472 -925.053235851616 -6.3246961089936
vertex -103.268202491473 -922.853235851618 2.45663141332908
vertex -103.268202491473 -922.853235851618 -6.32469610899483
endloop
endfacet
facet normal -1.0 -3.10771356052802e-13 2.73445572670849e-25
outer loop
vertex -103.386428900144 -953.219203503868 5.74502522946468
vertex -103.386428900153 -925.05323585162 4.92638330573254
vertex -103.386428900144 -953.219203503869 4.92638330570264
endloop
endfacet
facet normal -1.0 -3.10771356052802e-13 2.73445572670849e-25
outer loop
vertex -103.386428900153 -925.05323585162 4.92638330573254
vertex -103.386428900144 -953.219203503868 5.74502522946468
vertex -103.386428900153 -925.053235851619 5.74502522949459
endloop
endfacet
facet normal -0.258819045102346 9.65975016898157e-13 0.965925826289115
outer loop
vertex -111.003554905137 -953.219203503878 -14.4910680895587
vertex -114.36820249148 -925.05323585163 -14.9340323478308
vertex -114.368202491488 -953.219203503878 -14.9340323478008
endloop
endfacet
facet normal -0.13052619221966 1.05303174796634e-12 0.991444861373862
outer loop
vertex -114.36820249148 -925.05323585163 -14.9340323478308
vertex -111.003554905137 -953.219203503878 -14.4910680895587
vertex -111.003554905145 -925.053235851629 -14.4910680895886
endloop
endfacet
facet normal -0.683862147873377 2.5887063228227e-13 0.729611240802944
outer loop
vertex -106.731449254659 -925.053235851622 -9.57078558464578
vertex -103.268202491473 -922.853235851618 -6.32469610899483
vertex -106.73144925466 -922.853235851622 -9.57078558464763
endloop
endfacet
facet normal -0.683862147873377 2.5887063228227e-13 0.729611240802944
outer loop
vertex -103.268202491473 -922.853235851618 -6.32469610899483
vertex -106.731449254659 -925.053235851622 -9.57078558464578
vertex -103.268202491472 -925.053235851616 -6.3246961089936
endloop
endfacet
facet normal 0.258819045102377 -9.58744037382447e-13 0.965925826289107
outer loop
vertex -110.615326337483 -953.21920350388 12.0718921333266
vertex -114.368202491479 -922.853235851631 12.5659676521671
vertex -114.368202491488 -953.219203503881 12.5659676521351
endloop
endfacet
facet normal 0.130526192219728 -1.04634737487502e-12 0.991444861373853
outer loop
vertex -114.368202491479 -922.853235851631 12.5659676521671
vertex -110.615326337483 -953.21920350388 12.0718921333266
vertex -110.615326337492 -922.853235851631 12.0718921333586
endloop
endfacet
facet normal -0.258819045102264 7.39616278312535e-13 0.965925826289137
outer loop
vertex -111.572956804366 -925.053235851626 -12.3660312717528
vertex -114.368202491483 -922.853235851627 -12.7340323478326
vertex -114.368202491484 -925.053235851627 -12.7340323478307
endloop
endfacet
facet normal -0.130526192219558 8.34934149780959e-13 0.991444861373875
outer loop
vertex -114.368202491483 -922.853235851627 -12.7340323478326
vertex -111.572956804366 -925.053235851626 -12.3660312717528
vertex -111.572956804367 -922.853235851626 -12.3660312717546
endloop
endfacet
facet normal 4.21891553843809e-14 -1.0 1.54765154159926e-26
outer loop
vertex -111.003554905145 -925.053235851629 -14.4910680895886
vertex -117.732850077812 -925.053235851629 -14.4910680895886
vertex -114.36820249148 -925.05323585163 -14.9340323478308
endloop
endfacet
facet normal 4.21891553843809e-14 -1.0 1.54765154159926e-26
outer loop
vertex -117.732850077812 -925.053235851629 -14.4910680895886
vertex -111.003554905145 -925.053235851629 -14.4910680895886
vertex -107.868202491478 -925.053235851627 -13.1923625970285
endloop
endfacet
facet normal 4.21891553843809e-14 -1.0 1.54765154159926e-26
outer loop
vertex -117.732850077812 -925.053235851629 -14.4910680895886
vertex -107.868202491478 -925.053235851627 -13.1923625970285
vertex -120.86820249148 -925.053235851627 -13.1923625970285
endloop
endfacet
facet normal 4.21891553843809e-14 -1.0 1.54765154159926e-26
outer loop
vertex -120.86820249148 -925.053235851627 -13.1923625970285
vertex -107.868202491478 -925.053235851627 -13.1923625970285
vertex -114.368202491484 -925.053235851627 -12.7340323478307
endloop
endfacet
facet normal 4.21891553843809e-14 -1.0 1.54765154159926e-26
outer loop
vertex -114.368202491484 -925.053235851627 -12.7340323478307
vertex -107.868202491478 -925.053235851627 -13.1923625970285
vertex -111.572956804366 -925.053235851626 -12.3660312717528
endloop
endfacet
facet normal 4.21891553843809e-14 -1.0 1.54765154159926e-26
outer loop
vertex -111.572956804366 -925.053235851626 -12.3660312717528
vertex -107.868202491478 -925.053235851627 -13.1923625970285
vertex -105.175814336053 -925.053235851624 -11.1264205032559
endloop
endfacet
facet normal 4.21891553843809e-14 -1.0 1.54765154159926e-26
outer loop
vertex -111.572956804366 -925.053235851626 -12.3660312717528
vertex -105.175814336053 -925.053235851624 -11.1264205032559
vertex -108.968202491474 -925.053235851624 -11.2871067087029
endloop
endfacet
facet normal 4.21891553843809e-14 -1.0 1.54765154159926e-26
outer loop
vertex -108.968202491474 -925.053235851624 -11.2871067087029
vertex -105.175814336053 -925.053235851624 -11.1264205032559
vertex -106.731449254659 -925.053235851622 -9.57078558464578
endloop
endfacet
facet normal 4.21891553843809e-14 -1.0 1.54765154159926e-26
outer loop
vertex -106.731449254659 -925.053235851622 -9.57078558464578
vertex -105.175814336053 -925.053235851624 -11.1264205032559
vertex -103.386428900153 -925.053235851619 -9.61308992516035
endloop
endfacet
facet normal 4.21891553843809e-14 -1.0 1.54765154159926e-26
outer loop
vertex -106.731449254659 -925.053235851622 -9.57078558464578
vertex -103.386428900153 -925.053235851619 -9.61308992516035
vertex -103.386428900153 -925.05323585162 -8.7944480013983
endloop
endfacet
facet normal 4.21891553843809e-14 -1.0 1.54765154159926e-26
outer loop
vertex -106.731449254659 -925.053235851622 -9.57078558464578
vertex -103.386428900153 -925.05323585162 -8.7944480013983
vertex -103.268202491472 -925.053235851616 -6.3246961089936
endloop
endfacet
facet normal 4.21891553843809e-14 -1.0 1.54765154159926e-26
outer loop
vertex -103.268202491472 -925.053235851616 -6.3246961089936
vertex -103.386428900153 -925.05323585162 -8.7944480013983
vertex -102.886428900153 -925.053235851617 -1.93403234783075
endloop
endfacet
facet normal 4.21891553843809e-14 -1.0 1.54765154159926e-26
outer loop
vertex -103.268202491472 -925.053235851616 -6.3246961089936
vertex -102.886428900153 -925.053235851617 -1.93403234783075
vertex -103.268202491472 -925.053235851616 2.45663141332784
endloop
endfacet
facet normal 4.21891553843809e-14 -1.0 1.54765154159926e-26
outer loop
vertex -103.268202491472 -925.053235851616 2.45663141332784
vertex -102.886428900153 -925.053235851617 -1.93403234783075
vertex -103.386428900153 -925.05323585162 4.92638330573254
endloop
endfacet
facet normal 4.21891553843809e-14 -1.0 1.54765154159926e-26
outer loop
vertex -103.268202491472 -925.053235851616 2.45663141332784
vertex -103.386428900153 -925.05323585162 4.92638330573254
vertex -106.731449254659 -925.053235851622 5.70272088898002
endloop
endfacet
facet normal 4.21891553843809e-14 -1.0 1.54765154159926e-26
outer loop
vertex -106.731449254659 -925.053235851622 5.70272088898002
vertex -103.386428900153 -925.05323585162 4.92638330573254
vertex -103.386428900153 -925.053235851619 5.74502522949459
endloop
endfacet
facet normal 4.21891553843809e-14 -1.0 1.54765154159926e-26
outer loop
vertex -106.731449254659 -925.053235851622 5.70272088898002
vertex -103.386428900153 -925.053235851619 5.74502522949459
vertex -108.968202491474 -925.053235851624 7.41904201303715
endloop
endfacet
facet normal 4.21891553843809e-14 -1.0 1.54765154159926e-26
outer loop
vertex -108.968202491474 -925.053235851624 7.41904201303715
vertex -103.386428900153 -925.053235851619 5.74502522949459
vertex -105.175814336053 -925.053235851624 7.2583558075901
endloop
endfacet
facet normal 4.21891553843809e-14 -1.0 1.54765154159926e-26
outer loop
vertex -108.968202491474 -925.053235851624 7.41904201303715
vertex -105.175814336053 -925.053235851624 7.2583558075901
vertex -107.868202491478 -925.053235851627 9.3242979013627
endloop
endfacet
facet normal 4.21891553843809e-14 -1.0 1.54765154159926e-26
outer loop
vertex -108.968202491474 -925.053235851624 7.41904201303715
vertex -107.868202491478 -925.053235851627 9.3242979013627
vertex -111.572956804366 -925.053235851626 8.49796657608704
endloop
endfacet
facet normal 4.21891553843809e-14 -1.0 1.54765154159926e-26
outer loop
vertex -111.572956804366 -925.053235851626 8.49796657608704
vertex -107.868202491478 -925.053235851627 9.3242979013627
vertex -114.368202491484 -925.053235851627 8.86596765216499
endloop
endfacet
facet normal 4.21891553843809e-14 -1.0 1.54765154159926e-26
outer loop
vertex -120.86820249148 -925.053235851627 -13.1923625970285
vertex -117.163448178592 -925.053235851626 -12.3660312717528
vertex -123.560590646905 -925.053235851624 -11.1264205032559
endloop
endfacet
facet normal 4.21891553843809e-14 -1.0 1.54765154159926e-26
outer loop
vertex -117.163448178592 -925.053235851626 -12.3660312717528
vertex -120.86820249148 -925.053235851627 -13.1923625970285
vertex -114.368202491484 -925.053235851627 -12.7340323478307
endloop
endfacet
facet normal 4.21891553843809e-14 -1.0 1.54765154159926e-26
outer loop
vertex -123.560590646905 -925.053235851624 -11.1264205032559
vertex -117.163448178592 -925.053235851626 -12.3660312717528
vertex -119.768202491484 -925.053235851624 -11.2871067087029
endloop
endfacet
facet normal 4.21891553843809e-14 -1.0 1.54765154159926e-26
outer loop
vertex -123.560590646905 -925.053235851624 -11.1264205032559
vertex -119.768202491484 -925.053235851624 -11.2871067087029
vertex -122.004955728299 -925.053235851622 -9.57078558464577
endloop
endfacet
facet normal 4.21891553843809e-14 -1.0 1.54765154159926e-26
outer loop
vertex -123.560590646905 -925.053235851624 -11.1264205032559
vertex -122.004955728299 -925.053235851622 -9.57078558464577
vertex -125.349976082805 -925.053235851619 -9.61308992516035
endloop
endfacet
facet normal 4.21891553843809e-14 -1.0 1.54765154159926e-26
outer loop
vertex -125.349976082805 -925.053235851619 -9.61308992516035
vertex -122.004955728299 -925.053235851622 -9.57078558464577
vertex -125.349976082805 -925.05323585162 -8.7944480013983
endloop
endfacet
facet normal 4.21891553843809e-14 -1.0 1.54765154159926e-26
outer loop
vertex -125.349976082805 -925.05323585162 -8.7944480013983
vertex -122.004955728299 -925.053235851622 -9.57078558464577
vertex -125.468202491486 -925.053235851616 -6.3246961089936
endloop
endfacet
facet normal 4.21891553843809e-14 -1.0 1.54765154159926e-26
outer loop
vertex -125.349976082805 -925.05323585162 -8.7944480013983
vertex -125.468202491486 -925.053235851616 -6.3246961089936
vertex -125.849976082805 -925.053235851617 -1.93403234783074
endloop
endfacet
facet normal 4.21891553843809e-14 -1.0 1.54765154159926e-26
outer loop
vertex -125.849976082805 -925.053235851617 -1.93403234783074
vertex -125.468202491486 -925.053235851616 -6.3246961089936
vertex -125.468202491486 -925.053235851616 2.45663141332785
endloop
endfacet
facet normal 4.21891553843809e-14 -1.0 1.54765154159926e-26
outer loop
vertex -125.849976082805 -925.053235851617 -1.93403234783074
vertex -125.468202491486 -925.053235851616 2.45663141332785
vertex -125.349976082805 -925.05323585162 4.92638330573255
endloop
endfacet
facet normal 4.21891553843809e-14 -1.0 1.54765154159926e-26
outer loop
vertex -125.349976082805 -925.05323585162 4.92638330573255
vertex -125.468202491486 -925.053235851616 2.45663141332785
vertex -122.004955728299 -925.053235851622 5.70272088898002
endloop
endfacet
facet normal 4.21891553843809e-14 -1.0 1.54765154159926e-26
outer loop
vertex -125.349976082805 -925.05323585162 4.92638330573255
vertex -122.004955728299 -925.053235851622 5.70272088898002
vertex -125.349976082805 -925.053235851619 5.7450252294946
endloop
endfacet
facet normal 4.21891553843809e-14 -1.0 1.54765154159926e-26
outer loop
vertex -125.349976082805 -925.053235851619 5.7450252294946
vertex -122.004955728299 -925.053235851622 5.70272088898002
vertex -119.768202491484 -925.053235851624 7.41904201303715
endloop
endfacet
facet normal 4.21891553843809e-14 -1.0 1.54765154159926e-26
outer loop
vertex -125.349976082805 -925.053235851619 5.7450252294946
vertex -119.768202491484 -925.053235851624 7.41904201303715
vertex -123.560590646905 -925.053235851624 7.2583558075901
endloop
endfacet
facet normal 4.21891553843809e-14 -1.0 1.54765154159926e-26
outer loop
vertex -123.560590646905 -925.053235851624 7.2583558075901
vertex -119.768202491484 -925.053235851624 7.41904201303715
vertex -120.86820249148 -925.053235851627 9.3242979013627
endloop
endfacet
facet normal 4.21891553843809e-14 -1.0 1.54765154159926e-26
outer loop
vertex -120.86820249148 -925.053235851627 9.3242979013627
vertex -119.768202491484 -925.053235851624 7.41904201303715
vertex -117.163448178592 -925.053235851626 8.49796657608705
endloop
endfacet
facet normal 4.21891553843809e-14 -1.0 1.54765154159926e-26
outer loop
vertex -120.86820249148 -925.053235851627 9.3242979013627
vertex -117.163448178592 -925.053235851626 8.49796657608705
vertex -114.368202491484 -925.053235851627 8.86596765216499
endloop
endfacet
facet normal 4.21891553843809e-14 -1.0 1.54765154159926e-26
outer loop
vertex -120.86820249148 -925.053235851627 9.3242979013627
vertex -114.368202491484 -925.053235851627 8.86596765216499
vertex -107.868202491478 -925.053235851627 9.3242979013627
endloop
endfacet
facet normal 4.21891553843809e-14 -1.0 1.54765154159926e-26
outer loop
vertex -120.86820249148 -925.053235851627 9.3242979013627
vertex -107.868202491478 -925.053235851627 9.3242979013627
vertex -111.003554905145 -925.053235851629 10.6230033939229
endloop
endfacet
facet normal 4.21891553843809e-14 -1.0 1.54765154159926e-26
outer loop
vertex -120.86820249148 -925.053235851627 9.3242979013627
vertex -111.003554905145 -925.053235851629 10.6230033939229
vertex -117.732850077813 -925.053235851629 10.6230033939229
endloop
endfacet
facet normal 4.21891553843809e-14 -1.0 1.54765154159926e-26
outer loop
vertex -117.732850077813 -925.053235851629 10.6230033939229
vertex -111.003554905145 -925.053235851629 10.6230033939229
vertex -114.36820249148 -925.05323585163 11.065967652165
endloop
endfacet
facet normal 0.258819045102377 -9.58744037382447e-13 0.965925826289107
outer loop
vertex -110.615326337483 -953.21920350388 12.0718921333266
vertex -107.118202491479 -922.853235851628 10.6233360070415
vertex -110.615326337492 -922.853235851631 12.0718921333586
endloop
endfacet
facet normal 0.499999999999995 -7.56528309810641e-13 0.866025403784442
outer loop
vertex -107.118202491479 -922.853235851628 10.6233360070415
vertex -110.615326337483 -953.21920350388 12.0718921333266
vertex -107.118202491469 -953.219203503878 10.6233360070094
endloop
endfacet
facet normal -0.499999999999994 7.64441790917702e-13 -0.866025403784442
outer loop
vertex -107.868202491478 -925.053235851627 9.3242979013627
vertex -111.003554905137 -953.219203503878 10.623003393893
vertex -111.003554905145 -925.053235851629 10.6230033939229
endloop
endfacet
facet normal -0.258819045102345 9.65975388354207e-13 -0.965925826289115
outer loop
vertex -111.003554905137 -953.219203503878 10.623003393893
vertex -107.868202491478 -925.053235851627 9.3242979013627
vertex -107.868202491469 -953.219203503876 9.32429790133278
endloop
endfacet
facet normal -0.499999999999962 5.36696015818423e-13 -0.86602540378446
outer loop
vertex -108.968202491474 -922.853235851624 7.419042013039
vertex -111.572956804366 -925.053235851626 8.49796657608704
vertex -111.572956804367 -922.853235851626 8.4979665760889
endloop
endfacet
facet normal -0.258819045102262 7.41213794102187e-13 -0.965925826289138
outer loop
vertex -111.572956804366 -925.053235851626 8.49796657608704
vertex -108.968202491474 -922.853235851624 7.419042013039
vertex -108.968202491474 -925.053235851624 7.41904201303715
endloop
endfacet
facet normal -0.645752042092651 6.10103563924384e-13 -0.763547182650274
outer loop
vertex -103.386428900153 -925.053235851619 5.74502522949459
vertex -105.175814336044 -953.219203503873 7.25835580756019
vertex -105.175814336053 -925.053235851624 7.2583558075901
endloop
endfacet
facet normal -0.645752042092651 6.10103563924384e-13 -0.763547182650274
outer loop
vertex -105.175814336044 -953.219203503873 7.25835580756019
vertex -103.386428900153 -925.053235851619 5.74502522949459
vertex -103.386428900144 -953.219203503868 5.74502522946468
endloop
endfacet
facet normal -0.683862147873377 2.59545476972438e-13 -0.729611240802944
outer loop
vertex -103.268202491473 -922.853235851618 2.45663141332908
vertex -106.731449254659 -925.053235851622 5.70272088898002
vertex -106.73144925466 -922.853235851622 5.70272088898188
endloop
endfacet
facet normal -0.683862147873377 2.59545476972438e-13 -0.729611240802944
outer loop
vertex -106.731449254659 -925.053235851622 5.70272088898002
vertex -103.268202491473 -922.853235851618 2.45663141332908
vertex -103.268202491472 -925.053235851616 2.45663141332784
endloop
endfacet
facet normal -0.608761429008721 6.53413585377536e-13 -0.793353340291235
outer loop
vertex -105.175814336053 -925.053235851624 7.2583558075901
vertex -107.868202491469 -953.219203503876 9.32429790133278
vertex -107.868202491478 -925.053235851627 9.3242979013627
endloop
endfacet
facet normal -0.500000000000006 7.6444179091769e-13 -0.866025403784435
outer loop
vertex -107.868202491469 -953.219203503876 9.32429790133278
vertex -105.175814336053 -925.053235851624 7.2583558075901
vertex -105.175814336044 -953.219203503873 7.25835580756019
endloop
endfacet
facet normal 0.86602540378443 -2.55395889562844e-13 0.500000000000014
outer loop
vertex -101.810834136595 -953.21920350387 5.31596765213508
vertex -104.115154164274 -922.853235851625 8.31901597937205
vertex -104.115154164265 -953.219203503874 8.31901597934002
endloop
endfacet
facet normal 0.707106781186551 -5.23645438108793e-13 0.707106781186544
outer loop
vertex -104.115154164274 -922.853235851625 8.31901597937205
vertex -101.810834136595 -953.21920350387 5.31596765213508
vertex -101.810834136605 -922.853235851621 5.31596765216711
endloop
endfacet
facet normal 0.991444861373667 3.11933071491243e-13 0.130526192221139
outer loop
vertex -99.8682024914695 -953.21920350386 -1.93403234780084
vertex -100.362278010288 -922.853235851616 1.81884380615368
vertex -100.362278010278 -953.219203503865 1.81884380612163
endloop
endfacet
facet normal 0.965925826288933 1.00089508389217e-13 0.258819045103027
outer loop
vertex -100.362278010288 -922.853235851616 1.81884380615368
vertex -99.8682024914695 -953.21920350386 -1.93403234780084
vertex -99.868202491479 -922.85323585161 -1.93403234783288
endloop
endfacet
facet normal -0.130526192219661 1.05303248452272e-12 -0.991444861373862
outer loop
vertex -114.36820249148 -925.05323585163 11.065967652165
vertex -111.003554905137 -953.219203503878 10.623003393893
vertex -114.368202491488 -953.219203503878 11.0659676521351
endloop
endfacet
facet normal -0.258819045102345 9.65975388354207e-13 -0.965925826289115
outer loop
vertex -111.003554905137 -953.219203503878 10.623003393893
vertex -114.36820249148 -925.05323585163 11.065967652165
vertex -111.003554905145 -925.053235851629 10.6230033939229
endloop
endfacet
facet normal -0.608761429008691 4.31363962961673e-13 -0.793353340291258
outer loop
vertex -106.73144925466 -922.853235851622 5.70272088898188
vertex -108.968202491474 -925.053235851624 7.41904201303715
vertex -108.968202491474 -922.853235851624 7.419042013039
endloop
endfacet
facet normal -0.499999999999969 5.36696015818417e-13 -0.866025403784456
outer loop
vertex -108.968202491474 -925.053235851624 7.41904201303715
vertex -106.73144925466 -922.853235851622 5.70272088898188
vertex -106.731449254659 -925.053235851622 5.70272088898002
endloop
endfacet
facet normal 0.96592582628892 1.00089508389138e-13 0.258819045103074
outer loop
vertex -100.362278010278 -953.219203503865 1.81884380612163
vertex -101.810834136605 -922.853235851621 5.31596765216711
vertex -101.810834136595 -953.21920350387 5.31596765213508
endloop
endfacet
facet normal 0.866025403784445 -2.55395889562812e-13 0.499999999999989
outer loop
vertex -101.810834136605 -922.853235851621 5.31596765216711
vertex -100.362278010278 -953.219203503865 1.81884380612163
vertex -100.362278010288 -922.853235851616 1.81884380615368
endloop
endfacet
facet normal -0.130526192219558 8.36900163639691e-13 -0.991444861373876
outer loop
vertex -114.368202491483 -922.853235851627 8.86596765216685
vertex -111.572956804366 -925.053235851626 8.49796657608704
vertex -114.368202491484 -925.053235851627 8.86596765216499
endloop
endfacet
facet normal -0.258819045102262 7.41213794102187e-13 -0.965925826289138
outer loop
vertex -111.572956804366 -925.053235851626 8.49796657608704
vertex -114.368202491483 -922.853235851627 8.86596765216685
vertex -111.572956804367 -922.853235851626 8.4979665760889
endloop
endfacet
facet normal -0.997354649646201 -3.09953133695398e-13 -0.0726890832869928
outer loop
vertex -103.386428900153 -925.05323585162 4.92638330573254
vertex -102.886428900144 -953.219203503866 -1.93403234780084
vertex -103.386428900144 -953.219203503869 4.92638330570264
endloop
endfacet
facet normal -0.997354649646201 -3.09953133695398e-13 -0.0726890832869928
outer loop
vertex -102.886428900144 -953.219203503866 -1.93403234780084
vertex -103.386428900153 -925.05323585162 4.92638330573254
vertex -102.886428900153 -925.053235851617 -1.93403234783075
endloop
endfacet
facet normal 0.500000000000006 -7.56528309810631e-13 0.866025403784435
outer loop
vertex -107.118202491469 -953.219203503878 10.6233360070094
vertex -104.115154164274 -922.853235851625 8.31901597937205
vertex -107.118202491479 -922.853235851628 10.6233360070415
endloop
endfacet
facet normal 0.707106781186551 -5.23645438108793e-13 0.707106781186544
outer loop
vertex -104.115154164274 -922.853235851625 8.31901597937205
vertex -107.118202491469 -953.219203503878 10.6233360070094
vertex -104.115154164265 -953.219203503874 8.31901597934002
endloop
endfacet
facet normal 0.866025403784446 -2.55421441401095e-13 -0.499999999999986
outer loop
vertex -101.810834136605 -922.853235851621 -9.18403234783287
vertex -100.362278010278 -953.219203503865 -5.68690850178739
vertex -101.810834136595 -953.21920350387 -9.18403234780083
endloop
endfacet
facet normal 0.965925826289062 3.043635653846e-14 -0.258819045102545
outer loop
vertex -100.362278010278 -953.219203503865 -5.68690850178739
vertex -101.810834136605 -922.853235851621 -9.18403234783287
vertex -100.362278010288 -922.853235851616 -5.68690850181943
endloop
endfacet
facet normal 0.707106781186551 -5.239137761928e-13 -0.707106781186544
outer loop
vertex -104.115154164274 -922.853235851625 -12.1870806750378
vertex -107.118202491469 -953.219203503878 -14.4914007026752
vertex -107.118202491479 -922.853235851628 -14.4914007027072
endloop
endfacet
facet normal 0.500000000000006 -7.56819890667173e-13 -0.866025403784435
outer loop
vertex -107.118202491469 -953.219203503878 -14.4914007026752
vertex -104.115154164274 -922.853235851625 -12.1870806750378
vertex -104.115154164265 -953.219203503874 -12.1870806750058
endloop
endfacet
facet normal -0.258819045102346 9.65975016898157e-13 0.965925826289115
outer loop
vertex -111.003554905137 -953.219203503878 -14.4910680895587
vertex -107.868202491478 -925.053235851627 -13.1923625970285
vertex -111.003554905145 -925.053235851629 -14.4910680895886
endloop
endfacet
facet normal -0.499999999999995 7.64450676659746e-13 0.866025403784442
outer loop
vertex -107.868202491478 -925.053235851627 -13.1923625970285
vertex -111.003554905137 -953.219203503878 -14.4910680895587
vertex -107.868202491469 -953.219203503876 -13.1923625969985
endloop
endfacet
facet normal -1.32141545195239e-26 1.0 -3.70695040495138e-14
outer loop
vertex -124.621250818684 -922.853235851625 -12.1870806750378
vertex -114.368202491483 -922.853235851627 -12.7340323478326
vertex -121.618202491479 -922.853235851628 -14.4914007027072
endloop
endfacet
facet normal -1.32141545195239e-26 1.0 -3.70695040495138e-14
outer loop
vertex -114.368202491483 -922.853235851627 -12.7340323478326
vertex -124.621250818684 -922.853235851625 -12.1870806750378
vertex -117.163448178591 -922.853235851626 -12.3660312717546
endloop
endfacet
facet normal -1.32141545195239e-26 1.0 -3.70695040495138e-14
outer loop
vertex -117.163448178591 -922.853235851626 -12.3660312717546
vertex -124.621250818684 -922.853235851625 -12.1870806750378
vertex -119.768202491484 -922.853235851624 -11.2871067087048
endloop
endfacet
facet normal -1.32141545195239e-26 1.0 -3.70695040495138e-14
outer loop
vertex -119.768202491484 -922.853235851624 -11.2871067087048
vertex -124.621250818684 -922.853235851625 -12.1870806750378
vertex -126.925570846353 -922.853235851621 -9.18403234783287
endloop
endfacet
facet normal -1.32141545195239e-26 1.0 -3.70695040495138e-14
outer loop
vertex -119.768202491484 -922.853235851624 -11.2871067087048
vertex -126.925570846353 -922.853235851621 -9.18403234783287
vertex -122.004955728298 -922.853235851622 -9.57078558464763
endloop
endfacet
facet normal -1.32141545195239e-26 1.0 -3.70695040495138e-14
outer loop
vertex -122.004955728298 -922.853235851622 -9.57078558464763
vertex -126.925570846353 -922.853235851621 -9.18403234783287
vertex -125.468202491485 -922.853235851618 -6.32469610899483
endloop
endfacet
facet normal -1.32141545195239e-26 1.0 -3.70695040495138e-14
outer loop
vertex -125.468202491485 -922.853235851618 -6.32469610899483
vertex -126.925570846353 -922.853235851621 -9.18403234783287
vertex -128.37412697267 -922.853235851616 -5.68690850181943
endloop
endfacet
facet normal -1.32141545195239e-26 1.0 -3.70695040495138e-14
outer loop
vertex -125.468202491485 -922.853235851618 -6.32469610899483
vertex -128.37412697267 -922.853235851616 -5.68690850181943
vertex -125.468202491485 -922.853235851618 2.45663141332908
endloop
endfacet
facet normal -1.32141545195239e-26 1.0 -3.70695040495138e-14
outer loop
vertex -125.468202491485 -922.853235851618 2.45663141332908
vertex -128.37412697267 -922.853235851616 -5.68690850181943
vertex -128.868202491479 -922.85323585161 -1.93403234783288
endloop
endfacet
facet normal -1.32141545195239e-26 1.0 -3.70695040495138e-14
outer loop
vertex -125.468202491485 -922.853235851618 2.45663141332908
vertex -128.868202491479 -922.85323585161 -1.93403234783288
vertex -128.37412697267 -922.853235851616 1.81884380615368
endloop
endfacet
facet normal -1.32141545195239e-26 1.0 -3.70695040495138e-14
outer loop
vertex -125.468202491485 -922.853235851618 2.45663141332908
vertex -128.37412697267 -922.853235851616 1.81884380615368
vertex -126.925570846353 -922.853235851621 5.31596765216712
endloop
endfacet
facet normal -1.32141545195239e-26 1.0 -3.70695040495138e-14
outer loop
vertex -125.468202491485 -922.853235851618 2.45663141332908
vertex -126.925570846353 -922.853235851621 5.31596765216712
vertex -122.004955728298 -922.853235851622 5.70272088898188
endloop
endfacet
facet normal -1.32141545195239e-26 1.0 -3.70695040495138e-14
outer loop
vertex -122.004955728298 -922.853235851622 5.70272088898188
vertex -126.925570846353 -922.853235851621 5.31596765216712
vertex -124.621250818684 -922.853235851625 8.31901597937206
endloop
endfacet
facet normal -1.32141545195239e-26 1.0 -3.70695040495138e-14
outer loop
vertex -122.004955728298 -922.853235851622 5.70272088898188
vertex -124.621250818684 -922.853235851625 8.31901597937206
vertex -119.768202491484 -922.853235851624 7.419042013039
endloop
endfacet
facet normal -1.32141545195239e-26 1.0 -3.70695040495138e-14
outer loop
vertex -119.768202491484 -922.853235851624 7.419042013039
vertex -124.621250818684 -922.853235851625 8.31901597937206
vertex -117.163448178591 -922.853235851626 8.4979665760889
endloop
endfacet
facet normal -1.32141545195239e-26 1.0 -3.70695040495138e-14
outer loop
vertex -117.163448178591 -922.853235851626 8.4979665760889
vertex -124.621250818684 -922.853235851625 8.31901597937206
vertex -121.618202491479 -922.853235851628 10.6233360070415
endloop
endfacet
facet normal -1.32141545195239e-26 1.0 -3.70695040495138e-14
outer loop
vertex -117.163448178591 -922.853235851626 8.4979665760889
vertex -121.618202491479 -922.853235851628 10.6233360070415
vertex -114.368202491483 -922.853235851627 8.86596765216685
endloop
endfacet
facet normal -1.32141545195239e-26 1.0 -3.70695040495138e-14
outer loop
vertex -118.121078645465 -922.853235851631 -15.9399568290244
vertex -110.615326337492 -922.853235851631 -15.9399568290244
vertex -114.368202491479 -922.853235851631 -16.4340323478329
endloop
endfacet
facet normal -1.32141545195239e-26 1.0 -3.70695040495138e-14
outer loop
vertex -110.615326337492 -922.853235851631 -15.9399568290244
vertex -118.121078645465 -922.853235851631 -15.9399568290244
vertex -107.118202491479 -922.853235851628 -14.4914007027072
endloop
endfacet
facet normal -1.32141545195239e-26 1.0 -3.70695040495138e-14
outer loop
vertex -107.118202491479 -922.853235851628 -14.4914007027072
vertex -118.121078645465 -922.853235851631 -15.9399568290244
vertex -121.618202491479 -922.853235851628 -14.4914007027072
endloop
endfacet
facet normal -1.32141545195239e-26 1.0 -3.70695040495138e-14
outer loop
vertex -107.118202491479 -922.853235851628 -14.4914007027072
vertex -121.618202491479 -922.853235851628 -14.4914007027072
vertex -104.115154164274 -922.853235851625 -12.1870806750378
endloop
endfacet
facet normal -1.32141545195239e-26 1.0 -3.70695040495138e-14
outer loop
vertex -104.115154164274 -922.853235851625 -12.1870806750378
vertex -121.618202491479 -922.853235851628 -14.4914007027072
vertex -114.368202491483 -922.853235851627 -12.7340323478326
endloop
endfacet
facet normal -1.32141545195239e-26 1.0 -3.70695040495138e-14
outer loop
vertex -104.115154164274 -922.853235851625 -12.1870806750378
vertex -114.368202491483 -922.853235851627 -12.7340323478326
vertex -111.572956804367 -922.853235851626 -12.3660312717546
endloop
endfacet
facet normal -1.32141545195239e-26 1.0 -3.70695040495138e-14
outer loop
vertex -104.115154164274 -922.853235851625 -12.1870806750378
vertex -111.572956804367 -922.853235851626 -12.3660312717546
vertex -108.968202491474 -922.853235851624 -11.2871067087048
endloop
endfacet
facet normal -1.32141545195239e-26 1.0 -3.70695040495138e-14
outer loop
vertex -104.115154164274 -922.853235851625 -12.1870806750378
vertex -108.968202491474 -922.853235851624 -11.2871067087048
vertex -101.810834136605 -922.853235851621 -9.18403234783287
endloop
endfacet
facet normal -1.32141545195239e-26 1.0 -3.70695040495138e-14
outer loop
vertex -101.810834136605 -922.853235851621 -9.18403234783287
vertex -108.968202491474 -922.853235851624 -11.2871067087048
vertex -106.73144925466 -922.853235851622 -9.57078558464763
endloop
endfacet
facet normal -1.32141545195239e-26 1.0 -3.70695040495138e-14
outer loop
vertex -101.810834136605 -922.853235851621 -9.18403234783287
vertex -106.73144925466 -922.853235851622 -9.57078558464763
vertex -103.268202491473 -922.853235851618 -6.32469610899483
endloop
endfacet
facet normal -1.32141545195239e-26 1.0 -3.70695040495138e-14
outer loop
vertex -101.810834136605 -922.853235851621 -9.18403234783287
vertex -103.268202491473 -922.853235851618 -6.32469610899483
vertex -100.362278010288 -922.853235851616 -5.68690850181943
endloop
endfacet
facet normal -1.32141545195239e-26 1.0 -3.70695040495138e-14
outer loop
vertex -100.362278010288 -922.853235851616 -5.68690850181943
vertex -103.268202491473 -922.853235851618 -6.32469610899483
vertex -103.268202491473 -922.853235851618 2.45663141332908
endloop
endfacet
facet normal -1.32141545195239e-26 1.0 -3.70695040495138e-14
outer loop
vertex -100.362278010288 -922.853235851616 -5.68690850181943
vertex -103.268202491473 -922.853235851618 2.45663141332908
vertex -99.868202491479 -922.85323585161 -1.93403234783288
endloop
endfacet
facet normal -1.32141545195239e-26 1.0 -3.70695040495138e-14
outer loop
vertex -99.868202491479 -922.85323585161 -1.93403234783288
vertex -103.268202491473 -922.853235851618 2.45663141332908
vertex -100.362278010288 -922.853235851616 1.81884380615368
endloop
endfacet
facet normal -1.32141545195239e-26 1.0 -3.70695040495138e-14
outer loop
vertex -100.362278010288 -922.853235851616 1.81884380615368
vertex -103.268202491473 -922.853235851618 2.45663141332908
vertex -101.810834136605 -922.853235851621 5.31596765216711
endloop
endfacet
facet normal -1.32141545195239e-26 1.0 -3.70695040495138e-14
outer loop
vertex -101.810834136605 -922.853235851621 5.31596765216711
vertex -103.268202491473 -922.853235851618 2.45663141332908
vertex -106.73144925466 -922.853235851622 5.70272088898188
endloop
endfacet
facet normal -1.32141545195239e-26 1.0 -3.70695040495138e-14
outer loop
vertex -101.810834136605 -922.853235851621 5.31596765216711
vertex -106.73144925466 -922.853235851622 5.70272088898188
vertex -104.115154164274 -922.853235851625 8.31901597937205
endloop
endfacet
facet normal -1.32141545195239e-26 1.0 -3.70695040495138e-14
outer loop
vertex -104.115154164274 -922.853235851625 8.31901597937205
vertex -106.73144925466 -922.853235851622 5.70272088898188
vertex -108.968202491474 -922.853235851624 7.419042013039
endloop
endfacet
facet normal -1.32141545195239e-26 1.0 -3.70695040495138e-14
outer loop
vertex -104.115154164274 -922.853235851625 8.31901597937205
vertex -108.968202491474 -922.853235851624 7.419042013039
vertex -111.572956804367 -922.853235851626 8.4979665760889
endloop
endfacet
facet normal -1.32141545195239e-26 1.0 -3.70695040495138e-14
outer loop
vertex -104.115154164274 -922.853235851625 8.31901597937205
vertex -111.572956804367 -922.853235851626 8.4979665760889
vertex -107.118202491479 -922.853235851628 10.6233360070415
endloop
endfacet
facet normal -1.32141545195239e-26 1.0 -3.70695040495138e-14
outer loop
vertex -107.118202491479 -922.853235851628 10.6233360070415
vertex -111.572956804367 -922.853235851626 8.4979665760889
vertex -114.368202491483 -922.853235851627 8.86596765216685
endloop
endfacet
facet normal -1.32141545195239e-26 1.0 -3.70695040495138e-14
outer loop
vertex -107.118202491479 -922.853235851628 10.6233360070415
vertex -114.368202491483 -922.853235851627 8.86596765216685
vertex -121.618202491479 -922.853235851628 10.6233360070415
endloop
endfacet
facet normal -1.32141545195239e-26 1.0 -3.70695040495138e-14
outer loop
vertex -107.118202491479 -922.853235851628 10.6233360070415
vertex -121.618202491479 -922.853235851628 10.6233360070415
vertex -118.121078645465 -922.853235851631 12.0718921333586
endloop
endfacet
facet normal -1.32141545195239e-26 1.0 -3.70695040495138e-14
outer loop
vertex -107.118202491479 -922.853235851628 10.6233360070415
vertex -118.121078645465 -922.853235851631 12.0718921333586
vertex -110.615326337492 -922.853235851631 12.0718921333586
endloop
endfacet
facet normal -1.32141545195239e-26 1.0 -3.70695040495138e-14
outer loop
vertex -110.615326337492 -922.853235851631 12.0718921333586
vertex -118.121078645465 -922.853235851631 12.0718921333586
vertex -114.368202491479 -922.853235851631 12.5659676521671
endloop
endfacet
facet normal -0.258819045102535 -9.38172419483672e-13 0.965925826289065
outer loop
vertex -118.121078645475 -953.21920350388 12.0718921333266
vertex -121.618202491479 -922.853235851628 10.6233360070415
vertex -121.618202491489 -953.219203503878 10.6233360070094
endloop
endfacet
facet normal -0.499999999999995 -7.5658974191026e-13 0.866025403784442
outer loop
vertex -121.618202491479 -922.853235851628 10.6233360070415
vertex -118.121078645475 -953.21920350388 12.0718921333266
vertex -118.121078645465 -922.853235851631 12.0718921333586
endloop
endfacet
facet normal 0.499999999999993 7.64420813838787e-13 -0.866025403784442
outer loop
vertex -120.86820249148 -925.053235851627 9.3242979013627
vertex -117.732850077821 -953.219203503878 10.623003393893
vertex -120.868202491489 -953.219203503876 9.32429790133279
endloop
endfacet
facet normal 0.258819045102536 9.45542572783891e-13 -0.965925826289064
outer loop
vertex -117.732850077821 -953.219203503878 10.623003393893
vertex -120.86820249148 -925.053235851627 9.3242979013627
vertex -117.732850077813 -925.053235851629 10.6230033939229
endloop
endfacet
facet normal 0.499999999999962 5.36430438085038e-13 -0.86602540378446
outer loop
vertex -119.768202491484 -922.853235851624 7.419042013039
vertex -117.163448178592 -925.053235851626 8.49796657608705
vertex -119.768202491484 -925.053235851624 7.41904201303715
endloop
endfacet
facet normal 0.258819045102483 7.15558186099654e-13 -0.965925826289079
outer loop
vertex -117.163448178592 -925.053235851626 8.49796657608705
vertex -119.768202491484 -922.853235851624 7.419042013039
vertex -117.163448178591 -922.853235851626 8.4979665760889
endloop
endfacet
facet normal 0.645752042092651 6.10122952982878e-13 -0.763547182650274
outer loop
vertex -125.349976082805 -925.053235851619 5.7450252294946
vertex -123.560590646914 -953.219203503873 7.2583558075602
vertex -125.349976082814 -953.219203503868 5.74502522946469
endloop
endfacet
facet normal 0.645752042092651 6.10122952982878e-13 -0.763547182650274
outer loop
vertex -123.560590646914 -953.219203503873 7.2583558075602
vertex -125.349976082805 -925.053235851619 5.7450252294946
vertex -123.560590646905 -925.053235851624 7.2583558075901
endloop
endfacet
facet normal 0.683862147873377 2.58870632282269e-13 -0.729611240802944
outer loop
vertex -125.468202491485 -922.853235851618 2.45663141332908
vertex -122.004955728299 -925.053235851622 5.70272088898002
vertex -125.468202491486 -925.053235851616 2.45663141332785
endloop
endfacet
facet normal 0.683862147873377 2.58870632282269e-13 -0.729611240802944
outer loop
vertex -122.004955728299 -925.053235851622 5.70272088898002
vertex -125.468202491485 -922.853235851618 2.45663141332908
vertex -122.004955728298 -922.853235851622 5.70272088898188
endloop
endfacet
facet normal 0.608761429008721 6.53373293501224e-13 -0.793353340291235
outer loop
vertex -123.560590646905 -925.053235851624 7.2583558075901
vertex -120.868202491489 -953.219203503876 9.32429790133279
vertex -123.560590646914 -953.219203503873 7.2583558075602
endloop
endfacet
facet normal 0.500000000000006 7.64420813838775e-13 -0.866025403784435
outer loop
vertex -120.868202491489 -953.219203503876 9.32429790133279
vertex -123.560590646905 -925.053235851624 7.2583558075901
vertex -120.86820249148 -925.053235851627 9.3242979013627
endloop
endfacet
facet normal -0.707106781186551 -5.23671343955215e-13 0.707106781186544
outer loop
vertex -124.621250818684 -922.853235851625 8.31901597937206
vertex -126.925570846363 -953.21920350387 5.31596765213508
vertex -124.621250818693 -953.219203503874 8.31901597934002
endloop
endfacet
facet normal -0.86602540378443 -2.55408026900638e-13 0.500000000000014
outer loop
vertex -126.925570846363 -953.21920350387 5.31596765213508
vertex -124.621250818684 -922.853235851625 8.31901597937206
vertex -126.925570846353 -922.853235851621 5.31596765216712
endloop
endfacet
facet normal -0.965925826288933 1.00084503969529e-13 0.258819045103027
outer loop
vertex -128.37412697267 -922.853235851616 1.81884380615368
vertex -128.868202491488 -953.21920350386 -1.93403234780083
vertex -128.37412697268 -953.219203503865 1.81884380612163
endloop
endfacet
facet normal -0.991444861373667 3.11932437795049e-13 0.130526192221139
outer loop
vertex -128.868202491488 -953.21920350386 -1.93403234780083
vertex -128.37412697267 -922.853235851616 1.81884380615368
vertex -128.868202491479 -922.85323585161 -1.93403234783288
endloop
endfacet
facet normal 0.258819045102504 9.4554257278391e-13 -0.965925826289073
outer loop
vertex -117.732850077813 -925.053235851629 10.6230033939229
vertex -114.368202491488 -953.219203503878 11.0659676521351
vertex -117.732850077821 -953.219203503878 10.623003393893
endloop
endfacet
facet normal 0.130526192220053 1.01251776787947e-12 -0.99144486137381
outer loop
vertex -114.368202491488 -953.219203503878 11.0659676521351
vertex -117.732850077813 -925.053235851629 10.6230033939229
vertex -114.36820249148 -925.05323585163 11.065967652165
endloop
endfacet
facet normal 0.608761429008691 4.30859473991126e-13 -0.793353340291258
outer loop
vertex -122.004955728298 -922.853235851622 5.70272088898188
vertex -119.768202491484 -925.053235851624 7.41904201303715
vertex -122.004955728299 -925.053235851622 5.70272088898002
endloop
endfacet
facet normal 0.499999999999969 5.36430438085032e-13 -0.866025403784456
outer loop
vertex -119.768202491484 -925.053235851624 7.41904201303715
vertex -122.004955728298 -922.853235851622 5.70272088898188
vertex -119.768202491484 -922.853235851624 7.419042013039
endloop
endfacet
facet normal -0.866025403784445 -2.55408026900607e-13 0.499999999999989
outer loop
vertex -126.925570846353 -922.853235851621 5.31596765216712
vertex -128.37412697268 -953.219203503865 1.81884380612163
vertex -126.925570846363 -953.21920350387 5.31596765213508
endloop
endfacet
facet normal -0.96592582628892 1.00084503969449e-13 0.258819045103074
outer loop
vertex -128.37412697268 -953.219203503865 1.81884380612163
vertex -126.925570846353 -922.853235851621 5.31596765216712
vertex -128.37412697267 -922.853235851616 1.81884380615368
endloop
endfacet
facet normal 0.258819045102478 7.15558186099656e-13 -0.96592582628908
outer loop
vertex -117.163448178591 -922.853235851626 8.4979665760889
vertex -114.368202491484 -925.053235851627 8.86596765216499
vertex -117.163448178592 -925.053235851626 8.49796657608705
endloop
endfacet
facet normal 0.13052619222001 7.86050044588242e-13 -0.991444861373816
outer loop
vertex -114.368202491484 -925.053235851627 8.86596765216499
vertex -117.163448178591 -922.853235851626 8.4979665760889
vertex -114.368202491483 -922.853235851627 8.86596765216685
endloop
endfacet
facet normal 0.997354649646201 -3.0995078945767e-13 -0.0726890832869928
outer loop
vertex -125.849976082814 -953.219203503866 -1.93403234780083
vertex -125.349976082805 -925.05323585162 4.92638330573255
vertex -125.349976082814 -953.219203503869 4.92638330570264
endloop
endfacet
facet normal 0.997354649646201 -3.0995078945767e-13 -0.0726890832869928
outer loop
vertex -125.349976082805 -925.05323585162 4.92638330573255
vertex -125.849976082814 -953.219203503866 -1.93403234780083
vertex -125.849976082805 -925.053235851617 -1.93403234783074
endloop
endfacet
facet normal -0.500000000000006 -7.56589741910249e-13 0.866025403784435
outer loop
vertex -121.618202491489 -953.219203503878 10.6233360070094
vertex -124.621250818684 -922.853235851625 8.31901597937206
vertex -124.621250818693 -953.219203503874 8.31901597934002
endloop
endfacet
facet normal -0.707106781186551 -5.23671343955215e-13 0.707106781186544
outer loop
vertex -124.621250818684 -922.853235851625 8.31901597937206
vertex -121.618202491489 -953.219203503878 10.6233360070094
vertex -121.618202491479 -922.853235851628 10.6233360070415
endloop
endfacet
facet normal -0.130526192220053 -1.00547090303473e-12 0.99144486137381
outer loop
vertex -114.368202491488 -953.219203503881 12.5659676521351
vertex -118.121078645465 -922.853235851631 12.0718921333586
vertex -118.121078645475 -953.21920350388 12.0718921333266
endloop
endfacet
facet normal -0.258819045102504 -9.3817241948369e-13 0.965925826289073
outer loop
vertex -118.121078645465 -922.853235851631 12.0718921333586
vertex -114.368202491488 -953.219203503881 12.5659676521351
vertex -114.368202491479 -922.853235851631 12.5659676521671
endloop
endfacet
facet normal -0.70710678118655 -5.29119504865669e-13 -0.707106781186545
outer loop
vertex -124.621250818684 -922.853235851625 -12.1870806750378
vertex -121.618202491488 -953.219203503878 -14.4914007026752
vertex -124.621250818693 -953.219203503874 -12.1870806750058
endloop
endfacet
facet normal -0.500000000000005 -7.62851091774117e-13 -0.866025403784436
outer loop
vertex -121.618202491488 -953.219203503878 -14.4914007026752
vertex -124.621250818684 -922.853235851625 -12.1870806750378
vertex -121.618202491479 -922.853235851628 -14.4914007027072
endloop
endfacet
facet normal 0.258819045102537 9.44887583135239e-13 0.965925826289064
outer loop
vertex -117.732850077821 -953.219203503878 -14.4910680895587
vertex -120.86820249148 -925.053235851627 -13.1923625970285
vertex -120.868202491488 -953.219203503876 -13.1923625969985
endloop
endfacet
facet normal 0.499999999999994 7.62851091774127e-13 0.866025403784442
outer loop
vertex -120.86820249148 -925.053235851627 -13.1923625970285
vertex -117.732850077821 -953.219203503878 -14.4910680895587
vertex -117.732850077812 -925.053235851629 -14.4910680895886
endloop
endfacet
facet normal -0.965925826289062 2.88632240434317e-14 -0.258819045102545
outer loop
vertex -128.37412697268 -953.219203503865 -5.68690850178738
vertex -126.925570846353 -922.853235851621 -9.18403234783287
vertex -126.925570846363 -953.21920350387 -9.18403234780083
endloop
endfacet
facet normal -0.866025403784447 -2.59329298111937e-13 -0.499999999999986
outer loop
vertex -126.925570846353 -922.853235851621 -9.18403234783287
vertex -128.37412697268 -953.219203503865 -5.68690850178738
vertex -128.37412697267 -922.853235851616 -5.68690850181943
endloop
endfacet
facet normal 0.997354649646227 -2.32757537857172e-13 0.0726890832866359
outer loop
vertex -125.349976082805 -925.05323585162 -8.7944480013983
vertex -125.849976082814 -953.219203503866 -1.93403234780083
vertex -125.349976082814 -953.219203503869 -8.79444800136839
endloop
endfacet
facet normal 0.997354649646227 -2.32757537857172e-13 0.0726890832866359
outer loop
vertex -125.849976082814 -953.219203503866 -1.93403234780083
vertex -125.349976082805 -925.05323585162 -8.7944480013983
vertex -125.849976082805 -925.053235851617 -1.93403234783074
endloop
endfacet
facet normal 1.0 -3.55486683860956e-13 1.28452855237652e-15
outer loop
vertex -125.468202491485 -922.853235851618 -6.32469610899483
vertex -125.468202491486 -925.053235851616 2.45663141332785
vertex -125.468202491486 -925.053235851616 -6.3246961089936
endloop
endfacet
facet normal 1.0 -3.55486683860956e-13 1.28452855237652e-15
outer loop
vertex -125.468202491486 -925.053235851616 2.45663141332785
vertex -125.468202491485 -922.853235851618 -6.32469610899483
vertex -125.468202491485 -922.853235851618 2.45663141332908
endloop
endfacet
facet normal 1.0 -3.13679571553042e-13 -2.76615279776399e-25
outer loop
vertex -125.349976082814 -953.219203503868 -9.61308992513044
vertex -125.349976082805 -925.05323585162 -8.7944480013983
vertex -125.349976082814 -953.219203503869 -8.79444800136839
endloop
endfacet
facet normal 1.0 -3.13679571553042e-13 -2.76615279776399e-25
outer loop
vertex -125.349976082805 -925.05323585162 -8.7944480013983
vertex -125.349976082814 -953.219203503868 -9.61308992513044
vertex -125.349976082805 -925.053235851619 -9.61308992516035
endloop
endfacet
facet normal -0.258819045102505 -9.41284531499699e-13 -0.965925826289073
outer loop
vertex -118.121078645465 -922.853235851631 -15.9399568290244
vertex -114.368202491488 -953.219203503881 -16.4340323478008
vertex -118.121078645475 -953.21920350388 -15.9399568289923
endloop
endfacet
facet normal -0.130526192220052 -1.00537331382079e-12 -0.99144486137381
outer loop
vertex -114.368202491488 -953.219203503881 -16.4340323478008
vertex -118.121078645465 -922.853235851631 -15.9399568290244
vertex -114.368202491479 -922.853235851631 -16.4340323478329
endloop
endfacet
facet normal 0.645752042092646 6.08303108082701e-13 0.763547182650278
outer loop
vertex -123.560590646914 -953.219203503873 -11.1264205032259
vertex -125.349976082805 -925.053235851619 -9.61308992516035
vertex -125.349976082814 -953.219203503868 -9.61308992513044
endloop
endfacet
facet normal 0.645752042092646 6.08303108082701e-13 0.763547182650278
outer loop
vertex -125.349976082805 -925.053235851619 -9.61308992516035
vertex -123.560590646914 -953.219203503873 -11.1264205032259
vertex -123.560590646905 -925.053235851624 -11.1264205032559
endloop
endfacet
facet normal 0.130526192220052 1.01251776787947e-12 0.99144486137381
outer loop
vertex -114.368202491488 -953.219203503878 -14.9340323478008
vertex -117.732850077812 -925.053235851629 -14.4910680895886
vertex -117.732850077821 -953.219203503878 -14.4910680895587
endloop
endfacet
facet normal 0.258819045102505 9.44887583135258e-13 0.965925826289073
outer loop
vertex -117.732850077812 -925.053235851629 -14.4910680895886
vertex -114.368202491488 -953.219203503878 -14.9340323478008
vertex -114.36820249148 -925.05323585163 -14.9340323478308
endloop
endfacet
facet normal 0.683862147873377 2.58954987868542e-13 0.729611240802944
outer loop
vertex -122.004955728299 -925.053235851622 -9.57078558464577
vertex -125.468202491485 -922.853235851618 -6.32469610899483
vertex -125.468202491486 -925.053235851616 -6.3246961089936
endloop
endfacet
facet normal 0.683862147873377 2.58954987868542e-13 0.729611240802944
outer loop
vertex -125.468202491485 -922.853235851618 -6.32469610899483
vertex -122.004955728299 -925.053235851622 -9.57078558464577
vertex -122.004955728298 -922.853235851622 -9.57078558464763
endloop
endfacet
facet normal -0.499999999999993 -7.62851091774128e-13 -0.866025403784443
outer loop
vertex -121.618202491479 -922.853235851628 -14.4914007027072
vertex -118.121078645475 -953.21920350388 -15.9399568289923
vertex -121.618202491488 -953.219203503878 -14.4914007026752
endloop
endfacet
facet normal -0.258819045102536 -9.41284531499682e-13 -0.965925826289064
outer loop
vertex -118.121078645475 -953.21920350388 -15.9399568289923
vertex -121.618202491479 -922.853235851628 -14.4914007027072
vertex -118.121078645465 -922.853235851631 -15.9399568290244
endloop
endfacet
facet normal 1.0 -3.10771356052802e-13 2.73902865670437e-25
outer loop
vertex -125.349976082805 -925.05323585162 4.92638330573255
vertex -125.349976082814 -953.219203503868 5.74502522946469
vertex -125.349976082814 -953.219203503869 4.92638330570264
endloop
endfacet
facet normal 1.0 -3.10771356052802e-13 2.73902865670437e-25
outer loop
vertex -125.349976082814 -953.219203503868 5.74502522946469
vertex -125.349976082805 -925.05323585162 4.92638330573255
vertex -125.349976082805 -925.053235851619 5.7450252294946
endloop
endfacet
facet normal 0.258819045102485 7.20801872825641e-13 0.965925826289078
outer loop
vertex -117.163448178592 -925.053235851626 -12.3660312717528
vertex -119.768202491484 -922.853235851624 -11.2871067087048
vertex -119.768202491484 -925.053235851624 -11.2871067087029
endloop
endfacet
facet normal 0.499999999999962 5.44824140738586e-13 0.866025403784461
outer loop
vertex -119.768202491484 -922.853235851624 -11.2871067087048
vertex -117.163448178592 -925.053235851626 -12.3660312717528
vertex -117.163448178591 -922.853235851626 -12.3660312717546
endloop
endfacet
facet normal 0.499999999999968 5.4482414073858e-13 0.866025403784457
outer loop
vertex -119.768202491484 -925.053235851624 -11.2871067087029
vertex -122.004955728298 -922.853235851622 -9.57078558464763
vertex -122.004955728299 -925.053235851622 -9.57078558464577
endloop
endfacet
facet normal 0.608761429008687 4.37105989481783e-13 0.793353340291261
outer loop
vertex -122.004955728298 -922.853235851622 -9.57078558464763
vertex -119.768202491484 -925.053235851624 -11.2871067087029
vertex -119.768202491484 -922.853235851624 -11.2871067087048
endloop
endfacet
facet normal 0.500000000000005 7.62851091774117e-13 0.866025403784436
outer loop
vertex -120.868202491488 -953.219203503876 -13.1923625969985
vertex -123.560590646905 -925.053235851624 -11.1264205032559
vertex -123.560590646914 -953.219203503873 -11.1264205032259
endloop
endfacet
facet normal 0.608761429008719 6.5155947999446e-13 0.793353340291237
outer loop
vertex -123.560590646905 -925.053235851624 -11.1264205032559
vertex -120.868202491488 -953.219203503876 -13.1923625969985
vertex -120.86820249148 -925.053235851627 -13.1923625970285
endloop
endfacet
facet normal -0.866025403784432 -2.59329298111969e-13 -0.500000000000012
outer loop
vertex -126.925570846363 -953.21920350387 -9.18403234780083
vertex -124.621250818684 -922.853235851625 -12.1870806750378
vertex -124.621250818693 -953.219203503874 -12.1870806750058
endloop
endfacet
facet normal -0.70710678118655 -5.29119504865669e-13 -0.707106781186545
outer loop
vertex -124.621250818684 -922.853235851625 -12.1870806750378
vertex -126.925570846363 -953.21920350387 -9.18403234780083
vertex -126.925570846353 -922.853235851621 -9.18403234783287
endloop
endfacet
facet normal -0.99144486137381 1.73827842045689e-13 -0.130526192220052
outer loop
vertex -128.868202491488 -953.21920350386 -1.93403234780083
vertex -128.37412697267 -922.853235851616 -5.68690850181943
vertex -128.37412697268 -953.219203503865 -5.68690850178738
endloop
endfacet
facet normal -0.965925826289075 2.88632240434861e-14 -0.258819045102498
outer loop
vertex -128.37412697267 -922.853235851616 -5.68690850181943
vertex -128.868202491488 -953.21920350386 -1.93403234780083
vertex -128.868202491479 -922.85323585161 -1.93403234783288
endloop
endfacet
endsolid Nerf Gun
